<mxfile host="app.diagrams.net" modified="2021-05-27T12:03:34.085Z" agent="5.0 (Windows NT 10.0; Win64; x64) AppleWebKit/537.36 (KHTML, like Gecko) Chrome/91.0.4472.77 Safari/537.36" etag="_74lXhCJQ3LZtMQv8P2A" version="14.7.0" type="github">
  <diagram id="q3t7zEw_4uRB6z9wKF-4" name="第 1 页">
    <mxGraphModel dx="1673" dy="896" grid="1" gridSize="10" guides="1" tooltips="1" connect="1" arrows="1" fold="1" page="1" pageScale="1" pageWidth="827" pageHeight="1169" math="0" shadow="0">
      <root>
        <mxCell id="0" />
        <mxCell id="1" parent="0" />
        <mxCell id="73lBX8eidflfjzxf0X3--3" value="" style="shape=image;verticalLabelPosition=bottom;labelBackgroundColor=#ffffff;verticalAlign=top;aspect=fixed;imageAspect=0;image=data:image/png,iVBORw0KGgoAAAANSUhEUgAAA6QAAAPJCAYAAAAF1eVZAAAgAElEQVR4AeydB7gURdaG0V3dNf2uOa8555yzYs45izm7rq45KyrmgDkHTCiiYgDEnDCgiIoiIohiToCShPM/b8EZa/rOzJ25d+5Mz8xXz1Mz3dXV1dWnTlWd75xT1e1GjRpliqKBeEA8IB4QD9QtD/TvZGus0cn6jxpl3Tq0s3btpsQpaX+9d3/rtEYH6xbNi+Tv0C0Hb3TrYO06dMsxf1LGGtapv9/TzTq0m1zmX2XlzxPqQtnt2tkanfpPLj+q/1919fL1L5qIB8QD4gHxQG3zQDs1YG03oNpP7SceEA+IB5rhgTyArn+nNTLgdDLoTABS7msXg8voOUUD0in3TAGZ7fKVlwHBkwFsp05r/AVI/Rr1yQmCo3p5Xv3nUBaIThorxAPiAfFAGnlAgFSTtiZt8YB4QDxQ3zwQgGVkGXULac7/vyykwZqaDwCWAEgnW2W9XABnuxzWVcAwdZycD7CcsZA6f3br0DTNr+m/vnlY7av2FQ+IB+qYBwRI67hx06gBUZ2kmRMPiAcqzgN5LKRN6xFZSJu7JwcgnQw8/wKVo6ZYRZsAy1GjLFhnO3SLXIgTlticIDqRR/OXBFTxgHhAPCAeqAMeECCtg0ZsKlRJ4BVNxAPiAfGAeEA8IB4QD4gHxAPigfTzgACpAKk0S+IB8YB4QDwgHhAPiAfEA+IB8YB4oCo8IEAqxqsK40lblX5tldpIbSQeEA+IB8QD4gHxgHhAPNDWPCBAKkAqQCoeEA+IB8QD4gHxgHhAPCAeEA+IB6rCAwKkYryqMF5ba1pUvrR54gHxgHhAPCAeEA+IB8QD4oH084AAqQCpAKl4QDwgHhAPiAfEA+IB8YB4QDwgHqgKDwiQivGqwnjSVqVfW6U2UhuJB8QD4gHxgHhAPCAeEA+0NQ8IkAqQCpCKB8QD4gHxgHhAPCAeEA+IB8QD4oGq8IAAqRivKozX1poWlS9tnnhAPCAeEA+IB8QD4gHxgHgg/TwgQCpAKkAqHhAPiAfEA+IB8YB4QDwgHhAPiAeqwgM1CUhNQRQQBUQBUUAUEAVEAVFAFBAFRAFRoCAFasFCLEBasAl1URQQBUQBUUAUEAVEAVFAFBAFRIHapIAAaRuZvWuTHVRrUUAUEAVEAVFAFBAFRAFRQBQQBSpHAQHSNgKk119/vV166aXWqVMnRdFAPCAeEA+IB8QD4gHxgHhAPFCAByQ7pwMzXHTJJXbH9Z3t217P2pAnurdxfNyGPft0VdaElgqCa9Jlt127drbddtvZFltsYe3bt1cUDcQD4gHxgHhAPCAeEA+IB8QDCR5AVt55550N2Xn77beX7JygT6VxxKZbbGEHtt/cnt9uK3v75BOt73+Pa6N4vL39v/9a903WFyAtFR0Xm59OpSAKiAKigCggCogCooAoIAqIAs1TQLJz8zSqVI5xQ7+wPvvuaTZ8mP058KM2iRM/+dhsyOfWffONBUiLBZil5lOnqlSX0XNEAVFAFBAFRAFRQBQQBWqdApKd09OCP3zQ357ba3eb9OlAG9vvnTaLf370oQBpqSCzlPzqVOnpVKqJKCAKiAKigCggCogCokC6KSDZOT3tI0A6qonVtmbXkKaHrVQTUUAUEAVEAVFAFBAFRAFRIL0UECBNT9sIkAqQpocbVRNRQBQQBUQBUUAUEAVEAVGgAhQQIK0AkYt8hACpAGmRrKJsooAoIAqIAqKAKCAKiAKiQH1QQIA0Pe0oQCpAmh5uVE1EAVFAFBAFRAFRQBQQBUSBClBAgLQCRC7yEQKkAqRFsoqyiQKigCggCogCooAoIAqIAvVBAQHS9LSjAKkAaXq4UTURBUQBUUAUEAVEAVFAFBAFKkABAdIKELnIRwiQCpAWySrKJgqIAqKAKCAKiAKigCggCtQHBQRI09OOpQJS++Qjs08HTo4f9i/6u6X6Dumopsi3lO+MNpdXnSo9nUo1EQVEAVFAFBAFRAFRQBRINwUkO6enfUoBpIDRjscda6cdeoj9r8OB9uzNN5kVCUoFSAVI08P1qokoIAqIAqKAKCAKiAKiQENTQIA0Pc1fEiAd9Intu+02tu2GG9jm66xtd1/U0eyjAUVZSQVIBUjTw/WqiSggCogCooAoIAqIAqJAQ1NAgDQ9zV8KIB3b7x2zQZ+Yff7Z5FgkGOU+AVIB0vRwvWoiCogCooAoIAqIAqKAKNDQFBAgTU/zlwpIAZctiQKkdQJIDz/8cFt11VVtlVVWUWwwGgwePDg9I1eN12T33XdXP2qw/uNj5k8//VTj3Ft71X/66ac1XzVof7viiitqj2FV44pRQIC0YqRu9kECpE33GmrX3AZCabxeqU4155xz2nHHHWf33Xef3XHHHYoNQINu3boZ/NW3b99mBxRlKI4C0PPcc8+1e+65R32oAfoQY+Vjjz0W+tHw4cOLYxLlKhsFrr76apt33nmta9eu6m8N0t8eeOABa9++ve20005l4yMVVH8UqJTsXH+UK/8bCZAKkJbEVXPMMYe98sorJd2jzLVPgX/+858CpGVsRibBIUOGlLFEFVULFKDdv/rqq1qoal3VEUC62Wab1dU76WWap8DFF19sO+64Y/MZlaNhKSBAmp6mFyAVIC2JGwGkvXr1KukeZa59Ckw77bQCpGVsRibBDz/8sIwlqqhaoIAAaXVaCUC60UYbVefhemrVKIAXigBp1chfEw8WIE1PMwmQCpCWxI0CpCWRq24yC5CWtykFSMtLz1opTYC0Oi0lQFodulf7qQKk1W6B9D9fgDQ9bQQg7bPPnmZDh9iEDz9om/jRALPPBln3zTe2NC6/TNZJa0gL8KcAaQHi1PElAdLyNq4AaXnpWSulCZBWp6UESKtD92o/VYC02i2Q/ucLkKanjX7o/7712Gpz+/yWG23QdVe3Tex8jX1+0/X23A7bCJAm0W+5zivVqQRI09N5K1kTAdLyUluAtLz0rJXSBEir01ICpNWhe7WfKkBa7RZI//MrJTunnxLVr+Go4cPt7QvOs3cuuqDt4sUX2gdXXGrHLLuUAGm5AGiynEp1KgHS6nfaatRAgLS8VBcgLS89a6U0AdLqtJQAaXXoXu2nCpBWuwXS//xKyc7pp0Rj1ZB2T+KoNJ7LZbcAXwqQFiBOHV8SIC1v4wqQlpeetVKaAGl1WkqAtDp0r/ZTBUir3QLpf74AafrbqC1qKEA6qukOSuVC5JXqVAKkbdE10l+mAGl524j+ql12y0vTWiiNdtdnXyrfUgKklad5Gp4oQJqGVkh3HSolO6ebCo1XO9q9XPirLcuRhbQAbwqQFiBOHV8SIC1v4wqQlpeetVKaAGl1WkqAtDp0r/ZTBUir3QLpf74AafrbqC1qKEAqC2lb8JXKrAAFBEjLS2QB0vLSs1ZKEyCtTksJkFaH7tV+qgBptVsg/c8XIE1/G7VFDQVIBUjbgq9UZgUoIEBaXiILkJaXnrVSmgBpdVpKgLQ6dK/2UwVIq90C6X++AGn626gtaihAKkDaFnylMitAAQHS8hJZgLS89KyV0gRIq9NSAqTVoXu1nypAWu0WSP/zBUjT30ZtUUMBUgHStuArlVkBCgiQlpfIAqTlpWetlCZAWp2WEiCtDt2r/VQB0mq3QPqfL0Ca/jZqixoKkAqQtgVf5SxzlllmsT/++CPr2t1332077bRTVhonY8aMsXvuucfuvPPOnPG+++6zSZMmNbmvrRO23357o85x+O2332z22WePkypyXM+AdKaZZmpCw0svvdQOO+ywJum//vprQV554IEHmtyTKyGtgHThhRe2oUOHZlX5jTfesBVWWCErzU+6dOmSs8/Ql+hTv//+u2dt0f93331nq622WpN7//vf/1pzgsRVV11lxbbH1FNPHcYBHvTLL78Yz03GESNG2IQJE5rUpZQE6lyLu+y++OKLtt1222W9KmPTxRdfnJUWn0ycONH++c9/xkkFj3v27GlXXnllJs+PP/7YpA1ayk9tBUhnnXXWTH05oM7rrrtuVlryhI0BR44cmUzOeQ4Nt91228w1xp8kX/7888+Z65U6SNPcVOidBUgLUUfXoEBz84ioVJ8UoN3bcnfccpWtXXYL8F9rdtm98MIL7emnn25SeseOHe20005rkk7C6aefbrfeemvWtSOOOMIWXXRRW2utteyuu+7KuuYnvXv3zhpovv3223D+008/eZbM/2effRaunXrqqXbsscdmRdJg3GIEIer0xBNPZMr1A8AcZRQbHUjvv//+1q1bNy8m87/33nsbQKBQeOaZZwKNCuUp5Vo9A1JAyz/+8Y8MOZwfUFQkw6uvvhra8ZRTTsniE/jGeSV5T65zeCGNn33xd/c6IxBT14EDB3pS5n/8+PHhGn03X78ZMGBAJn++g6222souv/zynJdvueUWO+mkk8K1P//8M/w//vjjNv300xv/9Ll8YezYsaF+n376ab4smfS55porc8z7LrnkkqFsyvc422yz2QcffBBo8cILL2Tyl3JA2bUISHnHmWee2eB/D5dddpkdddRRftrkH55A2XPCCSfY4YcfnhUZwx977LGsewCv7777bkj7/PPPQ9stvfTSgf6LL754UMQttdRSWfcUe9JWgPTkk082xmMPgMUZZpjBT5v80x/gAe6DBkm6nH/++Vn3HHPMMVk05t4lllgiw5PQg7TmQj3PTYXeXYC0EHV0DQoU03/qlVK8ezUjclS1Au9dLtDYluUIkBbgkJYCUgCdM36y+L///e/h2uDBg7Muff311yF9lVVWyaRTxr777huEUUAZ57HmHiGJtH//+9+GMIMQyfn8889vyyyzjM0333zhPBYKEcKXXXbZzDOSBwhizQFSBJ7NNtsseWs4597Ro0eHMhxsUicsLuPGjQvp5CHC2ACht956y9q3b29MqFisttxyy1Bv7kvGhx56KOdzN9lkE7vuuutyXis1sR4B6f/+979AywUXXNAQ7P7v//4vnDuvzDvvvOHc2wyaIZBvvPHGeclH2xQTyJcmQIoihTr5uwPQOJ977rlDv1lggQXCeZ8+fTKvB+/CF/kClk0AXKHw7LPPhj6ZK8/WW28dnkk7TDfddAG0omiKrW5YStdZZ51ct4c0V0Tly9CjRw8755xzQpmU9corr9hUU02VL3smvZg8mczRATSNx57oUioPGYuOO+44O/PMMw36AJjuvffeUFesmVzLFVyR8fLLL1vXrl0z8f7777dHHnnEULbtvvvumVuff/55W3PNNcM5NKIdVl999cx1DlAmpgWQokRFAQXvnHjiiYaylfD9998b3jn5AryLAgxFo9PlwQcfDGkoV3n3OPg5tGK+w5KfDJ4nme7n9T43+Xvm+hcgzUUVpcUUaK7/xHnr7djfHRnHZdBK/ENH5oB880cl6My7tyWQLFfZAqQFuKGlgPQ///lPsHYi8MZCLY9ikgZ8HXrooVlPRvuO+5MLJrfddpsttthiWXk48U7FMa6W1157bVae+DoXVlppJfvyyy8zeYYMGRLKQAAGbMTRheJc1rJMAYk6xOn5jpN1ivMNGzbMAJOAAlwlAeAtCViUCj2nlDLrEZBieXv44YezyIAiIw4AMZQJHnBfhaZY9WI+4Zi0YulNvjQBUqyNhxxyiL9m+E++CxMIgNAD7qvkydVvnBYff/yxZ8/5z/1xX0xmQoHk4YADDgjCPhYo7vO4xRZbhONvvvnGs2b9k+/GG2/MSvMTgA/uxQBMXHxpE3j9/fffz5SPQsqf5ffdfvvtttdee/lp0f+UU0uAFKUDYyqKLYDohhtuGMYmXrgQIEWJcMMNNxgKgS+++CJExjUP0G/PPff0U5tmmmnCMXy48sorB7fpWBHJRVyp0wJImYuuueYau/nmmw1wSrsSCgHSCy64IIBu3HWdJigb8TTw4OVwDq3hQ4Kn+7/nj6/FafFxrnvi68njQvnTODcl6x+fC5DG1NBxLgoU4vdc+esprZrvjryPF021Au9eLtDYluUIkBbgkJYCUhqftS6sO0qCSq6xRinZOf72t78FwLDccsuFGiEskufNN9/MW0MET/LMOOOMwaqCyxjnCJVYWdwKhmtVHLCWsf4H4TiOpBVyS6MM3GMXWWSRuLhmj6nT8ssvH7RE+TIDECjbgwttfr722mvb2Wef7ac5/7EQ9+3bN+e1UhKrAUjffvvtYBGAVsQDDzwwU2XOWaPo13r16hXWs/n5a6+9FvLitjnnnHNm8sWu4QiI5IdXcAF1oAOPxLyCUO6BNVxYRX744YcsPoFn4JWkUsXvS/7z3FIAKc9zqyX3ujWJclnHhoDv7857ofTx85tuuinz+DXWWCOTzjowD+7iTn+J391p4f3I6er34XKI5SruM04LaB0L236P/7tbpp8n/6EnYBPlDOAXwIiSBetbMmAFyhWee+45wwIOLQqF+Hp8zD2Aq1whmS9XnmQa99QSIM1Vf0/LB0hxRcU7hXdFUcPSCsAV5+6SC5g7+uijQ1GffPJJ6Hso35ymw4cPD8fOf/RPrIPrr7++P76k/7Zy2aUSrOl//fXXQ33yAVIUH8xneANh0WfsXm+99cLYg1suAaDKe3pg3MLLAJrgSUDg2Oc2+qn3S78n+d8Ic1PyneNzAdKYGjrORQEfc3Jdq/e0Yt6d+RZlYLGBebuYgHwrQDqqWVAsQFqAm1oCSBFiYzc7OkHsBsk51g1AowvpaIYRPnCpw9XWQyx4AwIvueQSvxT+cdm96KKLstKSnY7ycAdmoyImdKxgWGIBvmzqkoykY9n917/+lVWunyCU475VSqBOgCUX1HKBbMrFYuBWJgSQ2ApEGc0Jtx06dLCzzjqrlKrlzFsNQMr7AW48cO78wfEuu+wSLuEWyrnzAkoPBD8CAOz666/3IkI+X0eMEgJLhwcG3tgiR/o888wT2okBGWERcIMgCQ8l+QR+hFcAMLi6FgrxuxTK59fIH29wBT927tw5XEaQX2ihhTxreMedd945nLv1nxN4dIcddsjkg+9d0MVlN14LRyaeGYfddtst493AOACtEKxXXHHFJrSANrjBY3FmfW6uTVwANDEojp/FMcIk/cLb2d8Fy5nXbY899gi3sa4uV6CdWO8JPWI+iPMCViiPugJg3S0Sl0rc4QFFAHbcT+PAeIAirZTAc5rrs6WUV8m8WJHjcSofIN1xxx1Dn0m6rrKk4Z133glV7tSpU3B1jesPf2KNJQBSXRHpeWj/eC7w9GL+2wqQwn9Y7j3kA6QoZ5jznG89P667Dki5FwViHJinWD/rIXk/6bnSPH8jzE3+rrn+BUhzUUVpMQUK9Z84XzHHyKvIqASUsXjWIVcga9L/SfP0fOWVatzIV04x6YXenU3mmLvJ4zEe65Llo2jzfPxvtNFGySxZ5wKkzYNRLK8CpFlsk33SEkAK6MK61a9fP/voo4/ChiFsdOEB5mX9KIDC3VMRIBEOWW+TSwjBuoJQ4x3Gy8K1DE30qquuGgRl3HMpH4sSgjvuv5w7sHPND2t0kq6+Xib/DCaeN07nGCtOoXuT+TmnDjAbAese57g5ErAOsGYUiyhCoLssAxjiDZ64p7nAmq+DDjqouWzNXq8GIKVS0BywhFWS933ppZdCXTlGgPMQ0wKB38+PP/74cAxvIdzFAesyIBOAA6hCAOY+QGzMKygOCN7+DLRJV9+4XNZgYEktFHiOg+tC+eJrTGpMEgjtKCdc8cKGJfHmV5QND3lwWrCJDMdsJJBc2wkw5RoWGd7dLTPwXnzuoMxpwdpCF6j9efE/E7LnjdM5Zv1IPA4kr7srLvUiwsuudKBfE9zFmjomAx4Z3EegHn6czIc1D/CM4MD44coMXEr322+/MJ4weTq9/X7q52sHPa25f+pQi4AUxQx1x0XV1+xisc63BgilD/mx1rOBz3nnnRfO3UJK3wMseGAdP3zsAUCK624c0rSGlHqxDIV3pO8xPmLFp98ngXj8DuQHnNIH6TuMNW4pxo03Vixxn/Oil8H9yZArzfM0wtzk75rrX4A0F1WUFlOgUP+J8xVzzDpwxjwC5aL05Z8xIvbU8p24sRCiGGeMJDKfoOhE0cv44OnIMYDdcod8746inmtEFLmsX2eO5Nzl0bguyKlc48sEyBksZ+Ec+TxfECAVIM3HG0WntwSQwphYOxEaEfwdFPpDud6/f/9wyjHB/1nf5YCUtTruGuX38g+ocOsRFg0ER0ABAinA08vClQDtFJN00mJDHgDuFVdcYVhZ44jgVUiIbOmkzydc4oCFGNdMgBbAk0/UxOttoYVbuAAQuQaGuDyOAXIHH3xwMrnk82oAUne1hA5s/AHvuUWK9kpa2f2l3JLm59zrVjXu8zWhuHcz2HKOIImyhGcQ4BUETKyhyUAZWCfZGTbmE47hlWJcViijFECKJYZ7UFrw7M033zwz8SHEOl2oK/lyAVKu4b6NCyx5iO+99154PdJxtQS4Ifg7gMNFlvcBlOOOnASyeD4AKnnvJC2woLl1P0lDzgEzTLTNBdaoElBCIewz2bmg7u7/uQApLs7s0usBJRfvGAcmfNxHAUO+iy90iYOD3jiNY/oiQkMpgbILjSWllFWJvIyj1Bmg7sIFYJJdiBlzY0AKoPfAOMZ9bGJEPyPecccdGXdrlkHESjzyErFGoyCgP3LO3gLMHSiBUEIgqLUklNtCipKVuQzrPX0IhSr1ZV6JPwXjPOV1Jg88iRs9NAHgA0QJlBODcOYV8iOg8k/gf9NNN7UNNtggRMYBvxYyJH4aYW5KvHLWqQBpFjl0koMChfpPjux5k5A7UJoeeeSRQe5k7CIwnhH4wgTAjqVGBBTMyHREHwsYIzGoPProo5mxE1kQw0zsnRIKKMNPrnf3vSFQeicDYx73uKcL1/FsIc1lcL+H8Z30fEpbAVIBUueVFv+XCkgRBBBekgFGxR2VwLFrzhE4maSZaAm4PzgghYFzuUJyP7uf+gYldF46Ntoq1/SgtSGNyC6PAJFBgwaFZ/CDwAWQBfTG0TuVW4YyN0QHuEUh2JYSqHMSkCbvZxOZeAddBFl3J8R1Ip8LYlwOVtVC3wqM8xY6rjQgRaMIjeLg7UwaxwjLHuK8MSDFooYSwgOCJACK9mQARWCGJzgGVKHcYDJwXuEYABhvyEK+XLxCPuqBdae5QL5iAWls6fNycYn1dgWQskupB8pOujpzDV6KnwmfM8FALyY9rvPeTJD0IcrBEuy04BhhmrW9HshLPeI+wzH9nrEiBoR+j/+TJ/7Goqcn/1mDyESPsgirFMHHFHdvSgJSlEu5Pr/BO8UguXv37qE86up8grYXJQbgnx28uQcQzHpIQLEHwEPs8u3phf4pq5YAKeDTxxnqHgf6QQxIaU/cuglsZpSkP5/fYTxncyTKgq8BpoC2eJ029zM2Y11g0x+AGp9LYQxPtnNcn0LH1K05F7JC98fXeA8HxpTpXhvkQXkTW0iDy1VEtyQN4Tl4iL7HfSh1EFoRPmOA78/nfsAvNCECZpNlel7+G2Fuit83eSxAmqSIzpMUKNR/knkLneNRgxUUGZXxhvEPGQ6FEmMGwI2N3viuvQfmFTZK9ICiyT+VxnIrD5RbKCTHz0J542u53t0BZiwr+D2MOfvss08WOKaMXOVwD+nMp7mCAKkAaS6+KCmtVEAKQyLcJQMuSwj/BPL4xjsu1PPZEwKaIyxlHnzjGaw1WDu41zd4QdBBQGIbfiKuEPyTB4HW0/lHEHIQ7GXn+0dTVMgFE5dbhKdSAnVqDpDivhwDUsp3ixC0K2YQwu031zckS6kreSsNSN1CAtihXbFgQTP/zivH7vJM/Tj3EH9LE5cYrmGRAJxyjPUGkIV1znkChQI8Ab0QYjydfzSeMYjx5+T6j+uR67qnkS/XgO/Xk//kx/UagOxrNeBvQrJPkhdB3oPXiXs5xrLLxMjxU089FayruN36O7P7MJY/rgNIOPdr5MNtuJgA2I3Ba/Ie6uh1S17jHOUBoI913oAi+hlrRbH6O9hxZVUMVBhv8pXLhMq12N2bZ7ExjQNSrtM3UXAhLLCeHc8M1qJiOfaQqxy/lu+fe2oJkMbvQd3jgIKAT8F4wFXNXbDxTPE28usswcDti/E6VkZyneUcjNG4sALMsNLDP3EA5HJ/S0I5AWn8fHg0BqRslhevA0UxFAPUJA0pC57GRR5BkIDnC+Cbspj/8BBgXALs5ro/V5rXsRHmJn/XXP8CpLmoorSYAoX6T5yvmGPWybsSFmUpCkyUx3gwYQhBkc284sE9UJgLGUvw6oFnke9QNrky2vd68Pvi/1yfi4qvFzrO9e7uZlzoPr+GRwhluBeTp/s/VmKu+7InT+dfgFSANOaHFh0nhd9ChWD6j7f2j/MCJvwaYMCFNEBW7GKKQIvrXxyYZBF8AJ9x547zxMe5Ol18PT5GCPD1paRjQSnm/mLyxM8hf3OAFCsoVikGLdw9cN9Fe+Y7oiJcQ4v4Y/XxM3wwi9NaelxpQEo9+U4rYBD+ACwAhBDUCFjKYkAeu2IizLpgTF6ABGsbAHCFFAu47janiQwPn/JD/eLdmn3DrThPvmPavxRASl+CDqw3Y/JisvJ+gTUw/oYvADJ+z7g/oaml31BOc4qKUnia58VWWVx6irmfPFhoCwX/vi9WI3eRTYIVByqugIh5I1k2ygie6+tRuZ4EpNSfzdjoWx7hI3eF5l3jjdqSz8h3znN9rMuXJ63pyfbE1Rn3UQ+4piEcEdzlG7AG/fBIYCzHe4CIezwADKBFAKRiKWS9McAToY6+SDsAZBHosMbjDluscigUPOWnUoCU+sd0wuIZ7wzMNYA8vAxN4LGYJk8++WTmftz0EU6xFjMHeJ/iXmhChKaUmW8O4PXj+sQ0yXdM/lqam/K9B+kCpIWoo2tQoNT+UYhqLLtCVmIc9HkLZSkeWHj9oUBF7vV5jLKY2+nLeDlhiGG9Pson5FCWJaGsay64AYSL2pIAACAASURBVKe5fMnrud6dNP/kFt5OjLmkoTRj7IkDYxjXkDlyBd/DI7YCez4BUgFS54UW/5cCSFv8kDLeiGCaq9PlewSWWvJ7xP0idtPLdx8Wp1zrDfPlp3yAU67gQg150CwxIDG4sXslkbVwgAzWVuJSCGjLFRj8khbWXPmKSasGIC2mXuXMA9iA5sUGlATOJ/yz1hBhuphA/lIAaTFlljtPKbTwtdpOD9YC5lrvnawjkzBgsFBgcgTgoHzCQgsI8rqhVWYCZ1Mygu/IW6g8rqFowhvDA25Fbv1komR9qPc3/0fb6xZ6+iPtX2qg3vUCSH1s9TaPLYPQBRDIJ0qwcCcjFgA2EUOpkwxYEaA/G+E57fnfddddw6Z3LflUQFsBUjbPQ5iMA+68ThP+Y8UPSkT4FetxkibQChDubuRxmQBy+A/eZNx3unDMXODr1eJ7/Lje5yZ/z1z/AqS5qKK0mAL00XIENh2iX7LkzD+7xjxI+ShsMS5wjssuyjUC6Sw/4fvKgDbGBhRueJBwH0uFWFPqSyHKUc+4jFzvThqb+VEnjtlg09ezc+5LOCjHva58+VBcNse+GWWuDZkESAVIk/xS8nmtAVJesJg1fSUTIscNuFoVY7HlVgYdFrW3VcAVM7ZetPY5jQBIWbNVjPKhtbTkfgb2tAPSSvUbNMZuWctFW0AgbQPYx80eLwFfX4ewXw46ltLuWJnzfWYmV/3jNNq9VgEpwKZWQ1sBUiyasUdNWulTz3NTIZoLkBaijq5BAcbkcgSUUywXwapIYD0owdeEcpx8Fuf+bW88TLAosnaUjYAYs/yzaCwn8t24Q6Fl+knWB5mUNGJyyYXXn2vuGYbBg/MYpMZVY58BrrtnW3xNgFSANOaHFh3XIiBt0YvqpiwKNAIgzXrhNj5hkC4HkGrjaqr4HBRojSKJdq9VQJqDFDWT1FaAtGYI0KAVFSBt0IYv4bUZk8sR+Bwb60T9sy94zLFhm2+85+As3kyT57IcKXaRZx19/HUFv9aaeSff+yXfPQak8UaOfj/LprjHvfLcQsqyoVxBFtLiQCdLGPNFfYc0F2dNSRMgLUCcOr4kQFrexmVQFyAtL01roTTaXYC08i0lQFp5mqfhiQKkaWiFdNchCcpaU1v2J3BAyrp4XHgpH08elqYA5AB6WEL5/As78M4///yZyAZI5Md1nyVAfo3zbbbZJmfVcPtlrXpLQq53Jy1XupfPNazBBF9Dyv4WuYKvIU2uPSWvLKT5QWgMTgVIc3HWlDQAafyJiQJZdamOKMA3CH0n5Dp6raq9CoM6rp8KjUUB2l2AtPJtDiDl+7sKjUUBwAGgQEEUyEeBQuAr3z350gGkbJYHAKNc3x2X72Z//fXXYUMjNigDXLrba7IsxqnYzTd5PXmOO2xL3yHXfaTlSvfncs0Bqe+ym6+P8ek08muX3eLAZwxE/ViA1Dkvxz+aGj7DwWcT2GlSsf5pwGYvbPoiQJqjQ7QwiUGaHZJZF6k+VP99iDb2TYB8p94Wso5uawEFAKSso2SSV39rjP7GLvNYaNj4SUEUyEeBQuAr3z350vm83GmnnRYu+6fFUObzXW8CGxrxvEI7tLMrb+yym+9Z5UjP9e7+qZZcu9/7Z9PcZZc6UIbvlp6sE9dyPYN8spAWB1IFSJNcFZ2z9bMzmf4nd7ZGoQPfY1QoDwVwx2kUvtF7Zo8TuXaWLQ9XqZR8FPBP/YgXs3mxEehx+OGH52MLpYsCeQFTS0jDMpzk7vL9+/cvqSjAa6W8aOj/ycBuv6T7N77j62zmx7V4fal/ag2wHQc+3UVe/75yfI1jAVIB0iRP6FwUEAVEAVFAFBAFRAFRQBRoOArkAmWNQoR8785nZriGRyRAs2vXrrbAAguEtIMOOqgJechLZCfg3r17G0ogT2uSeUqCAKkAaT7eULooIAqIAqKAKCAKiAKigCjQMBQAODVqKPTul19+eQZUOrj0T9ok6TVhwoTwXWnPx//KK6+czJZ1LkAqQJrFEDoRBUQBUUAUEAVEAVFAFBAFGpEChUBZvdOjmHf/6aef8m7AlIs+Q4cOzZXcJE2AVIC0CVMoQRQQBUQBUUAUEAVEAVFAFGg0ChQDyuqVJtV89xNOOMFYf1qtwLv7TrZp/temRtXiED1XFBAFRAFRQBQQBUQBUUAUqAAFqgnKKvB6BR/Bu1czCpA2byUVIC3IwrooCogCooAoIAqIAqKAKCAK1DYFGhmQYhkcPXp01eL48eOrxjy0e5oto143AdKqsYgeLAqIAqKAKCAKiAKigCggCrQ9BRoZkLY9ddP7BAHSUc2bZx0Vl/qvTpVexlfNRAFRQBQQBUQBUUAUEAXSRQHJzulqj0rVRoBUgLRSvKbniAKigCggCogCooAoIAqIAnkpIECalzR1fUGAVIC0rhlcLycKiAKigCggCogCooAoUBsUECCtjXYqdy0FSAVIy81TKk8UEAVEAVFAFBAFRAFRQBQomQICpCWTrC5uECAVIK0LRtZLiAKigCggCogCooAoIArUNgUESGu7/VpaewFSAdKW8o7uEwVEAVFAFBAFRAFRQBQQBcpGAQHSspGypgoSIBUgrSmGVWVFAVFAFBAFRAFRQBQQBeqTAgKk9dmuzb2VAGkbA9LOnTvb5ZdfbpdddpmiaCAeEA+IB8QD4gHxgHhAPCAeyMEDt99+uwFMXn/9devdu7f16tVLsc5pQDu/8sorNvfcc1upn9esRv521Xhoa585//zzW/v27W2TTTaxjTfeWFE0EA+IB8QD4gHxgHhAPCAeEA/k4AHk5W233dauvvrqYMzBoKNY/zSgvQ877DAB0tYCz3z377vvvs1ZqHVdFBAFRAFRQBQQBUQBUUAUEAVEgYalwG677SZAmg9QtjYd4k6aNMl+//13RdFAPCAeEA+IB8QD4gHxgHhAPCAeEA9EPABWEiBtwzWkAqQC4lJGiAfEA+IB8YB4QDwgHhAPiAfEA7l5QIC0DcEo1lUB0tyMpw4puogHxAPiAfGAeEA8IB4QD4gHxAMCpAKkchmIXAY0KGpQFA+IB8QD4gHxgHhAPCAeEA9UjgcESAVIBUgFSMUD4gHxgHhAPCAeEA+IB8QD4oGq8IAAqQBpVRhPWqfKaZ1Ea9FaPCAeEA+IB8QD4gHxgHggrTwgQCpAKkAqbZh4QDwgHhAPiAfEA+IB8YB4QDxQFR4QIBUgrQrjpVVDo3pJeygeEA+IB8QD4gHxgHhAPCAeqBwPCJAKkAqQShsmHhAPiAfEA+IB8YB4QDwgHhAPVIUHBEgFSKvCeNI6VU7rJFqL1uIB8YB4QDwgHhAPiAfEA2nlAQFSAVIBUmnDxAPiAfGAeEA8IB4QD4gHxAPigarwgACpAGlVGC+tGhrVS9pD8YB4QDwgHhAPiAfEA+IB8UDleECAVIBUgFTaMPGAeEA8IB4QD4gHxAPiAfGAeKAqPCBAKkBaFcaT1qlyWifRWrQWD4gHxAPiAfGAeEA8IB5IKw8IkAqQCpBKGyYeEA+IB8QD4gHxgHhAPCAeEA9UhQcESAVIq8J4adXQqF7SHooHxAPiAfGAeEA8IB4QD4gHKscDAqQCpAKk0oaJB8QD4gHxgHhAPCAeEA+IB8QDVeEBAdIUA9I//vjD/vzzT0XRQDwgHhAPiAfEA+IB8YB4oKZ5wBTqigLltCALkKYUkAJGv/vuO+vRo4c9/fTTiqJBTh7o1auXPfPMMzmviW/Ub8QDjckDzz77rPXs2VPjQornDbVR+vum2qi8bdS7d2+799577YILLrCOHTsq1jANLrrootB+oOtygVIB0pQC0nHjxtmHH35oO++8s51//vl29tlnK4oGWTwAX+y77752yimn2DnnnJN1Tfyi/iIeaEweOPfcc+3444+3gw8+2M477zyNCymcN2ij4447zg499FC1UQrbh7GTNjrmmGPs8MMPVxuVoY2g57HHHms77LCDbb755oo1TIP27dvbtttua+3atQvWXgHSNgaSo8pU/m677Wag/lIbDED68ccfh8FwyJAhNmDAAEXRIIsH4IujjjrK+vTpYwMHDsy6Jn5RfxEPNCYPfPrpp9alS5cgUA8ePFjjQgrnDdro7rvvDhaGzz77TG2U0ja69dZb7bLLLjO1UevH0kGDBlnnzp2ta9eudeWy2sgvI0BaJqBYLsDZXDmtBaSHHXZYAKbvvPOOKYoGMQ+gsDjiiCOCy+57770n/lAfEQ+IB6x///4B7Jx11lnByyYeM3ScjjmENrrtttuC9xOKI7VLOtolbocPPvjAbrzxRrvkkkuCwiC+puPS2wt6Xn311XbPPfc0Moarq3cXIBUg1eQloTPwgABp6ZOiBAnRrN55QIA0/TwuQJr+NhIgLW8bCZDWFRYNLyNAKkAqQCpAKkAqHtA4IB7IyQMCpOUVpNtCgSFAmv42EiAtbxsJkAqQNrd0UZsatTHAlctueQe1thAOarVMWUjFW7XKu6p32/GuAGnb0bZcfCtAmv42EiAtbxsJkAqQCpC2MeDUGtLyDlrlmvAboRwBUvFeI/C53rE0PhcgLY1e1eAvAdL0t5EAaXnbSIBUgFSAVIA0p1tXNSZhPbO8A7wAaXnpKf4UPeuBBwRI08/HAqTpbyMB0vK2kQCpAKkAqQCpAGmdrjUTIC3vhFkPYETvIJ4QIE0/DwiQpr+NBEjL20YCpAKkAqQCpAKkAqTigTrlAQHQ8gpN9UBPAdL084QAafrbSIC0vG0kQCpAKkAqQCowUqdgRBbS8k6Y9QBG9A7iCQHS9POAAGn620iAtLxtJEAqQCpAKkAqQCpAKh6oUx4QAC2v0FQP9BQgTT9PCJCmv40ESMvbRgKkAqQCpAKkAiN1CkZkIS3vhFkPYETvIJ4QIE0/DwiQpr+NBEjL20YCpAKkAqQCpKkGpO+++25W/d577z1j4HLBul+/fjZgwIDMuadzX3PR89brvwBpeSfMtPEJ/I3gWkykn3j9ue/DDz/MnHs6aZTl5/qvT/6hje+++24766yzcvJB2todfmXcj+sFP7///vtZaX6dvIX6RNwX/J60/VP/2267zc4///yc81va6hvPydQNGucaY7zetF1yrGEeT7az50/jf7UBKbSK+0A+eSdJO9rF+wA0j8tI5q3kuQCpAKkAqQBpzkm9kgNRvmcxwL766quZCZmB86GHHrIbbrghTHYMyK+88oqdcsopmTyUxX1vvfWWvfnmmzlj3759wzuTL9+z6yFdgLQ+AYXz+EsvvWS33357EFwRXuNjzuPYq1evIIR43zj55JOzBEaElNNPP91uvvnmJoJiPfQFvcNffaFWACn1hC8Z47t16xYUkYxpzANPP/203XHHHU2EaeaExx57zG666abAy/BzMj7zzDMZgTytfFFLgBRQc+2114Z5F3oCdhibzj77bBs4cGCTOdbnce4ZNGhQaOPBgwfbOeecY927d7dPPvkkpNH2aZ6jqwlI4fNHHnnE7rzzztAHoBNyDfKSx9dee62JnPPRRx/ZmWeeaU8++WRomwsuuMC6dOnSpB9Vo1+kEZBeeeWV9sADD2SQ4h577JE5LuVgk002yZt91113zbp2+eWX27Bhw7LS8p0ccMAB+S6lIr1du3ahHs0BzWKvT5o0yXbbbTcbVWXcVszz2xWTKW15IC5ELrZBPN+4ceOMyfmwww4L/9UYQNr6mUxMa6+9tl199dVh8HQN6vLLL28MrHTa9u3b23XXXWeffvppGFSZDBFg5pprLmMQ2GCDDbLihhtuaKuuuqoxCFB+W79DNcsXIP1LCK9mO7TFs5m8EbrXWGMNO/744+2YY44JkWPicccdFyLHW2yxRQCbrhl/4403bIEFFrDPPvssw/8Ijvvvv7916tQpS7nTFnVXmdXly1oApPDq0Ucfbeedd14AmLvsskuwni211FIBxJx22mlGZAxHOCfCV8wD8DuC5I033hiUlygwiQDTk046KfQT5o8082GtAFIHjIwn0B6afvHFF7b99tvbYostZr17926i4GKsOeigg+yKK64I4xKKsHPPPdc233xzO+SQQ4LlnrQTTzzRAFX+jLS1VzUBKbS+6qqrAj9//vnngUYLLbSQnXDCCXbUUUeFvnPwwQfbZpttlmkX6IcCYJ555gnglXZadNFF7e233w7ptItHZIdK0zstgHTIkCGBF0FSRx55pF166aUBVN1yyy027bTTBq8FjCDwKHMw4csvvzTAVzLOOuus4frf//738J/8gbfnnHPOrOTnnnsuzOtZiVNOaPdTTz3VzjjjjCDD8jyUCtTHI+2WliBAWgPIOQbFAqT5hTPAJdrU2WabzV588cXQSddcc80gcCy33HK29NJLh4ED0LnSSivZ4YcfHgSUl19+OYDRsWPH2vfff58Vf/7556C9FSDNT/dKT0R6Xult4YAUoR3FzE8//WRbbbVVEPLoKwiCL7zwQlDcXHPNNVmAFM+BxRdf3Jh4EeTpZwgqCDBoZxFGSEurICh+KZ1fYprVAiCF/+BrQMnzzz8fFK8AzD59+gThb6ONNgpuxz169AjWUv65B4GNsf2II47IUsygoPnPf/5je+21l+EdIEDaOh5yfkJxcPHFFwflF+MGSq5LLrnEtttuuwBEGWdIZx73e8iz7LLLBos3oJR2xdqN0gEh/9Zbbw1pKMdQnqV1HKoWIOW5nTt3DqAeXsfSjLJ+nXXWCcp4PAB69uxpjz76qG255ZYZQMp9eM1ss802oW9h+ZtvvvlCX8HSRt8gYgU88MADK95HqB/Gh3vuuafqeArFCDIlihLoSwBc4Zlx/fXXB28kwOr8888frqEYW3fddfPWe7rppst5DaMJbUXZU089dYgzzDCDzT777JlzrqFkINA3VlttNXv88ceta9euwdJNOxLxDKHfAVbTEgRIBUgzA79PALX6z0SExg6BhAnNNbAIE3vvvXdwV0GgRsPHYEZehJLXX3/dFl54YVtxxRUNa2ocV1hhhQBkO3ToIAtpnW7mVKv8Xkq94Xe0syhhULrst99+QTmD5QGB4tBDD7WZZ545CCBM8gh6biHFtQtBkX+0sUQsEfQp3OZQ6DigTaswWAqtlDcbfKQdkMJzjOmM31jNENpWWWWVYO1BGOM6wiI8v88++wShkH4A0Bk+fHhw6aIfIDACTD0i1AF6sKxiHXKrahr5o1YspFjnVl999SCoo0AAKKEoZq4GiLJWeckllwzzMvM27wXgoO1ogwcffDAI23hyINDvvvvuduyxxwYLH26/aW4jxmDANAAcQFgpPuK5gCRAI/yMpRSXZ7zFAPiAqI4dOwbvApSMtBF143/jjTcOdf76668DsAHg0E9Q0qDUwTUeIAu4qTTtea+0AFIAHZ6L0BLvCsAiihe8LDyQxphDgN9RkjHWIFvutNNOtvXWW9u9995rU001VZbllPHHgwM2P2/uH/dqLNwAZvpQHBnz6GvUMy3B3889O1v7L5fdNga4spBmC0s+qCN0AEQZDJjAEKbpjEsssUQYhBGeoR0dHy0ggguDAoAUl11ccxFOmBTjiCUI7RITn1x2c9Pe20D/6aWPA1KsPkxKuCLiJocFCYC677772n//+9+gCcflKAakrK9eZJFFbMcddwzacjTmRO9PHOP2iFUp7ZYk8WjpPJp2QEqbMv4j7KEcQYnIOM866BEjRgQQuueee4ZjBGuEMNIR0hGuyYvQh6UgjqydA/hwL0tdHn744YoL3cXyay0AUpTErEXELRGvDLw1aCv3vOBdAUoAnLnnnju4Pn711Vdhrv7f//4XACluhoxdTzzxRJiXAUJPPfVUsPTcf//9WZbVYmlXqXzVAqS8H7IOS5Xg72+++SbjrsmYj6IRizPuu3gYoLhEBnr22WdtlllmCSAJ4LfeeuvZd999F1xAUSTQNoBWIvJWpejoz0kTIMXjCGAJoLrrrrsywBPFGIAPxRhg1QPtgYUapQz30AbQm/mTMOOMM4Z/ZFmUvgQvn2P4n/tyxdi6Sl2wiuMiHMu1HA8dOjR4gbDMIS2B9yG0Foj6/QKkAqQVH5gYoNDOARxZG8faCKyfuCUgNCOY0IGJaPXQQiFEOyDFQooFCKDKGoo4okVkIMZFRYC0dGHWJw/9V5d2DkgRwBEevv322+AlANCcd955g+CNoMLEddlll2UBUlx2UexwD30mXxQYrW4bt1UfqwVAyvjPWikADsARkImlFNCJazrWCARnXDoREgE+WPnZ0MU3vvO1o2z84sdYtNg4B6Ul/aCtaNzacmsBkEJz2gJrNV4WgCHaBKu1W0NxEQXsoAQDmGKBY4zCIoeFlJ2ecRNFiOaYyJo42pd2j119W0vTct9fTUCK7AJPQ3OUAptuumkAJPQZ6IbCHf5GUQB9UdxgHUVRDyhCIUObUQ40B0yh0Nx2222DvJRrw7By0y9ZXloAKYAPIIW1GaUs4N0DCjKu4bYbB+ZQQCoBl9tk8DWkuKEzhrF0jHLmmGOOZNaC54xt3FcosuwmLYF6EhxQtvZfgFSAtGqTNkIJWjsmPDRAdEbcehiEceshMmDgvrDDDjtkACnCBvnQUmExiqPvTIpbowBpfQrcyYmuHs+ZvHEfQrDAGsTmXwjtCHz0GzTnbHiE8gUBD+uQu+wixLOG68cffwyaXyxRHhEy65Feeqe/+nraASnWUQRpxnd4FEsQVh4UKPA8Vp211loreMNwzmZcKCy5D/6lL+CKyDVfc4XrKMcAH/IjQKaZJ9IOSAGKABvmUSzOWDWhKfM0yi6OcWPFnRVLHe3DGIPimPakbQGkjEtYVgFAtBeRtiIf870A6V/91vkV3kDJgksomxLhAcNGjXjFAIpY58gx8wEgE1dOlPh4vWCdAxDRT5gnUBxgpSYd2Yh8WPZQ6tOf/JmV+E8LIEXm9MD8CviERwFXrNEEFCUD/E4bEGKwCN8THKSy8/R9990XrKsoDGaaaaZwnXW/3DfNNNNkRdx9cdH1gIKnkAWUPkOfSksQIG1jABlvSFSOY7nsNh1w48EPF1vWEjkgRZPHBOe7ijKxxYCUCQyBm3UsWEFx7Y0j2lsGFYQSyo6fVW/H0Iw1DQx2TD719n6N/D5M3gjpTJR4DuCug7WU9Vxox5mUmCQRXtCYussufIDgseCCCwbrE8CUyCZh/Me7ZTYyfev53dMOSFl2wYZcrINmDRweMq54ZPdcrHAoJVk7B68DZngn2owxHY8Y3OGI3E+foCwEc9/wCEExzW3M+yB8pvU7pIAVFL+MJwAjAClzL3POMssskwGkgCVccgE+DnAQyFnPCyBFQMcqxzjma32Z01E4sGmLAGlT+QgaO2/DH3jC4N78yy+/BNkHwAJgxY0dF1Is09AfhST9CEDK/AH/k477NGnMIcwZRL9eyT6SFkAagzl49LfffgtJWJfzBdpk/fXXD5fd6olsj1KG4GnIrShyPLjl1M+b+8f6HQNe7o/POWZcTEsQIBUgTfVEW+oAFwNSBG8EEDZcwU2FyETIBIdGFQ0smj20fFiGEFyY0OLIoMxEh/YQwQdXolLrVCv5BUibTua10nbN1dMBKRpcJk00owiHCCC4LWKFoP0ROHATckCKoOv9BUsTmnIifYXIZmAIJM09X9drl7fSDkjhLawHLMUA3DCe42aLIhJgiWcL4zxKFNx1GfedHzlm7Ge/AQQ/eJ1d2BnzOQYg1cJyjbQDUugNwITeLI1hHqbOpONmTTrCeAxIuca4xTo4B6S+xhernM/pzO8oDtjwSIA09zjDWO1rSFFMAoZwc2ZfAKykKN1RzJCGxwDuuYzrgP0kIKUNyM/6agATG4ThZu3t6X2rrf/TAkjxKEqCPD9nIyM/9n/mX4wg0J7AJwcJ0J85Fm8PPPgIKMVQEHhwQAqfe3nJf8Y4Dyy/+eOPP8K8ThqWcOb5OOBGn5bAuxBa66rr98tlt40BriykuQdcH/wQsFdeeeUgNDNBIaDsvPPOoYPTyRkEmBABpLhacI21RvzjrsJAy/oKIi4r5CcCSBmoEVLSPOk5HVryL0BamLdaQtO03OOA1HcXxeKP8MGO0vA6FgesSQjvCIUOSBFKuAchBOWMvw/CJQoaAdL65Rlv61oApNQREIkbHJ8tgj8RzEhH8YI1h6UcWIrYvC5+twsvvDCzZhQXUAAqFiPWj2I9YO1d2sd83jPNFlKnN+OJA1KUX7jbMr8y7uQCpLxXDEjZGIb2YT5mPicydwNqH3nkkVS3E2NwNXbZhfbQlvGdtbgc0z+gOYAH6zJzAV4GXAMscQ/yQC5AypIP5gvaBbd2AK522c2GdAArxg6UW7kCYxTWatoBiz+BdiAgh6JQI7CeF+WNBwekGEZY45sMADG+50sA2LI3CsGB3oQJE8Lx6NGjw7iIdRyLdwxiww1V+vF6OqBs7b8AqQBpZrL3SahS/wywLChnkxY+SkynRStIp0eDTmSdKAMvC9DRymLtYZdRJj52IGUAAagCbBlQEHDotJTxww8/VFwLWCna+QQkl936BBgOSNFow99EXLfQyCKEIMzjqksaGnEAqbsp8iFu+g0A1PmR/iBAWp+84m3s/4yNAAc2M4mVEn49Df/wImM5YzSWBnaaxDoKbwNGUbpwzjpphGmsFHjT0B9w58Wayj/uogiGrJPzNNwWmQPS7AlQi4AUxQDKYOZqxifaKmkhjQEp8zTtwDhFfuc7gBMKNiymPmb5tTT9VxOQwu+AYXbRhe7QHAUN4z4KR75QAMABnNDHUcDkA6TkQX6iP9A+RJQ+laY19EzTZ1/AcOy2C6gCoBMYQziHpnHgKw/QFyMHGx8R+MYrwUEZxwBK5FYPDkj5zFUuQDpy5MiwJpv8WGehESEu08vC/Z3lawSWrCETVDt4PVsLRP1+AVIB0ooPTAyEDKBYL+lY7BSKBhWtD2uCmKzQBBL5FhcRzROuFrhqsWaIwRlX1aB7KAAAIABJREFURQYJhG3K5Bh3RgQV1sqhhWXwrfTAW6nn8b4CpPUJMpiY0GbDx8nv7XKO4oV+wDG7WrJpBUoZBHiEc5Q9MR/SR4h8niHNgnpcZx23jLcZ89IMSAGjbESHOxrWAYRA+BVrENZPxnauAUyxyuFBg0DI5xiYE3Bj98j4t9RSSwWg6mn886kkLJBptZTSRrViIUVhgEsoFiLaBsUwfRNAetFFFwVXUNqJNN7r9ttvD8pi5m3aF9frNddcM4xNjE8oEBDc2RwpCVbT1OerBUiZ1/H84nNHWDORjegP1Aegirtzz549w3iPDMQabN9Rl/6AZZW80JJ2QXFPO9Fe1aQvdUoDIHWAj7cQgAr36DgAKP3bonjsscaUfNCef8Yu/llzyhyMkgDPJdJ8cyMvjzQC785xrui79wJaPTCvk5d6eF04x503TYE6ERxQtvZfgFSAtGqDFAIyW/mjrUNIRlDhUzC4P+C+y5pSIgu90WCRlx3m+BQM2vVcAyxlMKCjTWcjAAHSlgm11Zy49Ox3Ql+Az1HAIJgjBOaKTJJsakU/oT9wnKtfQFP6G8DVhRXRuT77RtoBKXyHBZ/dLbGQEX3cJr1jx45BSCSfp/MJMN6LuSKOAE6E7jjNj+H3tPI471ILgBTasvYQd0IUZAjj0Be68s+u3/GyGNqL9aK4hzIPcz8Ri1Mcuca5l5XGdmKcrIbLrtMVOcjpRx+Bn+Eb3NTZcIpzxnqXnegLKKLoK05X0phDfHf2atI5LYDUdymGboUC3hvwMQEQS8CiGgeMKYUC7rwEnoXHSjIAwFCg1WoQIG1jAFmOnXXjMrSGtLDQFwsNHDOQEhlI40ga15nwfLBtbnDl/uby1PJ1JnVZSAvzVy23L7xeDA97f+FduafQO+cDq4Xu0bXa4rFaAKTwFPVM8pYL2cn0Ysf85H1pPa8VQAr9AEWMK9Q5Ob7EY4/Tuthxy/On9b9agBR6QNd8PE87xHJTTD/mi+R9udLieyp1nBZAWqvgL431FiAVIG0yiVdqQNFz0iWYCpCmqz3UP9QeaeABBNY0u+ymgUbVrkMtAdJq06paz68mIK3WO7flcwVI0wgpW1cnAVIBUgHSdyT4MnEIkIoP2lKAUNm1yV8CpOlvNwHS9LeRAGl520iAtHXgL413C5A2ECBlowd2EcRvHR92RdEg5gH4gm3e2YWYNbO+Hkv/k9eliQ6iQyPyAOvr+aQGO2uyDioeM3Scjjnk22+/DXsjsFET68AbkU/T/s5sdsO3ctlYiB2D1Xda13fYIR7PDdZwKtQHBQRIGwSQ/vnnn2HhOg2uKBrk4wF24Nt7771tl112URQNxAPiAdtzzz3DjuX5xgylp2M+mWuuucJnHNg1VeN3+uYvdvZfdtllJX9JBhUPFOABoHVrd9f1+7XLbhsD3JZuagQg5VtT008/fVClxBsl6XiUiQajAl/wXT5cYfie1c8//6woGogHGpwHxo8fHz6nsc4662juaOP5vaXzEG3Ebqh8omPs2LHqsynss8hgfAcUZQGhpW2t+ybLa9AQeYVP2IietS3Djh49OrQhyk2CA8rW/guQtvGE1VpAOuOMM4YG148okIsCfDSeLcUnTJhgY8aMURQNxAMNzgOME3zvb4MNNsg1ZCgtJRTo3bt3AKRUR2N3+uYu2oVv4+JxoFAeCvCN+A4dOpSnMJVSdQoIkLYxgCy3Nqu1gDT5od2qc6AqkCoKHHXUUWH90bhx48qmpWqtlkv3/662+F00qFY/YIC66qqrbL311kvVWKXKZFOA73ViISVUi1f03PzjFO3yv//9z/bYY4/shkucYUnF4s2/Byw9nKMo5p/zYoLfV0zeWszzn//8xw488MBarLrqnIMCAqQCpDnYQkmNSgEB0vwChYQt0aYReYCxUIA0/TOCAGm6xyc4qBhAChhFIQz4dOA5ceLEcOz/nt4cV5Kv2LzNlZXG6wKkaWyVltdJgFSAtOXcozvrjgICpOkWahoREOmdq8uTDHICpOkf6gVIq9tPmhun4KBiASlWUMCnh3oGlf6OLfkXIG0J1dJ7jwCpAGl6uVM1qzgFBEjTLdQ0J/Toutqv3DzAICRAWvGhuOQHCpCmu+/ToMUAUreClswADXiDAGl9NboAqQBpfXG03qZVFBAgTbdQU26wofLU3s3xAAOKAGmrhtWK3CxAmu6+DBMUA0grwix18hAB0jppyCmvIUAqQFpfHK23aRUFBEjTLdQ0Bx50Xe1Xbh5gQBEgbdWwWpGbBUjT3fdhAgHS8nYFAdLy0rPapQmQCpBWmwf1/BRRQIA03UJNucGGylN7N8cDDE8CpCkapPNURYA03X2ZZis3IB0/2mzkSLNxeXiiosljRpr9+IPZ99+bffed2cgxZn8WtxtwS+spQNpSyqXzPgFSAdJ0cqZqVRUKCJCmW6hpDjzoutqv3DzAQCRAWpXhuKSHCpCmu+/TmGUFpJPMPv7Q7KHeZs8ONBs6siR2KX/m93uZ9XzarFdvs2e6m7000OzXvz5dU/4HmgmQtgVVq1emAKkAafW4T09OHQUESNMt1JQbbKg8tXdzPMAgJUCauqG6SYUESNPdl2mwcgLSCd+adX/B7MqnzLr0Nuvyhlnf4WY/jGnCGuVPmDjB7PuhZkO+MPtiiNlng8xuOsfsus5md9xldvOlZpffZ/bS+2bDyDfYbPi3ZqMnlLUuAqRlJWfVCxMgFSCtOhOqAumhgABpuoWa5sCDrqv9ys0DjE4CpOkZo/PVRIA03X2fdisbIJ1o9taLZhc/ZvbUcLMJI81efd7s3K5mL3yTj0PKmD5hrNmA58y63mZ2Xzezp582u/8esyefNnuuj1nPx8weeNjs8R5mj9xldt89Zs8PMPt+bBkrIQtpWYmZgsIESAVIU8CGqkJaKCBAmm6hptxgQ+WpvZvjAcYmAdK0jND561HPgPSPP/6wJJ+OHTvWcqUn86XlnJYrFyD9Y5DZvU+ZHfeo2ZW9zV793Kxvf7NHepp9MCo/j5T1ythRZu/ca/bMYLORY80mTjL7c4LZ+PFmf040+3OKu26/h816v2D2dVmfHgprjYX0iy++sK+//qtSw4YNa1EF33jjjWbvgwcVmqeAAKkAafNcohzNUoCJkQGu1oMAqQBKWgQ41SMdvMiYJkCa/pG9lgAp1Iz796RJkze/yQUwSRs5cqSNGzcucw9glPn2xx9/rBlQyjuXBZBOMOvZy+zJ/majJpr99JnZbQ+ZHXqf2Z0fVZBPJ4wxG/CAWZ+vJ++qNP5Xs59+N5toZiO/Mxs1xXf4o8fMXn7N7Pvy161UQMo3Xl1OO+SQQ+y8884LlRoxYoTNPPPMOSsIn1544YV2/vnnZ+K5554bxkRucBCV82Yz22WXXWy33XbLd1npEQWclvHY0JpjxhVoP6oGcF67Wqhkso4QFyKX2kh//vmnPf/88zbDDDNEzd92h8OHD7cjjzwy6wErrrii3XbbbZm06aef3l5++eXMOQdPPvmkbb311nnjNttsY19++WXWPS09+eijpqM3Ex/lf/XVV5n4zTffGANWnMYxGrXRo0eHx7/44ovG+yXDtNNOa0888UQyOeuctuQZaQgCpOkAAaX270rlh0dbMv5Uqn56Tvn5lzavBUDarVs3Q+AcMGCA7bfffmE47dy5c/i//fbbbY899gjHyZ8999zTNtxwQ9tiiy2y4pZbbmmrrrqqXXrppclbUnleK4AU4i299NKhreivhIceeigjmyT7MNdvuOEGO+OMM0Je/zn22GMtaZ0CqCbvT8s59S4HIP3xPbPOz5u9EQG8Af3M7u1lNqxt9xBy0k/+n/CH2Qf3TwakYyeafY6bbl+znyea9bzW7OUPzMCkKQKkv/76awCQb731lp122ml22WWXhXdZbrnl7J///Ge4BijyyMXPP//cpp56arvlllvsiiuuCJH7brrppnAvcmy+AOClrJlmmimUMdVUUxnx//7v/8LzHn300Xy3NmS6AGkNIOcYlNYKIKU3TTPNNAGADho0KGiJdt99d5txxhnt9NNPDwIAzHfcccfZDjvsEMAd93B+wgknGPf0798/Kw4dOtSWXHJJe+2115p01nvvvddmmWWWJun5EhA+qEcykOaDUTH/V199dSjigw8+sM022ywcIxT99NNPYWL8+OOPbbXVVgvpP//8c9DUJJ/JOc8aOHBgrksVTRMgLb9AnxaBqLX1gBGvvPJKu/POOwVKf28cPqHdawGQvvTSS0HIQxm64447GmB0jTXWCOPntttua6+//nrOsRTQecQRR9hJJ51k//3vfzPx5JNPNhSgWGFqIdQCIB0/frz169fPAPsErJ7ExRZbzK655poAEkiPxyrO27dvb8yx//73v22ZZZax5Zdf3gAR/r/sssva3HPPHZTJaQWlvEerAeloswefNOs9yOwPCjSz0UPMuj9n9tCQKQmV+ksC0k+7mnV53ezXiWbPXmX2fP/UAVJIg0IVWfSiiy4KIBNwucoqq2RR7dRTT80oQD777DNba621Mtcx7kyYMHlzJsYNZDesrfvss4/16dMnk49xg2u5wl133ZX3Wq78jZLm9Ir7f2uOZSFtY4BbS4AURqIjjxkzxpgs33zzTfv0009DR3SwCbh87LHH7Lfffgt9Dq3VeuutZ2eeeWYYvBnAPeImgVvF22+/3aR/kj7PPPMYHb25QD3QWBUbtttuuyzLbvK+E0880XbdddcwIVJXwPFss80WJs9FFlnEVlhhBVtooYVs/vnnt0MPPTR5ezj/4YcfUjFACZA2DtDwgR6BMHaVQ6Cjz3Ldr/FPQGC/+OKLw7Hfr//65hkauxYA6XPPPRc8bG699dYgYD7zzDMGSCUg6Cy++OIhAlI333zzkM4P4zP3PPjgg3b//fdnYteuXQNIPeaYYzJ503xQC4AU+h199NHWo0ePDCkBk95OtIvP4YxJjENYtdZZZ51Mfj845ZRT7J133vHT8J9WMMoYSWgtIB3yhtndr5t9OllcMhtv9sprZve/YvZzFiUqcJIFSCeZ1QggdcrQ71FawVux/IX11IEReQcPHmwbb7yxbbDBBiEdmW722Wc3FFbvvvuu/f3vfw9GkgMPPDCjUKHs+eabLzyKcScOeAAWYzxhLNp3333jW+v+2OleLplCgFSANGenQaChQ3unRkOKmxTngFQPTDIHHXSQ9erVK7i64u7q8YUXXgia1L59+3r28I8GC0amHNwumgtzzTVXE1fhQvdsuummmfUCufLdd999QZu2xBJLBDCaKw9pn3zySb5LIR0t8dPsVlfFIEBa3+AiOdADNLHMMyEjACLQ4YmA2zqaYHdrxzpBoH+6C2OyLJ3XJ+/Q7rUASFEcYuVkLkABiPIEq8VTTz0VvFTgZwQUrvtSC94NJSEgCLdRQKlHAClWFNxFayGkHZAyvhBQ1rKZDG2BtfOee+4J6YBPwrrrrmsoeT1ccsklYe0e54w9zJPIDcgQm2yySZAj5phjjqDwxnKV1nGI+rcKkH5ndtmjk/cQGj+FON8MMOv6nNmL3zq1KvifBUgnTgak97022UL6zJVmfd5PnYWUpVXIaT5GxH2buY90AGYckC9XXnnlkISHXzL84x//CEnXXXddWGuKRyOWUw8XXHBBcNfl2ZQf87bnyfV/4403Zrzucl2vxzToQyhXHxYgFSANDIVGCeY6/vjjwzkd+tVXXw2MRsf/5ZdfgsDL+p2HH3445OEHyygaJdb77Lzzzllx7733tr/97W9NtKK4Z7n7Lc9EoC4UnOkL5Ymv4e619tprh/fJ5/P/3nvvZWndF1hgAUNj7wENPJq1QoE1CrgmVTMIkNYnqMg3wMNrCIDdu3cPa7o4Z8LEG4GA4Iegj4s7wiBrYgRIG49HagGQwq+Mn+uvv74x/roVlPEe904PPv6zHozlFFg2WHOKNYJ4wAEHZI65xly00korZbnjeVlp+k87IIVWWKTwZmIPhjnnnDMoC7CAIhMAWFnWghDJsh3WiBLI16lTp3DMf+wWGRLNDBdLXLLrGZB+9YbZIbebHd/DrB/rR381e6SP2f39zCq5dNRpbklA+vkTZg/2NfvlT7NenVO5hvScc86x66+/PrwCPMO4xiZHvtYT+ScZYkDK+k/2QcG9HF4luBGkY8eOIT15P+UDcqst2yXrlcZzH5vzySulpguQCpBm+BxLJhpMAgItbrK41WKhJOLSAAPiWuUBDTegFA0qrhJxxIrDeh9cbuPgTEwagwwAMl9g0mKCKyVgIQVQ4lbMs1jHkgyseQV033HHHYYl99prr83SkgGuGfwKBdabsglSNYMAaeOBja222ir0QdY+E84666wM6HQg6jyJm5IAaePxSNoB6ffffx/G5kceeSTsyMp6fsZ6FIkoKKebbrrAwlj8sbDFAdCJUpPdMFl6gecOS2M4h/+xfNRCSDMgxfqJEpr5e6+99jKEfA+s/SQgPKKUZf73gJX74IMPNqxMBCxaKHZRMODqS2QdKcthWJtaz4D0l3fMbn7VrM9rZjc8Znbq3WadXzb7cKRTq8L/MSBlRcfEMWajJpixYfLvv5qNmWLHTdGmRjGF8H7AwHD33XdnrRGN83CMDLr66quHZDY3Yt+Qf/3rX8Fdl0S3muI95Jt2AkLZDwUgisxIXGqppYKrLwoZj7n2Q0k+v5HOXZYvFXjmyy9AKkCa6T+4KLiWmrWkrBsl4DpFJLAYPLY6nn322cauZUw4dOA44pcPw+K374F7SUOIRquKhtuZ2vPE/1iCKLOUACC9/PLLM7dgqeUZ+PgTGJA4Z+c06s+OubgPo6X3wPVvvy3sV8NGSIXq7mW15b8AaeOBjSQghYcddKJQYndu768CpI3FH0z0hLQDUuro65xxA00GgBAgiHkiBjzkQ0mKkvOVV14Ju7biUspchbCIgnGnnXZKFpfK8zQDUjYzwkOKtaN4RbFMwDeGYcddAsIj7rtYmggoyAALtI17QLEBzeOPPx6uxz/M/ey4W8+A1L40u/wFs2dfMXvgUbP97zd7dHBMhSnHk6Dl5JjjavmSAiB9wOy54WbsspsvDEjPZ1/wWuvQoYMh52C8ILJvCXIXSg/SPe6///7BCsqu3Xj8ERgbCCiwAKrIev51Bdx02ekbHsfowX8sz8HPHimDDdNi78BQcIP/OL3yAcxS0wVIBUgzXQpLoQNSNM0At+YspAgLhTTSaK99XRsPWnjhhY2Bg3UmDCjcC6D17f4zlZlywBrNpIY8mSd5ngSkXH/ggQfCBMsxAxMTbNIlwzsXeeLjZPl+zrq9YvJ5/rb4FyBtLMABD9E3WbPtFtIYkDIRo1gSIG0svognfngk7YAUiwSfNGP8ZE5AcMTbxNd+AWJQrnCdNV5xWHDBBYPrKHlYb4owiRKGT5Dx3vk+FxOXkYbjNANS+Am3XML2228f5ktAKgKjK4iTgJR7CLjoAhoIuFvSpsgVzMtE5l3WBaKormtAOs6syzNmdz5j9vbnZsNGm40eZnb/U2Zb3Wm2091T4l1m23UxO+GNQLK2+5k4zuyTbmaXX2F21ZVm11xpdnUiXnO1WcfzzJ5408w3YipjjUr9DimyI1ZMFB9E+jmee4wVuO3jrefXbr755sBPbLp52GGHBZdyLPIE5FDWoeP278oSXP3JG4dC8hyKLjw6FP6igNMrnn9acyxAKkCa4S40zg7ScJ3ChYpOjOuOryFlEGDTIvzx2e0MVwYEBFynWLvGxgVE3KfYqhuGxUXH3XKdgTMPNQta1Vzp5GkJ6MsFSOPncYx2lvV2caAOvBdaueS1OJ8fA5Zzaff9eiX+BUgbC3jAU0yMfMrFA33VP2ckQNpY/JBr8ocv0g5IqSMbb8XjPgA0Xg6Cux1gKBnwZGF+8TmGTUrYDIk5iPXVKDxrIaQdkDrAdECKAoz52HfQzQVIAZgxIMVTCUDButPvvvsuRMplYyosqXUNSFk2OtLsp5FmY33R6Hiz7382++g7s4FR/Ph7syFt7so7yWzsb2bfjjAb8XX++PUIs9/+MCtgRG1p/yoVkCafA6B0AwVjBx50yYD1HW84eM/3VnBFF/fAcwTc/JObUsbjUbJcPO0KAVIsuYXuT5ZXD+f+vrnmoZakCZAKkGb6BbvPItwScNml4zP5cEwEpMGAAFICLlK4VbFWFJdB1ouwLgSXCdadIDTj1opFko8Vs7bEv/EZCoh+KNe3ko+SwyHX0M4WG4oBpGwVzmYaccDdiADozuVmFOflGCHI18okr1XqXIC0sQAIls+XX345eBXgSsf32Njl+sILLwwsR//q3bt3xkLKJzDOP//8cK0lE4TuqT3+orFrAZBST+YI9idgLGbc9eCfcnCBx9MBofA7FhAi4x8eNmzGB8ghDcER1760h1oDpNATQMCGMoRiACk7j6Lkpl2Y/4m4SjJuoZCgjLSOMbxjq3bZDVTST0yBlgJS5Eq89RxYepm+rwmbZ/nO8qwDRQHC2ME+H3zWj2MUI2uuuWZw60dpRRq8FwfS+MQL3htxZA0q1/DIyBeGDBmS9XmkfPnqKR2aEMrVhwVIBUgDQ6FRogPiDog1s9DOtyNGjMgARDY1YNcyNjqINy9ikyBcK2BYhAUsrFwHvOYKfJ+MjYZyBYTqUr4th6adtSv5AuAWTRduHAQEISZMNmRgzR11ZuI88sgjA+j07e2T5XlnTKZX8lyAtPYAQ2sHbxfisESwDo+1ziiGsGAgyGOJ8E/C4JqOQgj3u9Y+V/fXBq8x/tQCIIWPcbNj/nDrAt4p8DVjK0IlQiTHbsn48ccfMx47XMeDxze9c08evFxQhLrbeiXH41KeVUuAlLmZeRPXatqA8YT2Q4nryjDGB6xPtCHLCLjn8MMPD99BZld7Nk0korDGrRoZATkjrWMTbSlAWgpHN5+3VEB60003hf4PEI33IomfBG/hlefyGPIcYwGbILHZJucsEfBPu7AOlGMUu8ngZSTTOZfLblOqOL3KJRsIkAqQBi6jg/qaEXzysYwuuuiiYYc8NEazzjpr0ByxYx7gE8bhY8NsSoQAnC8gLANyfUv4fPmaS4fxR44szqcFa65PkrnK5UPrbGjkGjW09F26dMlErKN82440NslwF4+4LHZ6ZFe2agcB0toACeUasL0clCTwJf9EF+oQGgGjno90v+Zp+q9vnmFMSjsgRUBkTGeX9jiwbIR0AKUH3PIQOAGvCIWAGY94CTAG+rn/s3ykZ8+eXkQq/2sFkG600UY2bNiwsKEhFlICYwgyAAoDwKenMSZBd/aWYF5lUyo+3cGa0jjiWYTyl/XujFlpHJN4JwHS0LRl+ykVkJbtwSqoTSggQNrGAJINFMoZ8VNn4C51wEW7ywJurJYKFjZVOOOMM1JBCgR+1semIQiQ1je4KHXcUH7xA+NS2gFpGsbOatehFgApyq7hw4cHmQgPjKQswzkhHndcgevXCtE5rWCU9yEIkBZqvdKvCZCWTrM03yFAWmbAWE7wmassAdI0d6far5sAqQBILAzqWPzAqCZAmv6xvRYAKeMJoLQRxxU4SIC0vP1IgLS89Kx2aQKkAqTV5kE9P0UUECAVAGlEYVHvnJ/vGZ4ESFM0SOepSq0A0kbtazSbAGke5m1hsgBpCwmX0tsESBsMkLLWUUEUyEcB1uaygzEBN29F0UA80Ng8wFjA95394/D5xg6lV5cCrJ/0zzWpz6avz8IdrHtlnwyF8lDglFNOMfbfUKgPCgiQNhAg5TMoNDgbB7CZgKJoEPMAuxTyCQR2SOb7fWxJrigaiAcamwfYe+Doo482vtfJRkDxmKHjdMwhAFHADhsC8Zkm9dn09VkUBny+brnlljN2e1XfaV3f4bOAbDjJFw0U6oMCAqQNBEjZlpoG5zMsfFtTUTSIeYDP2/DNPbY3Z7LkUzeKooF4oLF5AOso3+vkcypbb7215o0Uzp2M3TvssIOdeOKJwb1afTZ9fbZz5862+eabG9+g3GqrrdSPWtmPoCGfDWKZkUJ9UECAtIEAKZrumWeeuT44V2/RJhTg0zN8QkFBFBAFRAGnANYIlFcK6aXAq6++Gr7Fmd4aqmbs7H/AAQeIEGWiwOmnny6X3TLRMg3FCJA2GCDVZ1/S0O3SWwdtapR/c5dG3YxD793YPMFopU2N0jtme820qVG6+yntVMymRnzexj+J421LWpxezCdwuNfv83Lq7V+bGtVXiwqQCpDWF0frbVpFAQHSdAs1Aodqn0rzAAOKAGmrhtWK3CxAmu6xASYoBpDy3dWxY8ca/w48AahsVEUa/5wXE/y+YvLWYh4B0lpstfx1FiAVIM3PHbrScBQQIE23UFNpMKLniR8YBAVI0z8VCJCmu6/CQcUA0vHjxxsxBqQOTCkjPk4/V7ZtDQVI25a+lS5dgFSAtNI8p+elmAICpOkWagQQ1T6V5gGGKwHSFA/aU6omQJrusYFmKgaQYgEV6CyuvwmQFkenWsklQCpAWiu8qnpWgAICpOkWaioNRvQ88QPDjgBpBQbfVj5CgDTdfZXmLQaQCowW3xEESIunVS3kFCAVIK0FPlUdK0QBAdJ0CzUCiGqfSvMAQ48AaYUG4FY8RoA03WMDTVsMIG0FCzTcrQKk9dXkAqQCpPXF0XqbVlFAgDTdQk2lwYieJ35gQBEgbdWwWpGbBUjT3VdhgrID0kmsKa0IexXxkElmbLbksQIVEyAtollqKIsAqQBpDbGrqtrWFBAgTbdQI4Co9qk0DzDmCJC29cjb+vIFSNM9NtDC5Qakv3xtNmiw2TdjWs8/rS7hu8FmA/qbvd/f7L1+ZkO+NxvTtmhZgLTVrZaqAgRIBUhTxZCqTHUpIECabqGm0mBEzxM/MCIJkFZ3XC7m6QKk6e6rtGFZAekYs16vmp11l9mlPcyeGWL2ZzGMUrY8EdicNNHsyc5md91p9sBDZvdeb3b3C2boQI8PAAAgAElEQVTDRpXtabkKEiDNRZXaTRMgFSCtXe5VzctOAQHSdAs1Aohqn0rzAIOMAGnZh9qyFyhAmu6xgQYvJyD95gOzri+YvTDc7JshZg/1MLuol9m7P5SdtZoWOP4Ps/efNXui++T4+GNmnc42u/5ms3vuNbv9KrNLrjW7+0GzHo+bdX/U7IV3ym7KFSBt2jS1nCJAKkBay/yrupeZAgKk6RZqKg1G9DzxA0OMAGmZB9o2KE6ANN19lSYvGyD92eyRHmZ73GrW8TWzEb+bjRho1qW72QuVAKRYRH8YavbCXWbd3jYbPNTsi8/Nhn1p9tXXZl8NNRvyhdlXI8xe6mL2eA+zj0eajZ1YVs4XIC0rOatemACpAGnVmVAVSA8FBEjTLdQIIKp9Ks0DjE4CpOkZo/PVpJYAKd/ajPl47Nix4bXitPh4/PjxlryHG8aNG5dVTnxP2o6pb7kA6SevmXV9xezFoWavv2F22xNmpz9udvOrZqMiT9p8vFKW9Al/mPXvYtb7S7MxBYDmgG5mL75i9l1ZnppVSEsB6bzzzpsp59FHH7VHHnkkc17swYcffmhHH310sdmVrwgKCJAKkBbBJuXJ8scff2QVdOutt9rHH3+cSXvjjTfsrrvuypz7wcSJE40JKVdkkkpr2HjjjZtU7corr7ShQ4c2SU9LggCpAE8hQQ7BccyYMTUjBBZ6F10rjtcZm2oJkI4cOdL69euXNaR+/vnn9tRTT2Wl+cn7779vDz/8sHXt2rVJRFD94osvPGuq/2sFkDKfAwKQB+iDjCnffvutXXfddYG+yX7JvN+3b98moKFz5872wQcfZLWJl5ksIw3nVLQsgPRrs9ueNXt28JRXH2P2yitmlz9i9tKPWeRo25MJY8w+uN+sz9dmYyeZfdfX7OXPzEZPMnvvSbOPhk5e1PrRY2Yvv2b2ffmrUwogPfzww0M/pxYOfDieaqqpbIcddgjgkjzHHnts4DeuHXLIISEv+eN42223Bdl1m222yXqp0aNH2zPPPJOVxgng9bHHHgvpb7/9ttFX48jY9NZbbwUZ98EHH2xyPwkjRoywp59+Oue1ekn0dilXf+WbvrvttpuNqgGc164WKpmsI8SFyKU2GMDt+eeftxlmmKFqvAuzDRkyJPN8jmedddbMefI6F+iApM8555whL/k9zjHHHOHaueeemylj8ODBYTBhAgPgDh8+PHOt0AGTZC4AiWCz5JJL2hprrJGJG2ywgW2yySaZc7+2wgor2FlnnZV5jHeuTIKZvfnmm6HOcRrHyYk1eb1S5wKkxQnppfa/esiP4Ej/QqEiUNo4fMLYUwuA9KCDDrJLLrkkjKVrr712GDJ9DD711FONmCssuuiidvPNN9sDDzxgXbp0yURAKgIvQmkthFoApIwbgMa55porkJRxkbD77rvbggsuGMaWXJZQ2oG2QaELL95www229dZb24knnmjXXnttSOvYsaP9+OOPGaCbtjGX9ywHIH3tObMH3jEbNi6QzuxXs5dfNbvjLbPxU5Iq8oeFNANIJ5oN6mp23+tmv0w0e+ZKs+ffN8MGkRJACk0YD1544YWMDAbPbLvttgEcwl/PPfdcAKiPP/54IOHOO++cZTSJ6frSSy/ZfvvtFyfZO++8kynbL1AWz3399ddD0nzzzRfO+Z977rlDnGWWWWzHHXcM1//2t7/ZLrvs4rdn/ikDI049Bx+vy9V3BUjbGInXMiD95JNPQkeE2WA8wDGTEMdEjknj2LWlaI4OPvjgvH3w7rvvtnPOOSdzfZVVVgn3TzfddEb0sjMZ8hzMPPPMxgCTDN98841dc801dsstt4R4zz332Pbbb28IMffff38mnevXX3+99enTJ1OEg38m4JVWWikAXu5dYIEFrH379gaw9UGIZ6+//vqZe6t1IEDaOECj1EEfnsRF6bzzzgvsWer9yl+bvEVj1wIgpZ7HHXecfffdd7bnnnsGawjjNwEXvd69e9unn34alCqDBg0K6fwAXsnPPAOo9XjooYfaRhttFEBEJnOKD2oBkEK+O+64I0txi1cUAviECRNskUUWCRTGKurjBQlLL720oTS+9957DQG/Z8+ets8++9gVV1wRLN+k3Xnnnfbzzz/XNSAd87nZ7T3N3hzxFyMOet/sgd5m/SZj+78utPVRFiCdZPZpV7Mur5v9OtHs2avM+vQ343M0KQKkThLkwhdffDHIh6effrr98ssv4dJHH32UZbTZa6+97NJLLw0GiO222y7IcOuss05QiLhs+Y9//COUQwFYQkn34GD066+/9iT797//HWTHTELigH5AGf37989c4dlrrrlm5rxeD5x23vdb+y9AKkBasK98+eWXTa7PNNNMhptVruCDhnf+XP9oTT2sttpqQdvt5/yvt956tu+++8ZJWcdPPvlkZiLMupDn5OqrrzYGiHzBQbHXlQkXMM5ghbsGLmJYXocNG2bvvfdephhALgNiNYMAaW2ChtYM3PBbLAAyiCP8USaBYw8nn3xymKA5b80zdW/t8BltnXZACs8y3qLUdAsEgh9KSQLXNttssyBYcoyg6WHdddcNLnt77713SOcakTkDIRCBtRZCrQBSaIpigIAb4xJLLJEhL15ciy++ePDAIBFrKcpaXCkJeBjRHijFUOh26NDBzj77bDvjjDOC22+a15RS/1ZZSMeYPdnT7KmBZr9OWak0boTZU33MHq2G2FAQkF6dSkD60EMPGdZIxgAC/ILBgHOMH54eLpoFd09ccDE2YElFjnNL52uvvWYnnHBCyIq3HiEGpA5GUZLEgXEJw0ahgBHE64K86Mfcc/HFF4dxrND9tXrN37Nc8oEAqQBpzr7AWlF845lQCEwguCasuuqqQVAAxBFnnHFGO+ywwzJl4LKLO0++gKDkFhvyAEjduur3IES7JdLT4n+EGLTnxYbLL788uOsWstxSlltIOe7WrVtwFYmf8X//93/xaajDsssum5VW6RMB0toBCuUYtOGv448/3l599dUAShnAb7rpJsPzgMB6GlycEObpv3gjoDEmlOP5KiP9/EZbpx2QBoY0s99++y0Ib4AeX66xxRZbZAlwLvTA44BO5iDmCIDOaaedlolnnnlmAEJYSffYY4/M3OXPStt/2gEplh/kAJQEWIyg73LLLRfI6ECSE9weWZaDNZSAa+5FF10UjnHJ5pglLkQUupSJhRWgwDPSOqbwAq0BpCM/NjvuLrMr3jT7fkIgh/V9zey+l82GTt4TanJipX6zAOlEs08fMrv7VbOf/zTrcanZc/1S5bJLv2f5FWsxfQxwUm2++eYhjfkvDvAVy7+wyMfLscjD+nJXlCC3EgYMGBDKYT7lGbk2S1pqqaUMJRhgFnmLeOCBBwZjRfxsgDPKFsqhPA+4FQOQ6zF4u5SrDwuQCpDm7Cfdu3e3nXbaKYBQMiDYIgSwjhSrIJGNJy677LLQQb0QNKYw6UILLWTzzz9/VnR3XwCiB6yhaE4vuOCC8IwjjjjC/vWvf/nlnP/eCXJezJFIHRnAjjzyyFA3LKy5wvTTT59Jxk2JidUDQj7rYpOh1Lok72/tuQBp+gFCuQZryiEANnv06JGxhCKYuwC45ZZbBjcl1o4i4HNNgLTxeKQWAClgkvETAXL11VcPrnGAGgRA31WTddBTTz114Hv2Z/j1118NS4evHWUZBuO5n7OuFOCDlYN70xzSDkihHZvHrLjiisE7yBXJLtQDJhH8sZqiWHj33XeD2yJLXACiBLyTcKVGaYbimci6OsYwNoWpZ0A64nWzM7uZXdnT7LF3zV7ua3ZrH7Nnq7XnVhKQ/viB2dtDzf6YZPbx82affTV5U6MP07GpUWypdDkL7zw8Ku67777AX8mfXXfdNexFAl9yDxE5lICLOAoGAm67BJQjns8tpOFC9MN4tNZaa4XlL/AyEfdzxq04MD9TFp4bjRJ4X0K5ZBwBUgHSgn3HQRqLydGO0hkPOOCAENk8As22u0FQEO4SgD82Q2AnvjgiUJxyyikBfPpDN9xww6AFw+WK9ba4WcDkuXY+4x40s94JvIzm/jt16mRo3Qm+LpYNjTygtcWtgnKJ7h7Gbm4eeMeTTjrJTzP/5KfMagUB0sYDG1tttVXoH+6aiybYQeemm25qTzzxRIYd5bLbWPzhSou0A9KffvoprP2EUQGVuOYR2DmX4BYMdneNFYNcwxqHJYN7+Ee4xDOHe5mnWPdfCyHNgJQlASy/Ya5njW48x/m6UYRHhHwHqtAcJTZt4tYp+BClGAABxQGRfRvwgEKgr2dAOu5js5teN3v9TbMb7zfb8yazW/qZ/VYt5nRA+sK3ZtmGxewaDXw8FbvsxpWCfwi4xgIc8wV20cXqya667nk322yzheyAUf8qhCu5YpddMuHdF3vKkVaMy67XZ5pppmkCVP1aPf67LC5A2sZAMrlbbkvPa3lTIyaLGJAuv/zyweWBdSBEXHXRHMWAFEsiQI5NgACbcUQrOvvss1tsIcVlN+nOwHoVZ/RkJ2btar5rybx+DiClPnFYeeWVw2ZFpPkW4i4Eeb74OWjlWBuQDAxAr7CHe5WCAGljAQ7YDCsoChsHpLFbLjtPv/zyy2EtF3kFSBuLP2oFkH7//feGNYNdMRlnUW7ibue7Uh5zzDF2++23B++Z5KcTAEQoLtkXAGDDGExZAFHmo/33379Ko3Fpj00zIGWdHm2ElRmQOXDgwLBEgDfEYkQAkLK2DiUAgXvgP8YfrN8EdtSlbXD39Z2TcWtkoxn2Z6hnQGo/m13zrNlDvc2efcmsc1+zfsPMvhhm1u1Dsyc++it2H2j2YrTxUSBeuX/+HGM24EGzLn3M+r5j9l4/s37vTolTjvt/YPbYzWY9XzNrg0/SlPLZF5aIMTZ4RK704+Q1NrkksIyMnZsxfPjnWNgZl7DMMstkPgk17bTThjS8KSgzDpwz/ngAkOIxV0ygjsjAjRKcdgKkAqRtzvMxIEXoRcOEKyAaKCI7H2KZ8Y8NY71k630AXr6AJZLBgsmMACBFixoHrjmjx+l+XOia54n/cwHS+LofuxuHny+88MKZdQL5nkk6k3W1ggBpYwEO+Axrf7yGmsnTlTwAUiwb/r1fAdLG4o9aAaTMFb169QrjPN8NZdM4xjJ2zyXgYcPYGnup+BjL0gmEPvoA/3ySBGsbljc+L1Jo/vEy0vCfZkAKHwEwCQB95jgHj76ONAlIuQclGe3ggJRddZnfkRVcbmDZD5/fYH8KL7NcAm05y+HdW7OGFCvkG++a9eKTL79O4bjvzbo/b3bQI2ZHdvsrHva4Wce/9kuckrnMf5MmmH3d1+zBe8zuuiN/vONuszcHTd5xt8xVKAWQJh+N5w9zH155jB25gls38YBjSRnBN+GKZTg/Tm5ARH7WS3PdDQ24oKMww0qLdZbIkjZiMnAfa0bjwPIad2GP0+vh2OlYrn7HmIIRr6UGwErep++QVoGD8dkn4JbD5gas9cG6SARMspCbrfsJWBhZO8onU7CmMhDMM888IS622GIhHQ0WGlYHfwwudHY2RmAAQLuKwEH5+QKdAC1YsaFYQOpaMy+XDTRYm8cE6lphv+b/3iH9vNL/AqSNBTjgL0AmbvF8IgOXRhQnrtThU0Ss43ZAynf/fDIs16ShctLNc/AI/MD6/DQH1hBi6fANudyNzuvM2Ip1LhlQguLmS0QBitcNrqCc8zkvd/9N3pe287QDUvo5wQEpxyi7XGmQC5ACMGNA2rlz5+AlxZo77iMyrwIYmPPrGpCmjeFSUJ+WAlJcwGNZC/kRj7vkOnHP4/+sOWeuRDHCcjNC7GWHooRdopOBL0F4Oh4XeGWwB4pHQCpfWUgGPkkFX/8/e+cBLktRbm0UMwi/iasiiGLCgCiiJEFAREEMRJEsWdIVuSggSBZBkiBJgmQFJCs5CBwyHPIhZ0RAkAyH9P3PW1pj7zkz+8zsPaGn563n6eme6lS1alVYVV9VFx1l8aB0khXD3cpxxrlTbQIFaZdHWgfZZJf5IxAO0x2+sZRHXug5ZaMyIfPV9wjlQqCYCamEmFzOnJOiY34KixghfBG0XEMjejTHPYyytupaFaQ0jho5TJLz3IPieeLN99b66RSk5RYHnSqo83PId4hN+E+HEB1FNMYPOuigREMqz8svv7xmXgf3MYOkoM/PcF9tzkCEQRCkudykQ4V6prgYCB2b1J10ElLeZ8fIGovq5I3yj1ERGrpMIWFRPKaT7LTTTvmW0u4HSZDmOaRMF8gLqrUiSBmxZqEq2gp59IIEYYFBFpTBlbU8ImzjGiFNsfOniEA7gpRpKaxmS9nQyAyfPM45Nq7DxJ/BDeaR0inFYlycY245e1y+PteXxbB53D4CGddO5WEFqYK0IQuZ78F8HBwVPqseMt+HzE6vNRtzeBCd2YSCygeC8o0nVt6rd/RGcT3X0Jgej8sZoZVn0Ghn2e5mjlFQRnWzaQeT4Hl+3pijRO99/k9DAkcPGqZm/XQK0mqLi0YFfTaly7yjEM+CE7/iN0r5n881epZ+1eMPaV52Qfroo48Gi3NRpiJOcDRWGcnArzjnn/+MRrBiK/UHn3RhY7QNEct5GqTZnz2mfcXFvdILSvYzKIIUEXrfffellXJp5OMoNyhXEAHMCc1+CE9MG6lz+QQVHQuY+DJnlPYEG3UxI05YTbFaKma+ZSyHiJOCNCVtx37aEaSbbbZZWpxoai+nDZa/k0unBwMi9Y5RUV3nEaDsxXUq/1KmaLLbRVE6qCOkrIJYdJhGMErKqmSMlPLxa/YsTIA/jm8vNSoMis/Jx5hrjccx6pPnskztOcwvwrSrmWOuQXFOXrPriv6szFtcqbd4rpfHCtLqCYpOFe4+Zzi5QflTdkGKcOFTLfUOfz7TVe/4zFjV3KAIUgQn34JkcakHHnggrXRP2cI8YOpBptnkTjDaCXfeeWcy2y2mF6KzuHGOxifPKGs5RRgVpMVUHP9xO4J0/G/zCd1GQEHaRfGYTUo6uR9UQdptInfi+aRTv1z9N6j6FQ4F6XCKjrI24gxX//lIWVR2Qdqv8rJM7x0EQUp+xiE06SxgX8zjCMosRrN/vpb/WHOMtuV7yrgn3grSzuYYBWln8ez30xSkCtJ+c9D3lwgBBWn/BUAZG1OGaXh5QfGkIC1RId0kKIMiSIe1LCHZFKRNyDtGbwXpGIEr6W0KUgVpSalpsPqBgIJ0eIXHsDYUjffonKccUpD2ozRu750K0tF53O98TmoqSNvj9NSuVpBODaHBOq8gHTJBymdVdCLQDAEK+AcffLDZaf1FQASGEAFWkWRhH115EWDaB59F0ZUXAT43stZaa5U3gAMWMr5nzwJkumogoCAdIkHKIkEkuJsYNOPAYostllYlYwVkNzGQA3KA1Wf5bnKzMkP/ctQnfO5spZVWimWXXdayu4T1F2kz66yzmo863AbN362vhiQb7lhQl+A6Zc3gKrtdFrjjWdTowgsvTJ9cIcGffvppNzEYwQFWNGYBiRdffNFNDOSAHKhxgIVk+NSB9UY5603K7ueeey6tMmv5Xd76i4a2+agzeYh2LJ94Kn5XOKkZfwYWAQVplwVkJ1fY5VnjEaQXXHBBTD/99ANLVgMuAiIgAiIgAiIgAiIgAnxbVJPd6vBAQTpkgnS66aarDnuNiQiIgAiIgAiIgAiIwNAh4KJG1UpyBamCtFqMNjYiIAIiIAIiIAIiIAKVRkBBWq3kVZAqSKvFaGMjAiIgAiIgAiIgAiJQaQQUpNVKXgWpgrRajDY2IiACIiACIiACIiAClUZAQVqt5FWQKkirxWhjIwIiIAIiIAIiIAIiUGkEFKTVSl4FqYK0Wow2NiIgAiIgAiIgAiIgApVGQEFareRVkCpIq8VoYyMCIiACIiACIiACIlBpBBSk1UpeBamCtFqMNjYiIAIiIAIiIAIiIAKVRkBBWq3kVZAqSKvFaGMjAiIgAiIgAiIgAiJQaQQUpNVKXgWpgrRajDY2IiACIiACIiACIiAClUZAQVqt5FWQKkirxWhjIwIiIAIiIAIiIAIiUGkEFKTVSl4FqYK0Wow2NiIgAiIgAiIgAiIgApVGQEFareRVkCpIq8VoYyMCIiACIiACIiACIlBpBBSk1UpeBamCtFqMNjYiIAIiIAIiIAIiIAKVRkBBWq3kVZAqSKvFaGMjAiIgAiIgAiIgAiJQaQQUpNVKXgWpgrRajDY2IiACIiACIiACIiAClUZAQVqt5FWQKkirxWhjIwIiIAIiIAIiIAIiUGkEFKTVSl4FqYK0Wow2NiIgAiIgAiIgAiIgApVGQEFareRVkCpIq8VoYyMCIiACIiACIiACIlBpBBSk1UpeBamCtFqMNjYiIAIiIAIiIAIiIAKVRkBBWq3kVZAqSKvFaGMjAiIgAiIgAiIgAiJQaQQUpNVKXgWpgrRajDY2IiACIiACIiACIiAClUZAQVqt5FWQKkirxWhjIwIiIAIiIAIiIAIiUGkEFKTVSl4FqYK0Wow2NiIgAiIgAiIgAiIgApVGQEFareRVkCpIq8VoYyMCIiACIiACIiACIlBpBBSk1UpeBamCtFqMNjYiIAIiIAIiIAIiIAKVRkBBWq3kVZAqSKvFaGMjAiIgAiIgAiIgAiJQaQQUpNVKXgXpkAnSGWaYoVoMNjYiIAIiIAIiIAIiIAJDhcDPfvazWGeddYYqzlWOrIJ0yAQpCX7YYYfFXnvt5SYGckAOyAE5IAfkgByQAwPFgYMOOijmm2+++PznPx8c26Yd3Db93nvvHQcffHAoSIdEkL788stx8803x0ILLeQmBnJADsgBOSAH5IAckAMDy4ElllgivvnNbw5s+G2P/1ePLLzwwvHVr341DQA///zz0Ynt9ddfj+WXXz6eHQCdN80gBLI+jIALyGNJLESpTgREQAREQAREQAREQAREQATKhMBYtE2zexSkXVbi4xGkzRJN/870xoijOMoBOSAH5IAckANyQA7Igf5yQEGqIB3T6K0Zt78ZV/zFXw7IATkgB+SAHJADcqAKHFCQKkgVpB2yf69CgWAcrNjkgByQA3JADsgBOSAHeskBBamCVEGqIJUDckAOyAE5IAfkgByQA3KgLxxQkCpI+0K8Xva6+C57+eSAHJADckAOyAE5IAfkQDk5oCBVkCpI7Q2TA3JADsgBOSAH5IAckANyoC8cUJAqSPtCPHuoytlDZbqYLnJADsgBOSAH5IAckAO95ICCtMSCdPLkyWX63JBhEQEREAEREAEREAEREAEREIGODmgpSEsqSBGjkyZNCr5j+oMf/MBNDBpyYM0114yVV1654Tl5Y76RA8PJgVVWWSVWX311y4US1xurrrqqaVTi9KHsJI1WW20181GH0mmttdaKOeaYI6aZZhq3imCAJu/UKKqCtMSC9JZbbom11147rrvuupgwYYKbGIzgALxYf/3149RTT40rrrhixDn5Yn6RA8PJgauuuioOPfTQ2HrrrePaa6+1XChhvUEaHXTQQbHddtvFNddcYxqVNI323Xff2HnnnU2jDqTP1VdfHXvuuWcccsgh8dJLL8VTTz3lNqAYPP3002lsmI4FBWmXReSzHXw+I5yo/nZ7EBghvfXWW2PddddNI6U0LNzEoMgBRtARpGeddVZcf/318sM8IgfkQNx4441x5JFHxjbbbJPqkGKZ4XE56pCbbropdRrsuOOOQcez6VKOdCmmA2l04IEHxq677moadaBcvfnmm2OfffaJo48+OokYfwYfAQVpB8ViJ4Vns2d1QpAiTOlFdRODIgfgBYL0zDPPjIkTJ8oP84gckANxww03xBFHHJEEKY3AYpnhcTnqENKIkaIddtghED6mSznSpZgOdOwccMABSZCaRuNPH/Dce++9U2fZ4EsxYwACClIFqZWXjc7EAQXp+CvJYgPEY/GsAgcUpOXnsYK0/GmkIO1sGilIqydiFaQKUgWpglRBKgcsB+RAQw4oSDvbkO5GJ4WCtPxppCDtbBopSBWkU5u66KJGXRa4mux2tlDrRuNgUJ/pCKncGlTuGu7ucVdB2j1sO8VbBWn500hB2tk0UpAqSBWkXRaczeaOZn8FaWcLtU41CKrwHAWp3KoCj41DZ3msIO0snt3gp4K0/GmkIO1sGilIFaQKUgVpQ7OublSyPrOzBfjU8FSQ9hbvqaWH502PMnBAQVp+HipIy59GCtLOppGCVEGqIFWQKkgrOtdMQdrZCrMMYsIwmKbj5YCCtPwcUpCWP40UpJ1NIwWpglRBqiBVkCpI5UBFOTBe8eL9nW10lQFPBWn501RBWv40UpB2No0UpApSBamCVDFSUTHiCGlnK8wyiAnDYJqOlwMK0vJzSEFa/jRSkHY2jRSkClIFqYJUQaoglQMV5cB4xYv3d7bRVQY8FaTlT1MFafnTSEHa2TRSkCpIFaQKUsVIRcWII6SdrTDLICa6GYbrrrsurr32WsuDipYHmTsK0vKXC8MoSAet/BlUQVos44vHuXzo115BqiBVkCpIS90AveWWW0Y0kq+//vqg4MoFKcf4FQtRziHGJk2a1HS76aabRtxTvL8qxwrS8jc8x8M1eH/nnXe2tBX5Tv646667RvCfxuC5554bF198cS1vjSds3lte7g2KIIXfcHXixIlBPQCnKO/zPvvVc41y77bbbmu6FfNC/b1l+T9ogvSOO+4YUZ6AcX0ZU8T2qquuGlFvU/6cd955MWHChIEpf+DiAQccELvuumv0g1O8v5gHGrV56sOV2005b11++eWlwZv47L333nHkkUeWRpk9+uij8eSTT9bCg2Aai6M8GkY3zTTTpGhPTWi2ev71118PPpWZP5tZ5v00ZQ5cs7D5HdLmDbebb7451llnnVTRUWFR6R1zzDGx4IILxt133x333HNP/Pa3v41vfetbcf/999eE6hVXXBFrr712rLnmmk23PYvk/5wAACAASURBVPbYoy+VSLFS7vaxgrQ5t7qNfbefT4OCvDDPPPPUtgUWWCDmm2++2v987ktf+lLstddeie/ko8suuyze+973JiGbw0nnzQ9+8IPYeeedK58vcpyHdT8IghR+//73vw+Ey6mnnho//vGP44EHHojf/OY3iZ/wmbqh2CAnPXOZt9JKK8Vqq60Wq666am3j//e///3YaaedSs/xQRKkNLY/+9nP1joLSJN99tkn3vOe96Q6uj6fUa/vsMMOsdFGG8XDDz+chOsjjzyS6urjjjsu1eWIWTbKq/r7y/K/n4IUofmrX/0qYQjnwWmttdaqcR3er7LKKrHLLruM4Drtps985jMBzvfee2987Wtfi4MOOihdwzPyloVrL7EuiyBF9Pzzn/9MQmqNNdaIHXfcMR0jTqebbrqGuvKFF16IAw88MHVQ0EnB9rvf/a4mrrMwa3Rz/TnqYcqoqbmXXnop6u+d2j29Pp/D16rgnNp1CtIuj6AqSJuLBgpdeh+/8pWvpMppww03jC222CLmmmuu+OlPfxo///nPY+aZZw78abDQWKGyY5Tni1/8Ypx99tlx8sknj9hOO+201DhfdtllUw96LwvcXr8rN87OPPPMNMrQ6/f7vubcHi82uTG03nrrpbzBSOmhhx4af/nLX+LBBx9MjQ0aHHTa7L777rHlllumvEGDgw6bj3/841MIUjpwuLa+V328YfX+7vFgLNgOgiAljEcffXTqXDnnnHOSWNltt93iu9/9bhIsq6++eq1RffvttychChYcIzo322yz2GqrrRLv4T7b1ltvHTQwqTvqhexYcOzmPYMiSOk4OOmkk2KxxRZL2DOajd8nP/nJhDeiExFUxIqyatFFF0318kc/+tEkZuecc8743Oc+F3mPwJ111lnj/PPPL60ozWVwP0ZIKdsRQNtss0089NBDCV866hH2dNwj5hGV4EyeAH/K/ksuuSQ+8YlPpDTh/CyzzJLKe0ZKL7300trGdb0WpWURpIhRhBQYbr755rHnnnsmHUc7FP/iNsMMM6RzYI4/HS0/+9nP0vZ///d/qUOAC97+9rc31ILUt+QRyiXKNOpgOs541vrrr5/8VlxxxTjiiCPS/UcdddSI90877bQj/nMfncplcYQHNzWh2ep5BamCdERlUqxYenFMZbbCCiskcfmHP/whNUJodNMDjjg9/fTT409/+lPqiTrhhBNSLy0F6+c///lUONAIKW4U4GT0lVdeWUFa8blyveBnv95B5U2DBEFK44ROmA984AOxxBJLxLe//e3UcP/e974Xxx57bOqAoXFOZ00WpDRKaLxk00ZE7LrrrpssDnge/lzfr/j53u6J2EEQpKQ/3D3ssMOSGR9cplH2xz/+Me6777741Kc+FUsttVTa6NRlNAiRSeP7O9/5TuI8oxT7779/bWMkiMbiT37yk5qALSvPBkWQUk7QkAZrOkBpmCMqMbtEKDECR6M7i1LKnyuvvDLmnXfeWqcZ6cnoE53KJ554YroPPzrTuL6sadQvQQrmlPNzzDFHfPrTn46vfvWrCffZZpsttYuWW265ZNZI5w3WY1mQYgUD9+nIx9qAjhlELJ33WNEsvvjiScAussgiKV+Rnr3EviyCFAH1zDPPxDe+8Y00UnnIIYcEG2VO0TFy+r//+7/JC4yxUGrkaHMizOgU43rEf3ZvfOMbg9HVP//5z2nKDNNm6ITBdJ1jNtq7dPTgCAft3mYOq5Jf/OIXzU733F9B2mUB2cz0dqz+jpA2b3jR00pvKmY9jNqQOX/4wx+mCpDe1GWWWSY1RBCn22+/fWpEU4EhSDFXxKQxFyZ5f/jhhyehynMo2HtZ4Pb6XY6QNudWr9Oi0+/LgpRGHGIUgUlDBH/MHKngPvzhD6fKD8uBoiDlPCMT5AHKH+4jD9EwWXjhhYMeWUaZ6OFVlFaPQ4MgSK+++upUziMg6VyksUxDjE4TynAEKiP9cPljH/tYGvmBq3SmbLrppqljhQ6b4nbwwQensp/8gECikdfpfNmp5w2CIGUEjU6AD37wg3HhhRemsoJ6+de//nUSSJynoY74pBOY+hZRRDoijEgrxBFl1/zzz5/EEOKKYyyf6HygDdApTDv9nH4JUuIBdnmElM5EOgLomEfYM7KHH4L++OOPr6UF1zDqTP4h7P/zP/+TnrPtttvGfvvtlzoCyBdsWcR2GrPRnkeYyjaHlFFROrUY8WdaWBZY4JOPUXn8//rXv56uw/+d73xnOs/o51lnnRUIT6z1qFepi3HU2/kZtHEZXaVsKm7kJdImO/IE97z//e+P973vfSM2/DiHJUlZXI5fqyOgU7vOEdIuC1wFaeMGHxURI6L0SlFJUZFhwkVjmR5WepDI0JiWkNHpzaJQQJByjnkSFAY0YIobFSPPYI6FgrQx9qNVGp4rB2ZU3jRIaHxjss5/RpAQl8wtIs/QiUPjggqqKEjJP5jsXnDBBYEJe97++te/pt5Y/jNvD5P3Mo9QyMWxcXEQBCnlP6M4jHzCaUZtsGp57LHHEnexAqDBTb2AoKEBznw5Gnzkhw022CCJIPZ02lDus3GO+oBRVMzfyip4BkGQgv12222XhA2C9EMf+lAqk+gkoNxAkDIaREcBpoiYJTLyyXV0NGRBikBiRIq0ZWPEiDRjhLys6UPZQ5nLyHA/THYp25lHzWgYmJEHWDeDTkU6I7EqI9/QvqSzkfxBWiFamD/KyCmd+KQBacEoHvUB03sYkevH4lJlEaTwltFOxBTzoLGsyO7xxx9P/lloZX/anowy4xCj9e5tb3tb8mLNkzwn9c1vfnPNlJf02XfffacYQKETLZvr8gAsD+g0pq7GmqC4nXHGGaltm59fH4Z+/M84TU1otnpeQaog7VsPJZUavVKYADHaR28fJir0ljNnJW8LLbRQaohkQYpIZXGXiy66KBWuFLB5o7eKHi8mjitIx9agVQj0H7csSGlk//3vf0+94xtvvHHqmKHDhQY7Pd+nnHJKajBhtk7DkDyFICUf0ZtOnilu5AlGjtgUo/1P527ktbILUnhH45hRMspqynNG8xEoWMXQGMMChhEfOk9yZyR5goYdHZEs8EIDnYWPuBcRyvFqq62WOmgQRmUWO2UXpFlszj333Gm0mnoV/OkAYxSOMgXRxOIslEvZBJd0oO5lji9iCFFE5xgjq8wbZaO+/8hHPpKEVZnTiPj2S5CCJ4IU4cS0DTpYwJ6ORwQpHTksXkc+wqSa9Jp99tnTyDRhpgMBjjHCjRjlOeQtzHwxB6aToNfYg2cZRkjp5IWXOMQ6C3Q99dRTaaTyrW99axL59eIOvpMXcIyGUi5RXtHRguM+HGKRgRYW1aTzjFFqHHUzaZY7zvKe/EJeyY5ONPIHYaIjpLiBHXOGW1kQKT+v23sFaZcF5FhNc5vd5wjp6I0+THYx2UKQksEpXMm89MKy0WBjJGfJJZccMUKKiQUZfumllx6xUXCTaXmOgnR07LvRGPaZncGcypueW0aA4DMjCsxRofcbMUkFySp/VHKMmBYFKQ0VTHZpiLBoQ3GjF51nm06dSacy4lh2QQpmcBiTXLhI2U6ZT+OZegAhQ8OZTkZGiDK3uQ+RSgclIweYMLKuAI1tGogc05BjpI7RvTKmTQ5T2QUp6cOUGMQN5tOkBWEmfbBOyoIU6wzKF9IOgUoDGrNDRqrzCCmdDnQkYGrKxtx2OhMoy3otijL+rezhZj8EKe0WynymZNDBApfhOGKUvALX6ZChIyBbCmACj0UN5tKM0pEexJE9UzPwQ+SSbmykZSsYdPIa8CyDIC2KNEzK4SFmtF/+8peLp0YcgxnmvThEGGnxlre8JZVj+E0//fTpHPgjKkkzHNfgWEiJTh06Coob80kZWMmO0VKmKCA6KfcQzrkMxOSXMDhC+mwpPgvjZ18quEgNDYwsSGlQMJGfwhizBTYWTci9exQKZHR6A7OZbxaueU/vOwUMveZUglSsnSxUy/QsGgf0tLnKbvXEBZU3DQx6x1k85B//+Edq6LFQBZ0w5BMaFTT6WFQkm+zSwKPxSG8u86ppiLBhLsSWRzfKxGPD0ln+wgsaNnRIIPTKhi9lNGUWcw9pdGMRQ3nOqCgdipjqYsqGKeIXvvCFNIKaR/OpL6gfWAyJBT7Ycy/TPViFGrNexI6CdPycAnPKl29+85upTKFsQXRifUE6cFwUpPAMMQX36EDjXhrUrJpPXU46sVGnM1WHTgUF6ZTpBO6MfNIhiSjB4oX8gskm1gR01tAZk81vEai0fxhBRaRS3lN/kB4IUkQSHTXZBJ68kc/3smwoiyBlDRJGRrEwYiSTDUGK0KTOxT9v1LcMNlGmYrGHY24nLo9aY4nEqCaO+pr2Z3ZvetOb0iEjsMwXLY54ckxnMvV1dphSY47Neip0CJGeTK/BlJfn0gFBmVcW5wipI6Sla2CMp1BjhJQKi0KSEVJGfBCceYlyRntYaZeeQeYcUdFhEsQIKZkfkwd6xNnoNUSg8ckXnokoReRWVZQqSKeszMfDxTLdWxSkjCrQkKOhTeWJSSOND/xpFFLRZUGKAOEaLARogPAcNvzZMJWjY6dMcTUsneVx2QUp6Q1vMTenM/Lpp59Opm8IUBpb8JWpHMyXW2211RKPM0fonGG+Kea5bJT/jGzQUOMYiyTqAMRQvqeMe9KIDiNGPcCijGEkTJQVWZCSLozo0JHQTJASL0wWsyClXKLRjWDKdTr1O/OFXdSoeb5HSPI5EvCjswVew3fmjbLaLgII03XWysAUl1E3OgMaCdJf/vKXqQOAzh3yG52ZmIn2urMK/pRhhJTRZDgJvmzwkO+PIq4ogzBnzucYqZw8eXIqqyhfXnzxxdQhgyDEUoO5kcSJkVYc6YGAzC4LUt7Jp2HoaMvPppOAzgJGRHG8h/nXOEzbcaQT84KLjnCSz8rgFKQK0tJWXu1WqghFKjZ6yWlg02OK0GSOHKKSjQKY5f+ZR0Qjg/kTfBeNipGChEKZhg3+NMxZ3Y8G+3nnnZeex8JIVIDthm0QrleQNq/QByH9RgsjlTe9tTTs6IjhPzynJ5eKkeX8GSnC/I25RjRcaMSQRzDrYZSCSiu/gzxAz7uCtLqcyWlNupd5hLQYThpnjJ5R5sNruE7Dmo5EGmo0vLkebiPcuGaTTTZJDTXKesxF4TsjHvynAUeeKZr55veVaU8aDZogpfOYcoZPW+T0qB8hJV5ZkGKhhOCmA4GGPmnMhhhFHLFYYZnFOGVuP0x24Skd9AgWzG3pnGEUDr4wTelHP/pR4jsd8uSXbAlGe6CRIOUZWMdwHWnI1msxSpzKIkjrhRxlJfPZcQgsRqTrHSOldAyQJlie4OAwLn/ahWPaq5jmZlcUpHmENZ9jj8BljjWOTrX8SZcs9PDHEgTHSDgrVOM4z8htv10OZ6uLFk3tOhc16rLAdQ5p4wYgDWTmELHYAZkQcy3MEvCnsKRAZqOQpdJCWGJrT2OFiowKDrMfeqa4hnsQqlR4CFxGUSlAymwSNN4GkoK0MbfGi2sZ7qfypgGCeRuNbRre7GkQYk6EKRzcx49GCnNDGTHlo9lYB9DoKMYjC1J61x0hrS5vSPNBEKTZaoXRBUY4EZHUBcy/otx+73vfm8p7RvsxkWPUgg6Vv/3tb6kuyCuwY+JG5wzn8Msb1zEqUcwDZToeNEGKeShh5hMwjHSCN/VyM0FKpwENc0aMGAWiM41OBjYsnpiXysgdHcc8q0xpk8PSL0EKHoyyUeZT3iMmGdkEUzog84JGdMgznxeLAPhOe6mZICWd+i3+yyZIEfN0eNFeLDrmfbIYEdYaTJXBveMd70hWHAgwcD7nnHOSKMR0mnKLwRTSi/OY52aXBSntUFbi5RqEJxuDKbRT82JJWZhyL88h/2Cmjfk2bV9GcUlzHOUn4q3fTkHaZQHZbHGisforSBs3/shQVFJUSvQAsnARPX+MhOY5RTQ02OhBp5eVEVBMLWikU1gwukpPba5AyPQ0til4aZjTc97vQjiHrRt7BWljbnUD614/k8qbxUAwl6OHlG+V1W8sasQ8I/IN4hQTXcob8lJ9RwyClDjMNNNMqVOn1/Hxfb3jatkFKQ1uBA7WMIgVuEkHCpxFjGKihgkinYyU8XCc6RdYB8B1RkmLGyOjxf8cY7LOSF19PigLDwdJkDJdAIskOoFZWI1OYXDM9SxCKdfDOV40tqmr2SOSEE3FjVFW0onRqbKmUb8EKYKH+Ym0c+hggf/MHQV3zmE5Rv4Bc/yySTTtAUZNsTog7KQR17CqLO2hfreFyiJIwRMhNcsss6S6spGoQwwiFLnu5ZdfTlZ6jFLTAUw9y0rFxIcBkNdeey3V0aRL0VyX52bBxuALopY2L51ubExRI+2ymW4xHKQddTl5jo1jOuXK5nL8pjby2ep5R0i7LHAVpM0bYojSXEhyTIGKoGSjIVLcstDkeo6p+Jo1LvIoK9c1u6YK/grS5tyqQvpS4cFh9qNtNFKyCRacIC81ij/5glHURuf0qw6Xyi5I4RqiNHco5s4S9oSdRnRRpMB9OE7ZD79b3YrPKBu/s3Ar+xxS0gkxyhxQ0iHX1xlP/mcxmv1yGraSXmVOI+LbT5Ndyn7KcvAkHTK+5IXif8KZz5EWxf/441efbvn6Xu4JVxnmkPZS1DEKi0PUstJuI8dn3QbVKUi7LCDHOhLa7D4FaXUaer0svFt5l4JUbrXCE68ZLp7QgB2EOaTDzMtBEaSkUVH8DFOa9VOQVhHnYRSkgyo0Ww23glRBWusNq2KhZZxabzwrSFvHSl6J1bBwQEFafq4PkiAdlnxTH08FaWfzkYK0VZk3ONcpSIdIkGKawRwMPmjcqpmS17Vu0jXoWMELFgNhgj0mmzRy3MRADgw3ByjXmJ/EJwuY7zTo5VwVw8+cWRbxI43yFBTzbbnyLe0vFpZjFXO+AlBFHvYyTkwXYeV4FrbSVQMBBemQCFJszpk/wMRqJlKzcIObGBQ5wCcO1lxzzbQKHxPe+TC8mxjIgeHmAEKHOoPF4Vg0qFhmeFyOOoSym5U2WYyM9DLPli/PsvAMCzbx2Tk+nWLeGV/eYYVZvpm62mqrpQX7mE/qNpgY8PkbFltUkA6JIH311VfTUs8k+NJLLx1f//rX3cRgBAf4rhXfdGOlNlbW4xMJbmIgB4abA6zGzKeApp122tSYtu4oX91J2c2nT2ik07gzz5Yvz7LKOek0/fTTx5JLLjmi7jVPtZ+nwJAVtN/97nenrymwirDb4GLAFwAUpEMkSPn+0IwzzliNsX1j0RUE6MG99957u/JsHyoCIjCYCOTG9GCGfjhCzfc8f/vb3w5HZAc0lltvvXX6hNCABr90wea7qlgG6KqBgIJ0yAQpH8PViUAzBJhDylyXyZMnR6vfevK658XqeTGoaj6grGDeG99w1pUXAb51iGULrqpcHOR4kS6Y6vKtydHcK6+8Ei+99FKw5zuKOL5NiZUbfuz534rL97Vy7SBew/dn11hjjUEMumFugICCVEHagBZ6DSsCClKF1SA3+gx75/lLWaggLX+NoCDtPPc7WZ7AoFYEKet9sBUFaRam5Wdhb0OoIO0t3t1+m4JUQdptjvn8AUJAQVruRk0nG0g+y7RuhQMUXwrS8hfiCtJy52cY1IogZQRUAdpaflOQtobToFylIFWQDgpXDWcPEFCQlrtR04qA8BrTsJMcoNhRkPag8B3nKxSk5c73JG8rglQx2npGUJC2jtUgXKkgVZAOAk8NY48QUJCWu1HTSaHhs0zrVjhA0aMg7VEBPI7XKEjLnZ9J2lYE6TgoMHS3KkirleQKUgVptRhtbMaFgIK03I2aVgSE15iGneQABYqCdFzFak9uVpCWO99Dgo4L0tciXmfrCcOm8hIWYHr11f9ur73e9YApSKeSJgN2WkGqIB0wyhrcbiKgIC13o6aTQsNnmdatcIDyRkHazVK3M89WkJY7P5PKnRakTzwYcesdEQ+/EPGfBXk7Q6axPOWROyJumBhx3cSIa6+JuOvRiBe7K5UVpGNJqPLeoyBVkJaXnYas5wgoSMvdqGlFQHiNadhJDlAIKUh7XhS3/UIFabnzPQnaUUH6QsTZl0Rs/YeI3U6POOOuiMlts2YcNzA0y+dn0sjoKxGn7hNx+KERx/4x4sj9Ig4/L+Lep//9Aq5LI6adFagK0nGkXwlvVZAqSEtIS4PULwQUpOVu1HRSaPgs07oVDlAWKUj7VSK3/l4FabnzMynZSUH60PURf7og4qKHIh6/P+KEMyJ2PCvi6sdb58yYr3z5hYiJZ0ac8ueIU07+93637SL2Pzji6GMiDt8n4te/jTjiuIhTT4446fiIC66JeOTFMb+y0Y0K0kaoDK6fglRBOrjsNeQdR0BBWu5GTSsCwmtMw05ygEJGQdrxorbjD1SQljvfk+AdE6T/jDjh9IgVfh+x0yURDz0X8ffbIo47NeKiXghSRkX/+UDERX+IOPnaiHsfjHjg/oiHHo545JGIvz8Ycf8DEY88FnHxsRGn/SXituciJjtC2vGMX6EHKkgVpBWis1EZLwIK0nI3ajopNHyWad0KByhTFKTjLVm7f7+CtNz5GQZ0SpDeemnEiZdGXPZgxFVXRBx8SsQWJ0ccOCHi+e5T7d9veOWFiBuOiTj3wdHnit50UsRFl0Y82vmAOULaeUz7+UQFqYK0n/zz3SVDQEFa7kZNKwLCa0zDTnKAIkpBWrKCukFwBkmQvvrqq1Hk6EsvvRR8f7PoVzx++eWXo/4erp88eXLTe4r3l+GYJOuIIH0w4uCzIs6+5z8kmBxx2YSIvf4ccemTDYjRLa9XXoy48diI8x+OeOn1iEcmRFx4W8Szr0dcc3LEjfdEvBIRt5wccfGEiMc6H5DxCNLddtst/vCHP9QCtdRSS9WO2zmYb775Rr385ptvTuk+6kWeTAgoSBWkPcsKVDpFd8ghh8Rtt91W87riiiviiCOOqP0vHrz22mvRaCteU7bjxRZbbIog7b333nH//fdP4V8WDwWpYma0xht5+MUXXxyYRuBocfFca1ynbBokQfrMM8/E9ddfP6JIveeee+LMM88c4Zf/3HjjjfHnP/85TjrppIbbfffdly8t9X5QBCn1+MknnxwvvPBCKkcoUx599NH43e9+l/Ctz5eI0SuvvDKlUTEBuP6mm24qetWeWf+MMvwnoJ0QpBefE/Gn6yIefPk/UX8y4qJLIg67JuLVEWh0+Q8jpDVB+lrEHSdEHH1ZxL9eizhzz4gLro94oVyClLw8zzzzJGA23njj2HXXXdMxXHrjG98Ym2++edAG2mSTTWKPPfZI5x544IFAKNVvM844Yzr/lre8Je2b/XDfT3/60zjvvPPijDPOSNtf//rXOPfcc+Mf//hHs9uG0l9BqiDtGfEhW7Fy5/g973lP7f2cv/fee2v/OSDj4s91FADF7d3vfnc6t9122424J/+59NJL8+FU9/S2LrroolNcN3HixJhjjjmCXrC8LbLIIrH44ovX/mf/L3zhC/HLX/6y9oycuWoeEXHZZZelMBf9OKYXrQxOQdpaI70MDZxeh4GG49133506VBSlw8MTyqVBEKQ/+tGPYvfdd48bbrghlc2EO5fBW265ZWyxxRYNi9jZZ589DjrooDjuuOPimGOOqW3HH398MAKz9tprN7yvbJ6DIEgpNxCiM800U4KPMgz3gx/8IGadddag8f/KK6+M6PDi/E9+8pM4+uijgw7dffbZJ6UXI1oICMQEfoiLf/7zn6UVpcRjvIL0hTsjDj0n4spHEmzp57aJEcedG3FDZ9cL+u8Lmh2NEKSvR9x+QsQxl0U89VrEWXtFnH9DBGEq2QgpafCJT3widtxxx8Qnokc5MWHChDjqqKOCfL/ZZpslPnLuzjvvrJUnjaB4xzve0cg7+fFcyg/KJjjOtvrqqyc/zl1wwQVN7x3GE7m87lTbhnb98ssvH88OgM6bZhACWR9GwB3NtKVZQmLuAvmnm266vvF80qRJKeMTRoj3tre9LT70oQ+lY/5zjB/Hv/3tb1M4//KXv8Raa63VNMxHHnnkCBGYL6SS4jkULq24d73rXXHhhRdOcenf//732HPPPeOAAw5IGyYe3/72t+OjH/1oKryyP3vCTC9YdhlrKuG55547GDH9/ve/nwq6b33rW/G1r30tll122XT5RRddFAsvvHC+tW97BenwCI1mZUUzf0i54YYbxvbbb5/42ew6/avFIRJ7EARp5iejbTT8/vjHP8bDDz+cuDrzzDPH+eefH3fddVfq9GSfHR2KK6ywQqyxxhqpsUiDkY1G5EILLTQw5naDIEjB/PDDD49f/OIXGf6gDl9mmWWCkVDqVRzHuRzhP53CjKxiQcVINqPdP/zhD1MHxOmnn578sLh68sknqytIX4g45ayIM2+PeOa1f8P30sMRZ5wfcdKt//7f099RBenepRWkGSME6b777pvaiYyG5tFSztN2zIMjlBW0zVZZZZVYbrnl4utf/3osuOCCcfDBB8c73/nOdO2b3vSmtEfs4h577LH0H8sLeFvveP6hhx5a7z3F/3qrwikuqJgHuOBy3h/vXkHaZSU+yIIUohVHSHNeIlNDvEYOoQZJR9sQjPXurW99ayowZphhhvpTU/xH9H7kIx+Zwr+ZB720Sy+9dLPT8cUvfnFEeBGxt9xyS+q5x/Touuuui6uvvjowI7v22mtrz6EyvvXWftQstSAkcxU6DgZpbs54C61hv5/ULzYAKcSpRHOeLFaojDIx9wY37LgNS/xJ67ILUjhLHUEZOssss6RjyvTpp58+cZVzWLbQsOQYAZrdAgssEN/97neTwFlppZUibzRAv/KVr8RWW22VLy31flAEKZjefvvtCcvTTjstPv7xj9dwpUOX0avcEKcj/eKLL4711lsvXUP9iZhFTJCWdFZjOhT9mAAAIABJREFUIbXNNtsks98y11tEYDwjpE/dHLHh4RG7Toj4x3/MdSdcGnH0JREP9vQDpP9JrhGC9LWI2/8U8YdLIp58NeKM3SLOu650JruEnFF4hCXlAJ0j2WyWAQLS5zOf+UytjuN6Rki//OUvx1NPPZXuoX2EpVvu1MplDKOrO+ywQ3oez2YqAI7jLD4PO+yw9P/yyy9P50b7+d73vpeuHe2aqp0DK1yn6lYFqYK0YR5hrugJJ5yQhBgXbL311vGGN7wh5pprrtRQ+PznPx9sb3/722PdddetPQOT3RVXXLH2v/4AU508YpPPIfQysdk/+OCD+VTD/WyzzZbs+RuebOD5m9/8JjVUiuFscNmI0WjmzPztb38bcRmjskV3zjnnxGc/+9miV8+PHSGt1ujW1Ap2CIY5HObtiFIKcMwXGbXAbbrppom33/jGN+JPf/pTskZQkA4fR8ouSHNBmRuNiB4anjisUYrz+XPdAMcZCcV6BZNeRA1iJ2/bbrttrL/++ql+YjQOMVRmV3ZBiikujXnqeCyPwJfGPy4LSY6vuuqqYDoOJro4THN32WWXdMwo1k477ZTmCDOd5pprrknTXRhhRSTUm/tOrfzr5XkiMB5B+sjlEb88NWK/cyNOvDLinEsjDj4/4px+LUlRL0ifuDVi4oMRL2C+e2nEPY9EMDh4c3kWNaLjifzP6ObPfvaz2jxR0oaBCc4VFzrCH0HKdCxcI/NcRkdxTBfIdWPyKPzwXAZJEL2tOjplchnW6j2Dfl0umzuVLxWkCtKGeQJB9p3vfCemnXbadJ65lj//+c/TfDTEKhujp4x2Ioqyw4wWktLr/YEPfGDEls198+TzfA+jyMwtwfEs3juay5lgtGuK5yh4MNtAkHIvormRKxZe9JAtueSStcuI1/ve977a/3zQbljyfZ3aK0iHT2zQWGexhTwSyohQbgAuscQSqUF+xx13pLzKuVzpdqrS8Dnl5hxlyyAIUoQk5SejD1/60pfSFBDmhTIC98EPfjAVkQgfFi/BsfjRE088kTpj8tzRY489NjABzf+5nwWSHn/88bSYV7qxpD9lF6TAxqjPnHPOmcqSvN7CBhtskBBFTNIpe8opp6TRKMQmo0zU87/+9a/TNVgnMVqKoGBaDht1K2s6IGSrLEhfnhRxwGUREy6POPDYiB8cGHHI9RHP9YuPWZBe+GjEaJ8Xve20iEvKscou+Tg7eMQ0Kzqd3vzmNycLiXyuuGcklIETHOVL3vKCWnlqFiP18LHo4DLTBVj4iLIFcctcVUb96QSmDNL9F4Hc/u1Um0BBqiD9L7saHGWRtvPOO8enP/3pNE8H0yi2NddcM62AxoTy7JgrQqOY0RsKk+LG4giIWsx3ii6TOvvV/8/+7GmgjHa+eG0+pnIkTDhMbLk/F1j4UYnSaMcfAc58JhwjwtkxKsXKa/WOe4orD9ef7/Z/BWm5xUGnCur8HPjECBL5LAtSRoqy6KTjBbO67DTZHS5+wBNc2QUpi9kw2olj7ihCMh+zz2Z1zD8sdgxyjtE41hrgHqwAaDwiSjmmbplah2Z6UQl+yixIqb+ZfrPaaqulOr9Yx+V5ozQeMWksWjyx5sKJJ56YRq+BGB4ymk15deqpp6YNEYvQrbogjX9F/PbMiOPOiTj7koiDr4m44f6IO+6OOGZixJ9u+M92fcRxN0acNbph2PgZ++qLETf9MeKosyIuvTziyiv+vV3xnz3/r74m4oT9I86aEPHE+F9Z/4TxfPblkUceqU1LYZpVMwdX559//nT6ve99b9rTpssreeeBBVbtRXSyqNqnPvWpNJpKe26dddZJvIejlD1sjOhzDm7r/osAmOBy+2S8ewWpgvS/7Ko7oveyKEgx0UUAsQoZGz2lZHzEWnZ5hJRRHCaSFzfmBNGYwIQ2OxrPkLp+o0e1kaOHKmeCRucb+SFIMWEsOuLCKC6O+aX0uuVGUL6u+B56zTA5qnf01F1yySX13j37ryAdLsEBsb75zW+OEKSMXGRBSh6jN5e5XDgF6XDxY1AEKR2VTO3AOoZyltEP5onmuVssxsV8MeYdYppXdAgiFqqj3KbRSBnMHDOE6Lzzzpsak8Xry3pcZkFK5zELvbDAHyIT011EKo7GO47GI2bUdFbjuOe5555L9SEiFMeIFmmMuS/WGmyMTDEPmHUZqjxCyijk1ddHXDAx4sE8sPZ4xOl/i9jglIj/Pe0/26kRG/8lYrcbEmTd+3n91YhHrok48diIo4+MOPqoBtuREUcdG3H1Xf9ecbfDoWlXkGL5U982HO0/o6OY6mPqi8vik/YfgpZOFsoMHG1YFjGC43ltkGKbL11U+EHUKkgLgPxnBBqf8QrRfL+CVEE6kmGFf0VBSqOXEUIWN6CniY1KijkiNB5wNILJsFRgzRzikFHS7Fg6nl7WomMuSjYVLvrn49EKjXxNcd9IkBbP52PmDBQdc1UxQ8I1eyf+/VzYSEE6XIIDLjLazzfRsqOnN3fyIEipdBWkw8WLXKEPiiBlvhWCjPKTRiSjZXRw5vUHEDeca1Tu0sik04VVeJnn//73vz+JG3h/4IEH1hqjOX+UdV9mQQqPSAMcQp+6nvYAfnndhHpByj1YbZAuWZAyPYeNUStGothIbyys+I55pQVpWYnXx3C1K0gbBZUygXmjeZ5o/TV0gjBqT4dHXsySjioc85uxpsCtvPLKtePkMUo7j/N8YWE0QYqobTaQkp9ftX0un4v1z3iOFaQK0lHzCCvq4sjg2N6TsZnvw8ZCFHxvlI8S41j8gFHHz33uc8m892Mf+1j6fhnfMKNXG39GJpkjxLWslpYJnR5Q+ME/m1gUvNMh5zD5atW1KkjrP5hMgUXvL4suffKTn2z4umbhb3hxFzwVpMMlPKAQC20gShnBYK43HSeYxuG++tWvps9FZUFKJ1JeHn88FYX3Dg7P4EHZTXYJIyKU+aF5MZziFAnOU7ZiKlfvsAbA1I4N013M8mhk8p8GYaufDqt/bq//l12QkudxWZByTAdAntLSSJAiMIuCdL/99ktz2lddddU054/FpjDVph1AZ6+CtNes6+/7xiNIWbOEMoF8g2OFXP7Xf78e6zw6UOaZZ540/5NrWc8Evhbba7RJ6RQpOs7TacInF4sbXGXlXurbZo64Ya0xTC7j2an2gYJUQdo0//BdNwjHQhKIQyoa5nDmb63Sy415BHNCig6zHcwKs9kE5xB3jIbm1UDxG+1zLFRamFQ0csxdLY6yNrqm6NeqIG02Kssc2WK487PBo5lQzdd0e68gHRyh0IlCmxEKGnGIUubRYAqH2TsjQzhGHlgkJpvXIUZppFPQd+L9PqP8fIMHgyBIc9nI516oZ+BudrPPPnsakaCBx5yu7KhH+J+njTDVgmklWAngl+d/0VgtuxskQZrnkDJ/HfHPSGgrgnT//fdPdSfthqeffjpt3Eu6ZcuispYp8Gc8q+yWnX/9CF+7gpRFhRhhZ+CDfP7QQw+NCDaf55txxhlT+cG0qrxqN+KVzi7aaJQtdOCyOjeLFuXP/PHMese1dLjQCVPc8tQC5rTr/osAeOE6lYcVpArS/7KrcITJDT1CuDzymefpsGfDFp8ebOaRYkJIoxiCMk+0kWkDlRpzf7gmP7vwyrYOc0Zo5SYaJ8xZaeZotFNY5e+r8XkXnp83CrZ8zJ4FGnB8fy3PPWj27G77K0jLLxA6VVjn52RTuswtCvEsOPFDjOZr+Z/PZT/31eYMaV52Qfroo4/W6oL8OS4sbWh8Ut4yypEdZS7WNpjiUd8wysaGOGXkjfN83zL7s2chkmyal59Ttv2gCFI6l2ng07GFlROOMoRyhTm/dIplPzrLzj777GRRxSeo6GzgHtaSoJ3AhhUHHQ7Ut6yOjEAtY5lEnBSkKWk79tOuIMUMn84L5n+O5ujwyGKRARQcAydFV1yxt+hfPK5fdbd4jrDcfffdRa+hP6bsxXUq/1KmIP7zoFeZ99OUOXDNwga4Y2kQYnKHyUBeorrXzK83iaURzKI+mDPQ60TY2GPycN1116XgMa/nySefbCmorXxoeLQH8e1FlqNvxRFGVmBs5pjTks1Aml1T7w8OuXKuP9fL/wrSaouLThX0Pmd4eEL5U3ZBSqdJI6sT/LOJebEczZ9sKPoN+vGgCFJW8eY7pHxq6v777699gxQRQN2PGW/uBMNqilGt8847LyUPYpMNoVrcaBPRxuH6spZNREBB2tlc1q4g7ezbfVqnEVCQdnlEs5mwHKv/oArSThO3G8/DPKNfDkFNpdpvpyAdHqFR1oab4SoXBymTyi5I+11uluH9gyBIyds4hCOCsl5AIkqzGM3lQL6W/3Rkj7ble8q4J94K0s7mFAVpZ/Hs99MUpArSfnPQ95cIAQVpucRAGRtWhmm4OELxpCAtUSHdJCiDIkiHtfwg2RSkTcg7Rm8F6RiBK+ltClIFaUmpabD6gYCCdLjExrA2Do136zynHFKQ9qM0bu+dCtLWOd2P/E9qKkjb4/TUrlaQTg2hwTqvIB0yQcoCOzoRaIYABfyDDz7Y7LT+IiACQ4gAc+z5GLyuvAiwQj2fRdGVFwHmz7Jglq4zCLAA1hprrNGZh/mUviOgIB0iQcr3lUhwNzFoxgFWo+Rj8qx6zIeb3cRADgw3B1ZaaaWYY445rDdKXnfS2cyKwJbd5cyvpM2HP/xh81GH81H+bn3f1ZQBGDcCCtIhEqQXXnhh+vYSrGH1WjcxKHKA5c3zghH9MGnyneU2OTN9hjN9KBP4FvS//vUv64wS15vPPPNMvPjii6VdZXbYyw/yEYtZmo860+5iVWU+4cL37XXVQEBBOkSClE+rTD/99NVgrrEQAREQAREQAREQAREYSgQ222wzTXYrlPIK0iETpP36DmmF8oxREQEREAEREAEREAER6CMCLmrUR/C78GoFqYK0C7TykSIgAiIgAiIgAiIgAiLQHQQUpN3BtV9PVZAqSPvFPd8rAiIgAiIgAiIgAiIgAm0joCBtG7JS36AgVZCWmqAGTgREQAREQAREQAREQASKCChIi2gM/rGCVEE6+Cw2BiIgAiIgAiIgAiIgAkODgIK0WkmtIFWQVovRxkYEREAEREAEREAERKDSCChIq5W8ClIFabUYbWxEQAREQAREQAREQAQqjYCCtFrJqyBVkFaL0cZGBERABERABERABESg0ggoSKuVvApSBWm1GG1sREAEREAEREAEREAEKo2AgrRayasgVZBWi9HGRgREQAREQAREQAREoNIIKEirlbwKUgVptRhtbERABERABERABERABCqNwFgF6aWXXlrDZfLkyfHss8/W/rd68Pzzz8ekSZNavdzrWkBAQaogbYEmXiICIiACIiACIiACIiAC5UCgHUF6xx131AKdhQ8e3/3ud+OEE06onSseIFx32WWX+NWvflXbfvnLX8att94a1157bSy66KLFyz0eJwI5XRD7ndhef/31WH755VOHA50OZd6mKXPgmoUNcAG53cR69dVX44ILLojppptunJTxdhEQAREQAREQAREQARHoHwLtCNLdd989pp122hTYLHxoF3Ncv+22227pumWWWSZWWmml2HPPPePXv/512rbffvu4++6746abbooVV1xxROQZMX3Pe94zwo8/s88+e6y99trJHwE844wzxvTTT1/b3vzmN8e3vvWtdJ6wXH311VM8Y4011khhmeJEhTxyurSrb5pdryDtsgpXkFYo9xkVERABERABERABERCBthFoR5Dy8L333jsuueSSJED5jwA699xzR7wXvxdffDH5LbfccjFhwoQR5/nDCOkCCywQs802W6y//vqx3nrrpWtuuOGG2rPzTW9961tj/vnnz39j1llnDcLNCCsjsGwXX3xxcC8OMZyFWb7pmmuumcIvn6vSPse7mcBs119BqiCtUv4wLiIgAiIgAiIgAiIgAiVDoF1BSvAx3UX4nHHGGbHjjjsmcfiNb3wjxexLX/pS7LzzzrVY/vCHP4wddtgh3vSmN6V7Zplllnj729+eRjB//vOfxyKLLBKXX355TSzefPPNtWMe8pa3vCXys/NDEaSHHnpo/ttw/653vStWXnnl2jnCe9ZZZ6X/DzzwQFx//fW1c1U6UJB2WUA2M70dq78jpFXKfsZFBERABERABERABESgXQTaEaSY2iJ4EIRZ+OT3YU6LXzarzf7LLrtsGsnEhHbLLbfM3ml/5plnxo9//ON0PMMMM6Q9Zrz52e985ztjzTXXHHEPf3j/8ccfP4V/0YORQJ7z1FNPxeqrr55GY/N5nonQraLL2LU7EtrsekdIuyxwFaRVzIbGSQREQAREQAREQAREoFUE2hGkX/7yl+Oee+5Jj87Ch3VVll566ST+zj///CleiyC97LLLAvE577zzppHNvADSscceGxtttFG6h1FTXB4h/chHPpKeudhii03xzC984QvpHGEobnvttdeIa5nz+sY3vjFdM+JEhf/kdGkmMNv1V5AqSCucXYyaCIiACIiACIiACIhAvxFoR5AWw8oiQri55547DjjggOKpEcfMIWX+5oknnhhzzTVX7LTTTslkl4sQkLvuumu6Pi+WxNxSRNUWW2yR/Dneb7/9RjyTEdKjjjpqhF+zP9yPafGwOAVplwXkWE1zm93nCOmwZE3jKQIiIAIiIAIiIAIi0AiBdgQpIpERzU033TR9wmWbbbaJeeaZJxZffPFgPugmm2ySNq7hHG6hhRaKu+66K4nPPO/zfe97Xzq3wgorxNlnn52Os8C98cYbR4xoZoH62GOPpev4QZAedNBBtf+jHSB0//a3v412SaXOKUgVpJUitJERAREQAREQAREQARGoNgLtCNIjjzwyDjnkkDjssMPSCCXHCCC2k08+OY4++uh0Dv/jjjsuAffRj340XnvttWBxo/POOy/5sbARLosnjjGtxdULUvw22GCDEdciSP/4xz+m66f284Y3vCEuvPDCqV1WmfMZ03ZNc5tdr8lulwWuI6SVyXtGRAREQAREQAREQAREYAwItCNI6x/Pd0AvuuiitHotwq+RywIp77kGM18WG8ojpfjl880+z8J57sPNPPPM6Xo+B8PIKhuCNs9DTRf954f78uq62Z9Fjlj1t4ou49hMYLbrryBVkFYxnxgnERABERABERABERCBkiAwFkG6//77J0F4zDHH1GLBgkaIIcx3TzvttHjkkUfS52FYnIg5nHwOhsWN1l133bQS70wzzRQsiLTKKqvEwgsvHB//+MfTs/h+6VVXXVV7bj546aWXaiOsfHaGVXuLG/c0um/ixInx3HPP5cek/d///veYNGnSCL+q/FGQdllANpsLOlZ/R0irkvWMhwiIgAiIgAiIgAiIwFgQaEeQfvKTn0yic6211mr6qj333DONfLKY0SWXXJJMefncC0Jzjz32SN8sfeGFF5IJLw9BoG622WYxefLkps/0ROsIKEgVpK2zxStFQAREQAREQAREQAREoM8ItCNI+xxUX98CAgpSBWkLNPESERABERABERABERABESgHAgrScqRDp0KhIFWQdopLPkcEREAEREAEREAEREAEuo6AgrTrEPf0BQpSBWlPCefLREAEREAEREAEREAERGA8CChIx4Ne+e5VkCpIy8dKQyQCIiACIiACIiACIiACTRBQkDYBZkC9FaQK0gGlrsEWAREQAREQAREQAREYRgQUpNVKdQWpgrRajDY2IiACIiACIiACIiAClUZAQVqt5FWQKkirxWhjIwIiIAIiIAIiIAIiUGkEFKTVSl4FqYK0Wow2NiIgAiIgAiIgAiIgApVGQEFareRVkCpIq8VoYyMCIiACIiACIiACIlBpBBSk1UpeBamCtFqMNjYiIAIiIAIiIAIiIAKVRkBBWq3kVZAqSKvFaGMjAiIgAiIgAiIgAiJQaQQUpNVKXgWpgrRajDY2IiACIiACIiACIiAClUZAQVqt5FWQKkirxWhjIwIiIAIiIAIiIAIiUGkEFKTVSl4FqYK0Wow2NiIgAiIgAiIgAiIgApVGQEFareRVkCpIq8VoYyMCIiACIiACIiACIlBpBBSk1UpeBamCtFqMNjYiIAIiIAIiIAIiIAKVRkBBWq3kVZAqSKvFaGMjAiIgAiIgAiIgAiJQaQQUpNVKXgWpgrRajDY2IiACIiACIiACIiAClUZAQVqt5FWQKkirxWhjIwIiIAIiIAIiIAIiUGkEFKTVSl4FqYK0Wow2NiIgAiIgAiIgAiIgApVGQEFareRVkCpIq8VoYyMCIiACIiACIiACIlBpBBSk1UpeBamCtFqMNjYiIAIiIAIiIAIiIAKVRkBBWq3kVZAqSKvFaGMjAiIgAiIgAiIgAiJQaQQUpNVKXgWpgrRajDY2IiACIiACIiACIiAClUZAQVqt5FWQKkirxWhjIwIiIAIiIAIiIAIiUGkEFKTVSl4FqYK0Wow2NiIgAiIgAiIgAiIgApVGQEFareRVkCpIq8VoYyMCIiACIiACIiACIlBpBBSk1UpeBamCtFqMNjYiIAIiIAIiIAIiIAKVRkBBWq3kVZAqSKvFaGMjAiIgAiIgAiIgAiJQaQQUpNVKXgWpgrRajDY2IiACIiACIiACIiAClUZAQVqt5FWQKkirxWhjIwIiIAIiIAIiIAIiUGkEFKTVSl4FqYK0Wow2NiIgAiIgAiIgAiIgApVGQEFareRVkCpIq8VoYyMCIiACIiACIiACIlBpBBSk1UpeBamCtFqMNjYiIAIiIAIiIAIiIAKVRkBBWq3kVZAqSKvFaGMjAiIgAiIgAiIgAiJQaQQUpNVKXgXpkAnSd73rXdVisLERAREQAREQAREQAREYKgS23Xbb2GijjYYqzlWOrIJ0iATp+eefHyS4mxjIATkgB+SAHJADckAOyAE5UBYOILiff/75jmyvv/56LL/88vHsAOi8aQYhkPVhBFxAbjfBXnjhhZQoDz74YLiJgRyQA3JADsgBOSAH5MCgcuDhhx8OtkENv+H+b9576KGH4oEHHojJkye3rW+a6SEFaZeV+FgFKQmGKCWx3cRADsgBOSAH5IAckANyQA7IgbJwoJm4HIu/grTEgnQsCeo9nTEdEEdxlANyQA7IATkgB+SAHJAD3eeAglRB2rHhdjNs9zOsGIuxHJADckAOyAE5IAfkQJU4oCBVkCpIOzQhu0oFg3GxopMDckAOyAE5IAfkgBzoBQcUpApSBamCVA7IATkgB+SAHJADckAOyIG+cEBBqiDtC/F60dviO+zVkwNyQA7IATkgB+SAHJAD5eaAglRBqiC1N0wOyAE5IAfkgByQA3JADsiBvnBAQaog7Qvx7Kkqd0+V6WP6yAE5IAfkgByQA3JADvSCAwpSBamC1N4wOSAH5IAckANyQA7IATkgB/rCAQWpgrQvxOtFb4vvsFdPDsgBOSAH5IAckANyQA6UmwMKUgWpgtTeMDkgB+SAHJADckAOyAE5IAf6wgEFqYK0L8Szp6rcPVWmj+kjB+SAHJADckAOyAE50AsOKEgVpApSe8PkgByQA3JADsgBOSAH5IAc6AsHFKQK0r4Qrxe9Lb7DXj05IAfkgByQA3JADsgBOVBuDihIFaQKUnvD5IAckANyQA7IATkgB+SAHOgLBxSkCtK+EM+eqnL3VJk+po8ckANyQA7IATkgB+RALzigIFWQKkjtDZMDckAOyAE5IAfkgByQA3KgLxxQkCpI+0K8XvS2+A579eSAHJADckAOyAE5IAfkQLk5oCDtgSANnQiIgAiIgAiIgAiIgAiIgAiIQEMEll9++Xi2y7qsE8+fphMP6fUzlltuuVhhhRUCkN3EQA7IATkgB+SAHJADckAOyAE58F8OoJXQTL3WaWN530AKUkwEnnvuOTcxkANyQA7IATkgB+SAHJADckAONOAAmmksArHX9wykIG04Jq2nCIiACIiACIiACIiACIiACIhADYFei8uxvE9BWksuD0RABERABERABERABERABESgOgiMRSD2+h4FaXX4ZkxEQAREQAREQAREQAREQAREoIZAr8XlWN6nIK0llwciIAIiIAIiIAIiIAIiIAIiUB0ExiIQe32PgrQ6fDMmIiACIiACIiACIiACIiACIlBDoNficizvU5DWkssDERABERABERABERABERABEagOAmMRiL2+R0FaHb4ZExEQAREQAREQAREQAREQARGoIdBrcTmW9ylIa8nlgQiIgAiIgAiIgAiIgAiIgAhUB4GxCMRe36MgrQ7fjIkIiIAIiIAIiIAIiIAIiIAI1BDotbgcy/sUpLXk8kAEREAEREAEREAEREAEREAEqoPAWARir+9RkFaHb8ZEBERABERABERABERABERABGoI9FpcjuV9CtJacnkgAiIgAiIgAiIgAiIgAiIgAtVBYCwCsdf3KEirwzdjIgIiIAIiIAIiIAIiIAIiIAI1BHotLsfyPgVpLbk8EAEREAEREAEREAEREAEREIHqIDAWgdjrexSk1eGbMREBERABERABERABERABERCBGgK9FpdjeZ+CtJZcHoiACIiACIiACIiACIiACIhAdRAYi0Ds9T0K0urwzZiIgAiIgAiIgAiIgAiIgAiIQA2BXovLsbxPQVpLLg9EQAREQAREQAREQAREQAREoDoIjEUg9voeBWl1+GZMREAEREAEREAEREAEREAERKCGQK/F5VjeN5CCdJpppgk3MZADckAOyAE5IAfkgByQA3JgkDjw/mmmiQkrLhOnfmPR7m5LLBZnLvvdGItA7PU9AytIX3rppXjiiSfin//8p5sYyAE5IAfkgByQA3JADsiBBhxgqAzB9vLLL9t2boBPL7XEE08/HXddfHFc8MMV46XrrolnL724O9uEi+OFq66IUxZfREHaLXVNptKJgAiIgAiIgAiIgAiIgAhMHQHbzlPHqFcCkdHkAAAgAElEQVRX/OuWm+O8H64YcecdMfn667qz3TAxXpt0q4K0W2KU55qpepVlfI8IiIAIiIAIiIAIiMCgI2DbuTwp+PiNN8R5K60Qr98+KY2SMlLaje3VW25WkCpIy0N8QyICIiACIiACIiACIjC8CChIy5P2CtJnpzAjHtg5pOWhlSERAREQAREQAREQAREQgfIioCAtT9ooSBWk5WGjIREBERABERABERABERCBHiCgIO0ByC2+QkGqIG2RKl4mAiIgAiIgAiIgAiIgAtVAQEFannRUkCpIy8NGQyICIiACIiACIiACIiACPUBAQdoDkFt8hYJUQdoiVbxMBERABERABERABERABKqBgIK0POmoIFWQloeNhkQEREAEREAEREAEREAEeoCAgrQHILf4CgWpgrRFqniZCIiACIiACIiACIiACFQDAQVpedKxXUEaD9wX8fCD/97uaP3bpX6H9NkplW8nv0tqpipPpjIkIiACIiACIiACIiAC5UbAtnN50qcdQYoYJe3ytu7yy0e0KEoVpArS8rDekIiACIiACIiACIiACAw1AgrS8iR/O4L0leuviycnXBr/uuzSeGLCJfHsVVfE5InXxkvXXTPVTUGqIC0P6w2JCIiACIiACIiACIjAUCOgIC1P8rcjSBGeiNJXbpiYtlbFKPcpSCsiSJ966ql4/PHH3YYMg8ceeyxee+218pRcAxIScDO/DF958cQTTwwIQw2mCIiACAwvAgrS8qR9u4K0ldHQRtcoSCsiSN/3vvfVbLaz7bb7/9qxVxmLK664ojwl1wCEhM6bKvPBuI2e7weAogZRBERABIYaAeoxXTkQUJBOudbQNJ1cbKhXz+pVpkKQTpw4sRzsNRQ9Q2D66aePK6+8smfvq8KLnn766SRIqxAX49A6Ai+//LLp3jpcXikCIiACfUOgV23nvkVwgF6sIFWQtkVXBOk555zT1j1ePPgIvOUtb1GQtpmMCtI2AavI5Q888ICCtCJpaTREQASqjYCCtDzpqyBVkLbFRgVpW3BV5mIFaftJqSBtH7Mq3KEgrUIqGgcREIFhQEBBWp5UVpAqSNtio4K0Lbgqc7GCtP2kVJC2j1kV7lCQViEVjYMIiMAwIKAgLU8qI0gvWHWliEcejrjz9u5sd90R8cD9ccrii0SvplSO5z3OIR2FnwrSUcCp8CkFafuJqyBtH7Mq3KEgrUIqGgcREIFhQEBBWp5Ufvz6ifGnL3wuTl1soThlka92bTvt61+Lq1ZeUUE6HqU82r29ylQK0vJk3l6GREHaPtoK0vYxq8IdCtIqpKJxEAERGAYEetV2HgYsxxvH1197LSY//XRMfuaZrm2vPPdsxOuvp3UeRtNUZTnnCOkorFKQjgJOhU8pSNtPXAVp+5hV4Q4FaRVS0TiIgAgMAwIK0mFI5SnjSLqXRXSOFg4F6ZRpV/NRkNagGKoDBWn7ya0gbR+zKtyhIK1CKhoHERCBYUBAQToMqTxlHBWkz065gtJoyridc73KVArSKYk9DD4K0vZTWUHaPmZVuENBWoVUNA4iIALDgECv2s7DgOUgxVFBqiAdJL4a1gICCtICGC0eKkhbBKpilylIK5agRkcERKCyCChIK5u0o0ZMQaogHZUgniwvAgrS9tNGQdo+ZlW4Q0FahVQ0DiIgAsOAgIJ0GFJ5yjgqSBWkU7JCn4FAQEHafjIpSNvHrAp3KEirkIrGQQREYBgQUJAOQypPGUcFqYJ0SlboMxAIKEjbTyYFafuYVeEOBWkVUtE4iIAIDAMCCtJhSOUp46ggVZBOyYr/+Jx//vm1cxdddFFce+21tf9TO7jrrrvipptuGvWy1157bcT5M844I15++eURfv34s/vuu0/x2n/84x/xr3/9awr/fnqUWZA+9NBDcc011/QTnobv7qYgrefzCSec0DAMvfA8+eSTG77mZz/7WUP/sXiecsop8eCDD47l1p7foyDtOeS+UAREQATGhICCdEywDfxNClIFaUMS07guFgrrr79+/PrXv07X4v/nP/+5dt/RRx8du+22W+yxxx5p22+//eJ73/tefP3rX4/f/e53NX+E3iGHHFK77zvf+U7MP//8tf/F9+26667x8Y9/vHZutIP9998/fbuoeM3kyZNTeAlL3g444IA49NBDa/+z/z777BPHHnts7fZiOLIn4qKRfz6f9zyzV65MghTBDj533313iv6GG24YP/nJT2pQcI5r+u26KUg//OEPx7rrrpui+Morr4zgy7LLLhsrrrhix6L/6quvxoEHHtj0eW9729umOPeZz3wmpp122iBvNXNnnXXWiHA3uw7/RRZZJM4555x0CUJ30UUXTXmefJ+3+eabLxqJ41NPPbWnYlZBOlpKek4EREAEyoNAK22t8oS2syHZd999p2ij5rZqL/bXXXddZyPUxtNI93a+ZNKva/0O6SiJ2o3Pvvzyl7+MH/3oR7W30tAmo2T3hje8IR577LH0l4bxb37zm3Seaw466KD44Q9/GN/97nfj4IMPrvnvueeesffee+dHpP3aa6+d9jfeeGN87Wtfq50jTq04nrnQQgtNcSlE/fSnPx0LLrhg2hZeeOH45Cc/mRrbNJazP/uvfOUrsdpqq9WeUSwMCf/hhx8ejN5+6lOfCsTvH/7wh/j9739fu754cPrpp0erYS/eN5bjMglSwk+jf+edd05Reetb31qLEmLsb3/7W+0/B3RgzDjjjDU/MK/fSNtOu24KUsL6/e9/PwUZzmy22Wbp+O9//3vMNddcI6Jy2GGHxZvf/OYRfvkPgvGrX/1q/ttw/6Y3vSkuvfTSKc7R4YJQfO973xsrrbRSbL755uka0oD/ON5btH6ofwj8nmWWWeq9p/i/wgor1KwgSEvE6S233BLk5bxRuT366KNT3NvtdKh/oYK0HhH/i4AIiEA5ESi2wcoZwu6FirjXt1GL7dVuHdOhTLt+44037l7kpvJk4t4vkdnOexWkoyRkNwQpxMB8lpEY3Oqrr14bkcmmifkc5zfYYIP45je/Gd/+9rfT6Oicc86ZBCAjpfgtueSSseqqq9Zi8YlPfCIJEBrWvKt+o9Gc/Wo3NTjgmlbd1VdfHe9///ubXr7VVlvFzDPPnN77gQ98IPbaa6/4v//7vyQsyKRbbrllbLrppvGLX/wifvzjHzd9zuyzz54EbNMLOnSiLIIUIZLT6o1vfGPtOPsV94xS4+jpm2222WpI1KfjpEmT0nO22Wab2jWdOOiWEKIgJw5F3hbjnXmeRTjhuPXWWxtGiU4d8kwzR6dIsfOmeN3999+fOljoFLrwwguTQKQCY8QUk/u//vWvaSNsO+20U/HWEcf/7//9v2C0tJFDTBfjNu+886bOn+eeey7okOG+Sy65JO0x6y2WE8XnkY+KHUHFc50+VpB2GlGfJwIiIALdQYD6ZVhdP+NOO1dB+uxURbGCdJTc2WlBSoP3ne98Z9DAJHP8z//8T9rPMMMMaY+oe/e7352OEXk4/BgNueGGG+K2226L7bbbLv73f/83br/99rj++uuT3/TTT980FjTY23UIxDXXXLPl284777wkOK+66qqG9zz//PPJnzi/9NJLqSH94osvxr333jvi+jzyNcKz8Ofyyy8PBG23XVkEaX08GbG+8sor671H/EeQfuQjH6n5NSqE77nnnsSx2kUdOOiWIC0GjXDPMcccRa8pjjFtxtQ9u6eeeip1dJx22mlxzDHHxNJLL51PTbEHq9HMnzEdvvnmmwOzYcx0GWnGJH2jjTZKAnDllVdOI5uLL754nHTSSVM8Hw/e8fa3v73hueyJST0CGDfTTDMliwk6oLB64H72xAPMm7lG6d7s2vH4K0jHg573ioAIiEDvEOhVvdC7GLX+pn7GnTpbQaogbZ2tDa7stCAlQyBCiw4zQBq5zTIL4gJTvyOPPDL++Mc/xlprrZXmzP3pT3+q+b3rXe9Kj2SkZu65505zzmgcM7rEyOQSSyyRRn4YHcLcl1EgRl+amW4iituxd7/ggguSKePHPvaxYCQvmxwX48lxMY5nn312GuktXlM8X/QvHrdyTfH6sRyXRZBipoqJKenGRtyXWWaZZDq62GKLxfLLLx/sSc8vfelLKarMLZ6aIOVCntXOYlpTw7EbgpT5kPPMM0+KIyN+hPlzn/tcIPiIc7YS4PjLX/5yGj3nng9+8IMpuFdccUW6hxFDTGu5v2hNUIwTwpXzzdwLL7yQcN9xxx2DDhgc+DNfmzyFo6MJR95q5DDnJZ3I85iqN3OEg3yOo0PqmWeeqV1Kh1Yr7j3veU/kTq1Wrh/rNQrSsSLnfSIgAiLQWwRGq+PaDQn10pNPPtnubSOuZwpKr1w7cae98Ktf/app0P75z38Gln+00WhfTG1hTgXp1MUopr2OkDalXKQ5i3lxkVEua+kUIxrMj2Q0tOgYwRytMc+cNUbGEB7f+MY3koj76Ec/mkQm9vAIFRrjOAoIhOQjjzySGtdbb711MKo0ceLEuPPOO1PjmeeQmWis3nfffcWg1I7bybjcRAM9z+9krh33b7LJJrXn5QP811tvvWT6iF/xPeDMXNKpOe55+OGHp3bZuM6XRZAyAs6qujvssEPCinjjx2j5ZZddlvwwT8UMl9FjXCsjpFwHjpiZdsqNxuGxvoOODSosuEt4jzjiiGQZAJ/hNebpjE7Cd0bn4T+ClDnNONIxi0f+I2oR9I3cX/7yl2Qe2+gcfnTeIDzJb7yTOZ10/rDIFwsM4ejIwRXn+SaP//zQOXTmmWemUdgi94vXkNaISczayVN5ATIsA97xjnckHNhzzWiOcGKR0W2nIO02wj5fBERABDqDQLN6ZyxPp/M7ry6/3HLLpQ5ipl4xQMFUMgZFWHBwtGlYhIe6vBeu1bgTB66lo7uRo43F+fqNdVGaOQWpgrQZN1r27+QI6eOPP57eywhi0eVMkvfFcxwjSIqOkRVEX3aspls0D8Q8lmflgoLrXn/99Xx5ymTMSR3NNQtLs3to9BcbyMyRZXSWlUdxjCLlOZA0/PNcWd6TzQ6ZK0tjfGqOuYKYK3fTlUWQEkfMmMEppyH7fEznA+eKI53tCFKEXadcNwQpYctiFCuB7HL8+Y8ZbbHCY5XqLEjrecw5KspG7qijjkqjsY3O4cendn7+85/H5z//+fSMCRMmJM4zFzqPWmIhgJtuuummeAydCMXwMB+ad9Y7RkSpvLJpNia7xRHSqZn75uetscYatdW7s1839grSbqDqM0VABESg8wgU66DxPv3EE09MHac8h3qLdhnWekzHOvfcc5OVD1O/srUd767f8hoR9f6NBjTGG17eMTVHR3MOy7e+9a0pLs/n6VzOjmlotAG4L38NIZ/LewWpgjRzYcz7TgrSHIiiIOWzKFkcFjMLpMcx8skiKIyqMhrEaMkXvvCFNCLzxS9+MTWOGSXlXkwJyQwcMwrDap4cszG6Qlw+9KEPpf/5ExTNRlC4px1XL0jzvfWrldY/F9NLzJBxCNpWesp4RqPVRfM7O7EviyBldJzROFZlzotCkYakJWlKYc5ngxg5zyKoFZNdvnFZnxbjxa0bgpQ5n4QTIZm5S9pg9o5Qy5hQMXIdo8R0eBQFKZVjdswtXWqppfLfEXsWDWL16Kk5Ok0wscdheoujwwU3miAlfMUVkRGZ9WlAfmRhox/84Adp4SSeCQeyKTD/W50TTrkyWo9tCnAHfhSkHQDRR4iACIhADxCor3PG+krqF+pfhBjrmjAtDIeVG4Mv66yzTppSxlSz7OrNWm+66abaVKN8DftmU76K14zluJW4cw3tbPa5bV58F+1uzmEZVXRM6cG/0ZcpuE5BqiAt8mVMx90WpBA4iyuOs0OAsLAQjlU9cfkzE8yb49udRccCKDSo6x2CL5ty5nPF92S/+j2FDKahrbpmgrT+/vp3b7/99mkeHtfVn6u/N/9v9bp8/Vj2ZRGkxbAz6kwvZNHRCcE3aItuaiOkFPZg+NOf/rR427iPuyFI6wNFp0VRYHK+XqBhLZAFKUKRPJAdo+uIvUbuiSeeGJWD5C8+70IY6AhglWI6AaiIMyfz/PDcOZDfQyWWRWv2Y88noDC/zS5bDmBuy0q+uFlnnTV93ol3EFeEOXv+I16bOfIwo7LddgrSbiPs80VABESgMwjkumq8T6O+5xOEiNH8bXCsd5iuguUVgy177LFHHH/88bVXsS4CFk04ph+xMCCONkw+5jvro4WRQQvMg8fiRnsuz2NKDtfk+DQSpJzHuqmRY+2OZu9QkCpIG3GmLb9uClJGtYqjNUUiY4bLaAq2+DmjFs/TYMUxgopw5ByjokVHb1TxnnyukV8+l/eYIdLD1aobqyDl+Zg7YA452uqnORzgwfzZbrsyClJ6HnPnRI4/YovPfxQd39osihzSu35jbnGnXbcFKSas9dylcsoVXI4Po6B5kS/8co8m92KCwzfBmjmuyab19dcwZxfTI8yD4SuOPIxD5BL/3FFUFKTkUURkM8ciTZQzRUe5kAUpI6RjcfVYjeUZrdyjIG0FJa8RAREQgf4j0Ml6gQ5YvjWPw1IPhwUfbZKLL744TXG54447kn/+YREgLADp2P3sZz+b6vT8jXFEarMO43w/7WI6hMfiRos7Jsacz+1ojusFKXHBH3HZyPEJR843MttVkCpIG3GmLb9uCFLmVWJWCXGLDhNEhATvzOcw182rmOHHJHF6mZhXiG1+vo7n5FVWOeZ7i5zDJIIFjOjJwiafhvrUMnwOU/HZ2a/ZnhVzR/v0DD1mjFzlZxIGRqtYDRVBgT8b/8Egf1Oz/n2MEOaGev25Tv4vkyDl0ziY5+aFcxhVo7MgF36djPd4ntVNQYq1APxgfjSjfqusskr6bi1+u+yyy3iCPeLevffeuyYyR5wo/OGTS/k7otlkF9GbzYwY5SRcOPJvrrALj5jikEo838NJhC4r8uIY6SSvZDNlygk2/OlNbuQII3Oye+EUpL1A2XeIgAiIwPgRKNYz43kaU06YooI1H+05Ok5pl9LGZBoW78lbUUBi4ZQ7aFkX4rjjjkvB4Bksssm3vbvlRos757K5LWHkf70gZToQ/s2+4c66LZxngKbeKUgVpPWcaPt/NwQpZGb0kgZ8vcMOvThfrHiehVwYgWG+HBvH2cSveB1zTVmyOjuuQZCuu+66wehZq45rRxtNKj6H0as8WlT0z8cXXXRRWt2UPY4Mj7ggvmzY47Pl+GMyUe+YT1j8nEn9+U7+L4sgxUwUE5jiSs/MC6RTgrmjrcy57SQuoz2rW4KUjo7iokWsqIsgpYDvxhxJKs+8oFCj+BIWKibyIyOZ5JEFFlggXcoKvpgt5UXHWMa8VZe/1cv1mFPnUdhXX321lk9yfsn5BOuCesd3VKkUe+UUpL1C2veIgAiIwPgQ6FTdQB3FlKv86UBEJtPDiqvYM92k6BCbvJ86g85ajrGMy1ZM1Od5pJLPGnbaNYs7q+UXzzUTpJgfcx0d140cbWbO11utca2CVEHaiDNt+XVDkLYVgD5fzBw15i6WwY02X67T4SuLIO10vLr5vG4J0m6GudGz6RjpRmXY6F3d8GP0Ns9L78bz65+pIK1HxP8iIAIiUE4EisJrPCFkqgkd5qxjgeN76VjjHXvssel/rheKX0QoCrX86T7mj+Y2ZrYK4gF5Yc/0sA79NIo7n5LDv7jgYDNBSruAa7FAbOR22223dP7kk0+e4rSCVEE6BSna9Rh2QdouXlW5XkHafkpWRZC2H/PhviM3PIYbBWMvAiIgAuVHoJEoG0uomUrGZ8uyIMVSCKuh/HzWTmAqCvMpr7jiijTVhjUcWP8EyyLmjfKNUizAmNbCYp1Y9nGOT7NtscUWYwnWqPfksOWL8icSG0194VrCVHR8chH/bbfdtuhdO+azcJxnlLfeKUgVpPWcaPu/grRtyCpxg4K0/WRUkLaPWRXuUJBWIRWNgwiIwDAgUC/KxhNnrNZ23nnnNAWL57773e9OK+Zuuummsdpqq6U1DlhbgfVOWPuDUcjixoKcLGzEiCPmvvkc1xa/rV4M42mnnVYTvUX/Vo7r485qvfghnueaa66Yc84506cU2ePPdCHCR1xwkyZNSv7N1mdgPi333XXXXVMER0GqIJ2CFO16IEhHm0/W7vO8fjAQYGEl0729tFKQtodXVa5mnmx9RV+VuBkPERABEagSAp0sqxGkLCrIWhZ5gT++0Z0/xYaQY77laAteMq+UEdRWHZ9nY+7qWFx93JdffvlUd+E/2oZ5cnZch3ht5OaYY46mdaGCVEHaiDNt+SFI+ebQ1772tWQjj528W7UxYHEmCh0FaVtZJZ566qmEG9/lNI9UO4/k9F144YVrC1K0xxavFgEREAER6DUCtG065fhaBJ8IzI71F4qfKcOsl0WLDjzwwHzJFHtEXCMT1yku7IBHO3Hn2uICTfn1rCzc7Dn4M6LayClIFaSNeNGWH58qwZzAbbgw+O1vfxv0xOlaR4CVkcHNvDJceYX0ZmEInQiIgAiIQLkRaCamyh3qzoSu1bg3W9SIUPClCJ6DMC06VhTG/6qrrip6144VpArSGhk8EAEREAEREAEREAEREIFhRaBVUVZFfFqNe17sCEugRm6TTTZJ4pPn8U1w9mzNvk/KMxSkCtJGXNJPBERABERABERABERABIYKgVZFWRVBaTXuWHshOllFuJlj0aWVV145rSS86qqrxo033tjs0uSvIFWQjkoQT4qACIiACIiACIiACIjAMCDQqiirIhb9jDsr82688cZ9g5W4swBh2bdpyh7ARuHrJ7H6xihfLAIiIAIiIAIiIAIiIAJjQGCY287EnVFPFmPq5Xb44YenT8ooSKcuiBWkY8jU3iICIiACIiACIiACIiACg4LAMAvS+eefP/jMzAILLNCX7eijj+4bTUj3RoN7ZfNTkPaNIr5YBERABERABERABERABLqPwDAL0u6jW943KEi7aK9spiov8Q2ZCIiACIiACIiACIhAuRCw7Vyu9OhVaBSkCtJecc33iIAIiIAIiIAIiIAIiEBTBBSkTaGp9AkFqYK00gQ3ciIgAiIgAiIgAiIgAoOBgIJ0MNKp06FUkCpIO80pnycCIiACIiACIiACIiACbSOgIG0bskrcoCBVkFaCyEZCBERABERABERABERgsBFQkA52+o019ApSBelYueN9IiACIiACIiACIiACItAxBBSkHYNyoB6kIFWQDhRhDawIiIAIiIAIiIAIiEA1EVCQVjNdpxYrBamCdGoc8bwIiIAIiIAIiIAIiIAIdB0BBWnXIS7lCxSkXRakAOwmBnJADsgBOSAH5IAckANyQA7IgcYceLaLmqxTz56mUw/q5XO+973vxT/+8Y944IEH4v7773cTAzkgB+SAHJADckAOyAE50IQDDz30kNg0waaKWgKNhFZCM/VSo431XQMpSFdYYYU0LP7yyy/H5MmT3cRADsgBOSAH5IAckANyQA7IATkweXKgkXBoprGKxF7eN5CCdPnll4/XX389nn/+eTcxkANyQA7IATkgB+SAHJADckAOFDiAVkIz9VJYjvVdCtJCwilwFfhyQA7IATkgB+SAHJADckAODDoHFKRdnjzrCKmFxKAXEoZfDssBOSAH5IAckANyQA50iwMKUgWpJgOOPMsBOSAH5IAckANyQA7IATnQFw4oSBWkfSFet3pYfK69d3JADsgBOSAH5IAckANyYHA4oCBVkCpI7Q2TA3JADsgBOSAH5IAckANyoC8cUJCWWJC+8MIL8eqrr7qJgRyQA3JADsgBOSAH5MBAcwDRoasOAp0cgVaQllSQIkYfe+yxOPvss+Pcc891E4OGHLjwwgvjvPPOa3hO3phv5MBwcuD888+PCy64wHKhxPWGaVT+vGkadTaNLrroojj++OPjN7/5Tey1115uA47BnnvumZR1p0SpgrSkgnTy5Mlx8803x/e///3YdtttY6uttnITgxEcgBcrr7xybL755rH11luPOCdfzC9yYDg58Itf/CI23njjWHPNNWObbbaxXChhvUEabbjhhrHWWmuZRiVMH8pO0ujHP/5xrLPOOqZRB9Ioc36ppZaK+eefPxZYYAG3AcVgwQUXjEUXXTSmmWYaBelYP2Taj/vG+tkXBOmtt94a6623Xtxzzz1JnCJQ3cQgcwBeUGHSiztp0iS5Yf6QA3Igbr/99jj22GNju+22i7vuuktOlJATpNERRxwRO++8s2lUwvShjr3jjjvi97//fey+++5x5513mo/GmU7gud9++8WJJ55YHXvVIY+JgrTLI5qdFq3jFaTrrrtuEqbXXHNNuIlBkQN0WKy//vpx5plnxsSJE+WHeUQOyIG44YYbkthhdJSGdbHM8LgcdQhpdMghh8QOO+wQN910k2lUwnx74403xgEHHBC77rqradSB9AHPvffeO4488sghl3HVib6CVEFq5dWBwrEKDTMFaTkal1XgknGoDpcUpOVPSwVp+dNIQdrZNFKQVkeI5pgoSBWkClIFaeKAgrSzFaaiTDyrwAEFafl5rCAtfxopSDubRgrSLOOqs1eQKkgVpApSBakcsByQAw05oCDtbEO6G50UCtLyp5GCtLNppCCtjhDNMVGQKkgbNkK6UWn6zM4WyJ3G0xHScqdPp9Pb55nerXBAQVp+nihIy59GCtLOppGCNMu46uwVpApSBakjI4kDCtLOVpitNPa9RszLzgEFafk5qiAtfxopSDubRgrS6gjRHBMFqYJUQaogVZDKAcsBOdCQAwrSzjaku9EBoSAtfxopSDubRgrSLOOqs1eQKkgbNkK6UWn6zM4WyJ3G0xHScqdPp9Pb55nerXBAQVp+nihIy59GCtLOppGCtDpCNMdEQaogVZA6MpI4oCDtbIXZSmPfa8S87BxQkJafowrS8qeRgrSzaaQgzTKuOnsFqWXDutIAACAASURBVIJUQaogVZDKAcsBOdCQAwrSzjaku9EBoSAtfxopSDubRgrS6gjRHBMFqYK0YSOkG5Wmz+xsgdxpPB0hLXf6dDq9fZ7p3QoHFKTl54mCtPxppCDtbBopSLOMq85eQaogrZQgvfbaa0fEZ+LEiUFlnRte1113Xdx00021/9mf+0bb8nVV3itIO1thlo0r8Ju80MpGPimG/+abbx7xn3Pko2LeKl7vcXW4RBofccQRsc0220QjHpQtreE55X4xXPD5+uuvH+GXz+c6olm+qM8L+b4y7Qn7IYccEjvssEPD+q1MYSUs9eVGs3o5h5u0q7+H8qc+nfP1Zdz3W5CCVTEPNGrvNMINnHMeKBPmCtLqCNEcEwWpgrRhJd2oYCq7HwXsFVdcUauQKYCPP/74OPjgg5MfheqECRNi6623DgqzHB/uo6DmfKOtviDP91VtryCtjoio5yYcv/jii+Ooo46KI488Mm3F4+yX9+edd16tEXLVVVelPENjJD+XYwTK73//+ykaivka99XgE0JgEAQpZTqC+dJLL41TTz018XLSpElJtJx11lkpDsUGOfykbD/99NPjsMMOa7gdfvjhcc4559TyQlk5PUiClHQ68MADUwcweFLnXnLJJbHjjjsGdVA9xqTZCSecEL/73e/i9ttvT2l85513JvFNOt92223Jj7SnnKu/vyz/ifcBBxwQu+66a62N0quwwfOTTjoplfvgCU74Ubbn7eqrrx4hWAkbmG6//fZxxhlnpLT51a9+Fccdd1wpOgLAc++9905xyoKm3/t99903cTWHY7XVVsuHbe2XWmqpptevuuqqI87ts88+8fDDD4/wa/ZnvfXWa3aqFP4KUgVpaQvwdgtrKqavfOUrqeKiYqPyouH8uc99LqjAHnnkkVhyySVjv/32i/vuuy8VtrkynGmmmWLBBReMeeedd8Q233zzxZxzzhnLLbdcqvjaDdMgXa8grYaAaMS53Aice+65Y4MNNoh111031l9//dhwww3TnmM2zi222GKx1VZb1fLH5ZdfHh/60IdSHsrPpqFPZduPxlUOg/ve8HUQBCkNZ7hMg/nkk0+OZZddNnU6fvrTn071AHzeYostUhlOQ5xyH/5QRyyxxBKxxx57JLGw//77R94OOuig2HzzzWOjjTaKW265pdT15KAIUoQQ2M8888y1+vTee++NZZZZJmabbba48MILp+jgoqxZe+21Y/fdd4/tttsubbvssktKN8oshCz+W265ZepwLqso7acgpW201157JT7f9f/ZOwuwu4m0DQOLy2KL6+LuxSnOwu7iFHd3d/dFi7tDKcUdWpwCxWVbnBaH4oVCC9X3v+5h3/nnS8/59EhOvmeuKyc5k2SSuefNZJ6xDBwYBOmcc85p++67b2C7xx57GEJnnXXWCc+E560ffvihzTLLLMY7gHSab7757OWXXzb8SRdf6vF85EWQfvzxx7bxxhsHQYc9nnPOOWH7xhtvtEkmmcTOO++8IOpPP/10ww/3xRdfGOIru0w33XRh/4QTThjW2R8qE6addtom3s8884ytssoqTfz8D2lNr4kzzjgjpC/X6969e7gfKhpYCDMvToJUgjTXL1rPGFuz5kXHMv3004ca16WWWsqWXnppW3PNNW3hhRe2+eef37p27RoEJwWV3XbbLbwUaTlaa621bMSIEfbdd981WYYMGWLPPvusBKkmfGno58QFKYX2zz77zH788Uf797//bdSuUtjgGaD3AAUX/FJBSq8Dnp1BgwaF54tnjIL8rrvuGl62VGTgl9eCYGvyDh1TXtw2giDF/qhkPOCAA+ypp54KFS60VvTp08c+//zz8A649dZbQ2snrf/4ux1369YtvAsonFMh4wvPChWRCNl6FLjbYpONIkipODj77LODyCffQNhQGbDBBhuEVrcFFlggiBwqDTz+VCYvuuiiQagiRMmfaGncdNNNQ9pQwYwfBe9+/frlNh+qlyDFNqhcQXRutdVWoXWae0HEIC55XqgIoKfA+uuvHwUpx9BzgEp83hm33357qEg48MADg4ilQpIFIUvYpK2nWS3W3F9eWki33Xbb0BhCxcjFF18c9B3iipZ9BCl+lDdnnXXWsI/37Morr1xWB0422WQl96277rr2yCOPNBGy448/vk0xxRRN/KjAwdGNf8kll7SePXuGHiKkIX4sPXr0sPXWWy/0fip5sTp4SpBKkNY0E6lmRkWBmBo7L2zwsqOFlBcaGSfdEXkJkkF7zR6FEl5if//730NL6GKLLWbpQusqYnaXXXaJNbrVjEM9w1YLaflCeT3TpRLX5uVNNzm67FDpwsuRSpjtt98+FOx22mknm2aaaUL3dl7yqSCl0EJBkUIilTMsdO/iXFonEKz40VVSorR4NpR3QYrNYY9dunQxurpRyFpuueVCQZpCN3ZLLxcK44hPWvupTOG9gFjFj/8IUVo4fEGg0tJKyxutQ6lIqsQzWckwGkWQ0mJDL6SHH344VCAwnGbBBReM72MKyohPWm0QOMSLgvN2220X0oAC/sEHHxyEKJXL+B922GF2yCGHhEroPKcReXA9uuxyXUQ/+fUmm2wSWvBIhzXWWCP0KCCvP+mkk4IwoZxExSO2yZoWU3oM0CWUdKPbNL1rYE4X4F69eoUuvAidWrPPkyBFu/3222+hpZ40RlDS+ojtupt00klDxRb/qdBdffXV7dBDDw2t1NgxlV9wRJSly4knnuhBBP/4pxUbXJ+W8IMOOii8+3n/+0LlHfkilTx5cRKkEqSFEKQUSqjl44VGJsnLjBrxeeed1zbccMPwsG+00UahkEJBnJomMgUEKeNXyJy//fZbI6NOF2rdeXlSaKFWq5KFiLyFJUFaPDHhNuaClMIclSu8jHguaBn94YcfQoHcW0/pcpQKUsYYzTPPPKEVg+fGF7op0crKf3ohUIDPe0uS89C69baed0FKWpL/k+dTMUIlIq1nVEwiJKls2Wabbezrr78OCwKIbQraFNToLkqhjwKkdwllTYsbBW8Kizwvd911V80L3a2100YQpIhMWnfolkg3Qwrj9FSiYsDFDCKIMYp0E6VrIV0b6VJ9xBFHhLQ86qijgiBFmLLwrkcY0YpHKxDXaC2zWh9XL0FKPCnr0GOA+TOwfcb/s1DZQv5OZT1syfeZF4CywOOPPx66hzLXAEIUQUoZ6eijjw7Dnr788ssgWkmzWreOEqc8CdLhw4eHVn8EFd1yeR5xCy20UGi9ZzgYPS3ckR60kNIwwjmUXbFjyqO4KaecMqxJFyoLcAhJF2wPPPBAE9GKvy9p6yr3wnu6VNmVNOadT76XF+fxGzZsmFViGTt2bCi7/9oAOm+8RrjJ7D0ijIDc1sSiOyoGSO0W61pnxtW+Hi80xg7RdWSuueYKDzovqK233joUUpjUgoUJKqiFoibdBSktpIyNoFBNrWu6UIvFuFQKNaUe6mrHq5bhYxe0Djz66KOxgFDL6+tarRcJbWXlgpRWIJ6Vb775JuQDVNjMMcccoWD+/fffh65ZjNVKBSktoLSQUhjhmSm3SIxWL/3amt6VPL4RBClCBBFJ6xr5PoUw8m66KjImmgpHCs7YMsM4qHSkMubJJ58MosbHjbKmm6L/p1cBBUW6+fKeqCTXSobVCIIU5rx3aZWBJ4VhxCgVZN4aCnuYw5r3NAVvxpZSmKdyARFFKx5j1xmTx0IFGpXMTGAoQVo6D6Lsgk0j7Hm/U9YhH2eMNNy23HLL8DxQPvLKG1pHEVKIItKIfZxDGqy22mqhkp/KHCoDED61Zp8XQUp3XYQUvYWolKX7uDuecfbxTk0dHOnFgZt88snTXWH7L3/5S1jTvZ3w0AGE87e//W2cY5vzKNXiSjjpQpfivDjuC9dWfVPueAnSKitxCdLSGS4PPgVtupYwdhRxxcNIrR4vPu+mgOBCXNJ1hUzBW0jJeDmf1tJ0YXwdGTLdvSRIy7OvZOFKYVWeMy9vCudUSFFwp9KFwiEtDNSQU1DhBUnBjhfr8ccfHwqJPB8U4unGTktq2nvAt5VelU+vPDHNuyDFRmlhwLbpjk6XOcYVUulCqxB+VCqSv9NFlDFvtEzQqopIpaWCwjrn0BLExF+0ErFN4Zv3Be+KPKVJ9l7yLkgRK7S00S2RSmJ6HcGU9zSVXWwzvIZJqeh+y7uW/AWxQ4GccYsIUvIl3uWkMWnLQpoy9pH3fa1FUTYdmvtPHlyPLrswobcYPcQQ93TRpHs7wzZ4Lmi1pjsvZRzSh+7riE8EKa1zjH/kOeH5odKRllRaWmlBJR2pNKjHcI28CFImNXKHbZJvYMOM7eR9SmNQ1mHv5DO4VBzij2NMKI6eG3S7ZU25dKqppgr+zHqcnpduM/TGHT0G6elRzvHM8EzlxUmQVllAZls4O/pfgrT5wh/jRhnE7YKUmjy6mND1ioUaQVqJqEHn4SeTRXTStYIXJWOG0gXevOyoleX45l44jb5PLaTN21Yjpy8vb1oeqJzhEx48J9TmMsaOAjoilEIgY/GoMfUWUp4PukHS64CukLRApQtdeYteUdPI6V6Je28EQUoXUGybCkcK3eTz2DeChcI0XdURNuTxFNJ4HmDDc0DBmxYgFgrpFNbpaUPBnAI6YSJgK8GyWmHkXZAi/mmRJv6ITIQMQol3js+EjCCltZO0Q/hwDuPXEVOkJYKUgjmVyXT3pbs1C8dTqaAW0tLvLxgjOKlYQZxQUUOLJj1eyNvJ+3kmGJ5EizUiBf48I/BFkPrzgj+Vl/hxPGUiFt9fLfsuFS7XzMukRi7oyE9++umn8JdW6HKONKFsivNWT4YZECfcDDPMENbM8E2DiLtys+/6/uyaZyIVq7S8pv/ZZvblvDgJUgnSXL9oS2VEzfmlgpSxKIhLapMY/8NC9yu6BdE6xLEUwKldJ3NgTAQFDzILFrbJoPnWGV1T6jFOorm4VnofcVaX3dIv9UqzrnV4vOgQpLQiUbCjezv2TCsEsywy6QWFDWyAbkIuSCnoUiDkeUnHWFPIZ2EysKJX1NQ6rfJ2vbwLUoQLlYrk60xAx2yhFKopTCMwsU9acKhQofcM+b4zJn+nUoaCG+8L1vQeuO+++0IYjGOkIC9B2vF8kXSCNxW8CFLsinQgXfDPClL24Yd4ckFKyxwtdLyT/Z3O+533M7091EJaOp3Iq6mcgR+t/1TCMPkXraLLL7984EdFAeN16epOV3aeE8ZOZwUpYSCeEKZUDHAM7xZPT3+2qr3OiyBF0GdFnv9HQPq2r3n/0uuIRhHcTDPNFNbMxUBlAS2hzO+Ao1Ls7rvvDtv8uCAl7h5eds2nCt1RCffLL7+Yt+JS6ebbfozfh/+v55q44Mp1wW2rv7rsVlngqoW0dIbrmR/Tk/sYIV5QvOwYEwE3FsZK0HWFAjYClElZ6K7LmsyYlyXilIWxRxxHRs2aLhbUVuX5pecc2rOWIG3ettrDNC/nuCClSxGFP1qKaFXg+cDm6WJEgYWCdzqpEYV5CoNMfoFg9fhQuKSrpARpcW3G0zrvgpT75B4RkwhOCsdUtvAeoIWfhdl0+Y9AZaIcjxv2zjf6fMwo3dp5H9xwww2heyWtB/iltu/n5mlN/L17HiIuT/eW3gv5iQtSmNKNl/cxvSxKCVLilQpSupAyHpj8y9/pvN9JWyY5yvO7mTy4Hl124Q9bKlcYiwtTxujyjCBQ6BFAeQcRyrH0NqCinvJAKUHKu4D3CF2l6Z6KYK3HhF95EaSlBNwEE0wQxjcj+ks53rUMncFe+eQRjuFlOCpX4InDtqm8ceeClGE2pVpgEWzMh4LjM268n3Eu9Jh8iW1mBMYOGItNzxIq5fLg/D7bKjzLHS9BKkFat5chhQsKFjPPPHN4idHdh+6HZL50TWGh9onZF3kQKZjTQsRkLmS+1LxSO8g4VAowFEbIJDiWzI/jeIjTF2yRtiVIiysuXJBSwBg8eHBYGFvHuFD20TpEyyh+vCxpIeV5QnRSg0sLFNtu7xKkxbUVT2Nfk+fRzZvxlHntJYJtel5O6w+fWGBoBnkaXQsRQTvvvLMts8wyofKFVgpagOiaS7c4CmWsGavIuDoqaNyPXiOMs8pzTwDSqNEEKRUDtAoh0siDWhKk5E3MCMo4UwQTBW4WKhzokkrLOHmW223e1sSxXoKUVjHKRgxbonzD88yzwARg2DeTTNEzADuncgChVE6Q0jKKuOV5IE4spEGteXPdvHXZReghqmgMwdEjibGktFCnjvyIvBTm9FDCMbkgzkUZ2/T44N3rzgUp9s/41KxDmPHNcNzEE08c3tlsp2H6ObTsUiGBY0gODTT1dn6f5QRmW/0lSCVIa54xkRGSgZK5MqU/hQ1aNBGTtO5Q6CDTZaFmj0yCbljUjJNxUDvEpC08oLwUKWwTJjW4dOeloMIHjWkhlSDtPAXxWr9gq3k9Xt4UWPkGI62i6ThQ/tPCgH3zHDAGj9pbehvwDFGIyY4T5RlhofInzwX1ajLtLGHnXZAiRinU0frJBDkISQp7jBtlFla6JNIzBmFK/u69Apj5kncC+TsLlTUIUgqBdEV0f9aETZfgvLbANZIgpcKACXEQlqQFFcM8S6QNE+7Q1dpbpInXddddF9Jy9913D+93WsEpyNOSzUIlMu998jSEEnldHp9N7qseghSWtLrBB1FKd1ueB0QkZSXGSTOJEc8HY0wRJwhU8nyeDyrmnSlh8VyRTqRXPTlzT3kQpAxlYeIh3p0IKhiljjIk/iy0Rg8dOjRswxs/38+7lu62DJHhfcw+F6AeHn444s52qYVr4Biz7Y58kWOZLImFT8Pwnzlt8uS4J1xbhWe54yVIJUjrmknxEFJooJBMC6l/r4yuttQKspB5MMaI1lJqVRlXSu06hRgXo57RkmlT60rmTNchCVIJUreNRlpjx9g6zwFCE3svtVBAoYsQzwgFDmZQLFfw4Fmh+5YXVhqJh+619c9x3gUpacmYLArO5OHess+a1gUmwqGFguMQrxQY/Zt/vCPo/pYuvD/S/2xzHK0SebWbRhGksKfCgG6hiCOEqbeusaarIu9oF/6kF7PAIkqJI8ew4J8uHM//7Ps7T+lFPlkPQQobyjt0aef58GcEVjCl2y1lIf77PlhyHpUwjKf2NMKPd0g9uuhm0zIvgpT5GBD8MGrO8d7F5nG8e3GMGU0dlTPNOe8CTN6WftfUzxkzZkxobPH/jbaWIK2ygOzorLrZ8zWGtPmCFBmpZ1xksGSgLGS86YIf+zneM1s/r9yac8rtK4K/uuw2b1uNnsbYOc9AS/HgOLf1lp4NCjAthaf9jW1X2AwiIc9ddrExCqjk6am98b9UhYrbNftbu6Th5m2bNGqELrtwQ5Ty3uWePR2cZ5r3uJ+LI/63lFZ+Th7X9RKksCA/9zw9y4Z0gGvW38/LphHhZP1KnVttv7wI0kYTfXm+XwlSCdKSGVG1MxOFn79CqgRp/tJEz4nSpN420CiCtN6c6nn9RhKk9eRUz2vXU5DWM97VurYEaZ6lZfvuTYJUglSC9DUVenlpSJDKDqpVeFC4jWtbEqT5TzsJ0vynkQRpZdNIgrR9oi/PZ0mQdiJByjhIJihhZk1mkdUiBqkN/Pjjj2FiDwbZMwMl4xS0iIFsoHPbAOOdGDPGjOXMNJ7mGdrOxzuEsWiME2SiIMaB65nN3zPLOGbGX/JZImYM1rPTsWeHyYQYSpB+FiXPYkv31jIBCdJOIkhHjx4dPg5OgmsRg3I2wOD8HXbYIXznjY9maxED2UDntgE+qcFMteXyDPnn430y22yzhRnl+Uanntn8PbO8V5dcckk9RyqDygaasQFka7lZc9vqr1l2qyxw2zupEYKUqfGZ7hlHDZ0WMUhtgIedGRCZRILWUmogtYiBbKBz2wDf1uNbzHyfc9SoUXpv5PDd+fPPP9vdd99t559/fvishJ7Z/D2zw4cPD59M2XjjjW3EiBF6jjr4HP3+++/hM35UwPzxxx8qqzRweY1yKGlI5aYEaZVFZHam3I7876ggnXLKKUOC60cEShFAkPLJHCowyPC1iIFsoHPbAPkE3/vj249y+SXAJ1T49A1Oz2z+nlnShU91bLPNNvk1oga7M74XvOuuuzbYXet2yxGQIG0gMYqQ7agg5aO4ciJQjsC+++4bxh9Rg9vW7hE6fpiYDRODoj0H5BUInVVXXbVctiH/HBDo3bu3de/ePdxJ0WywCPEhYY444ojQnbo5cxk5cmRoQaU3Al0OcXxfkm1fu39z4bCP41p7bEth5XH/wQcfbDvvvHMeb0331A4CEqQSpO0wG51SVAISpBJURSj8KQ6Vs2PyOgnS/Of4EqSVs/lq5B9YUGsEKUKUHkqIT3dFFpUex/asJUjbQy2/50iQSpDm1zp1ZzUnIEGa70JNNQpKClNp3pwNkAlJkNY8K27zBSVI8/0ck6CtEaTeCtpmA+iEJ0iQFivRJUglSItl0YpNhwhIkOa7UNOccNA+pV01bIAMRYK0Q9lqTU6WIM33848RtEaQ1sRYCnIRCdKCJOT/oiFBKkFaLItWbDpEQII034WaaggOhak0b84GyFAkSDuUrdbkZAnSfD/HGIEEaWUfBQnSyvKsd2gSpBKk9bZBXT9HBCRI812oaU44aJ/Srho2QPYkQZqjTLrMrUiQ5vv5J9kqLUhH/mo29BezEWVsoqbevw81+/47s2++NfvmG7Nffjcb/eekTNW6DwnSapGtT7gSpBKk9bE8XTWXBCRI812oqYbgUJhK8+ZsgIxKgjSX2XWTm5IgzfdzTGJVVJCONXtngFnPPmYPv2P28S9NzKH2f97sbdb7YbM+j5k9cq/Z0++aDRld1fuQIK0q3poHLkEqQVpzo9MF80tAgjTfhZrmhIP2Ke2qYQPkVhKk+c2z/c4kSPP9/JNOlRSkowab3fe02UW9zXo9aXZrP7N+n5t9N9wtoorr0SPNvv3YbOAgs0EDzT543+yKE80uudTs+hvNrjrH7LxbzJ55w+wTjvvQ7LPBZr+OquhNSZBWFGfdA5MglSCtuxHqBvJDQII034WaaggOhak0b84GyJ0kSPOTR5e7EwnSfD/HpFvFBOlos5efNjv9HrMHvzAbNdSs39Nmp9xh9tTgchZSQf9Rf5gNeNLszmvNetxj9uijZr16mD3U2+ypp80ev9/s9rvMHnzE7K4bzHrcbPbU22bf/VHBmzCTIK0ozroHJkEqQVp3I9QN5IeABGm+CzXNCQftU9pVwwbInSRI85NHl7sTCdJ8P/+kW6UE6bAPzG55xOyQe80ufMKs70Czfm+Z3dnH7O3fyllIhf1H/Gr22i1mjw4y+3WE2dixZmNGm40a+efYUbZxb9xp9sTTZl9V+PomQVp5ovUNUYJUgrS+Fqir54qABGm+CzXVEBwKU2nenA2QQUmQ5iqbLnkznU2Q/v777zZ8+HBrznbztI9Eq4ggHWnWu4/Zg/81+22s2ZBBZtfdYbZnD7Mb3y1pGtXxHPW72YDbzJ786s9ZlUb+ZPbDb2ZjzOznwWZD/9d3+J17zfq+YPZd5W+jIy2kX375pX377bfxpr77rn03+Oabb8Ywym2MHl3dsbTlrtto/hKkEqSNZrNtut+x1NrV2Y0cOdK++OKLOt9F6y4vQSpxkqdCnO6l/vZIziFB2rr8s55HNZIghVP6bPt7OvVLt3/77TejUO9+iFEExU8//dQwopQ4V0KQfveG2WVPmb30/f9b24A3zG55zOzzWuqeUcPN+vf8U5D+McZs0L1mt71s9tMYsz4XmT37X7PfzSxHghQ7+/rrrwO43Xff3U455ZSwjTCdcsop/x9oskWlx/nnn2/nnXdeXM455xy74oorwlEuopJTmmxuu+22tvHGGzfx05/SBJylP+cdXZPe3bp1s18bQOeN1wg3mb1H4AK5rQlFZv7UU0/ZFFNMUdoScuj76quvBmPaYostLLtsvvnmdtJJJ41z15NNNpl9//2fOfX7779vbuAcuM0229itt946zjmlPD799NNxvP/44w/74YcfwkuQFyHLzz//bEOGDGnihz/HcTzujTfesNlmm22c8Kaeemq7++67x/Gvp4cEaf0FQFuf7Voej22OGTOmzflPLe9R16qsDZPmjSBIH3744ZB1vvPOO7bbbruF7RtuuCGsb7zxRqNgWMrttNNOtvrqq9t6663XZPnHP/5hXbp0CXEvdV7e/BpFkMJtySWXjAKT/7wHp5122oA0+/zieeWVV9rxxx8f9vvPAQccYC+++KL/DWveudnz8/KfG+ywIP3V7LYHzR7/6E+tR5i/DjK773GzOz5pgqL6f7KC9IM7/5xZ6ecxZr0vMHsyf4KUshllwv79+9vRRx9t5557buC0zDLL2Pjjjx/2sZ/lL3/5S9g3aNCg8L979+522mmnheXkk0+O+cLkk09eljXhE9YMM8wQBC/HUgafaaaZbLrpprP77ruv7LmdcQescJV6ZiVIq6zEG1GQHnbYYbbffvvZ/vvvb9RKPf744/FZ++abb8K+M844I/r5xuWXX24rrbSS9evXz/r06ROXJ554wu69996Qgfixvh44cGB4+PlP5n/ZZZeFXQ8++KDNOuusfliz6+2339722GOPcY7hHj2zas3a4/TJJ5/Y0ksvHcOjdpcH5fPPP4/+vEhHjPjza2L77LNPELTxhBpuSJBWtjBfqYw1D+FghpdccondcsstEqXDOo+dkO6NIEgRZBT4yFc32mgju+qqq2yxxRYLuSctFH379i2Zk1IYPeSQQ+yEE06w4447Li5UeG622WZ20EEHlTwvb56NIEjpLfTWW2/ZOuusE/Dx3qOyfL755rOzzz7bKOjj0vyO/+uvv77RNXKOOeawRRZZJKTroosuGtf4zTzzzCHt8ypKiUdHBenAfmY3v2j24dCAyWykWd/nzXo+Zzbkf141WzURQ1OO6AAAIABJREFUpGPNsoL0qfwJUthQztpwww3tzDPPDHkEZUTPJ5wdz/7hhx8e/n700Ue24oor+q4m60MPPTSUCQ888MBQZnz22WfjfipQXGBFz/9tUEFWbl/22M7035mkz39HtiVIJUibPD+0FGJkvNSptaaW+lFmZDOzt99+O+y78MILQ+ulG6MHQK0oAqmcm3jiieMuXmoIzhVWWMFWW201W2ONNULYCy64YBB9rKmVXXjhhUPNWDwxs/Hhhx+2KaPYddddje4b5dypp55qu+yyS6gNI5O7+eabbZJJJrG//e1v4QU6//zzBwE9/fTTx24djGXgfz2cBGnnERqe0VOAS8diUWHCwn7fxxrHC/g///lP2PbztS62zZDYjSBIX3rpJXvkkUdChcnyyy9vVFzSywbHu2WJJZYI7wDeDQhWd/hfffXVdtttt4UeNPSiYbnjjjtCoZSK1EZwjSBI4Ujh/f77749Il1pqqZBWeNBSffvtt4d95CvkQ/QS472edccee6z997//beKdVzFKXHAdEqTfmp19t9nDA4MODeF91d/szifMnv3/oZBNeFT1TxNBOuZPQdrjBTNaSB/tbvbkW7nrspvyWHbZZe3SSy8N5cPBgwfHch+tp2lZlEaOtdZay5ZbbrngT8UHFV+MX33uuedCS+pjjz0WyrDHHHNMuAQC1lv8se/UbbXVVkZPvpbcXXfdZXvuuWdLhxVqv3OvVJlCglSCtMkDwkueAkApRzeGBx54IO5aZZVVQi2pe1BIwEAnmmgim2CCCZos+CPsUvfVV18ZYg5jpnWV7lZ0L8QPYcxCi6y/HNJzfXuhhRYyWlNb67bccss4DqHUOddff73x4pxllllCbZy3gmaP/fjjj5t4kYk9/fTTTfxq8UeCtNjiIpvRU4Djhfvjjz8GUUoBkLFZjLMZNWqUUTuM++CDD8L6qKOOihUw2bD0v5i2Q8I3giBde+21QwUm7wZa0vbee2/bZJNNQo8ceqj88ssvxlhE9vuwDuJGb5jrrrsuCNKePXuaLwgjuujR0toILu+ClEovHJWx5DE4Kol5z+PIe3AU/NPuuYzdo2IXR+XvXHPNZVQ4rLnmmkaZAbFK90cqJMiz8poPcf8dEaRfvmi2+3VmBz1k9joCdIjZnU+a9Xzzz3mEAqBa/mQF6aAHzW5/xezn0WaPX2bWd0DuBCm97cgLyANowKCc6M7zBvaljneg93Cbaqqp0l1h28uhiNvTTz89DOPacccd43F0DeaYV155JVx3r732ivua26ChZuWVV27ukMLtc/aVeoYlSCVImzwkPHx0M0ZgUWPkY3o4yI3PT+DFRK1Va93Qod5vxYyuEtdcc01ogaRLMGHTZZaabrpH3HPPPWEf23TRQJyWctl7KnVM6kfG4zVn5cYDMAYhjReiNxXiFHx4SafuoYceCl2TUr9abEuQFlNUlMvgsSleetgulTc4uth71zl6G9BtsWvXrqGLEwVD7xFQLkz5F8uGsIlGEKTc56abbhoqIhGkPpEIeTqtoO48j6eL6OKLLx5aNmi1oHKRZeutt47b9OhB1NKzJh1q4mHlaZ13QQorej0xdwKCdMYZZwzvZYQoC4KVSgMclQkM88HRIkVa4VgzF0bWUehHbBRZkA553eyq582e6md2+T1mR95odmlfs3f+vxiUxVLd/6kgZbTR2D/Mhv1vVqXfh5qNGPXn9XM0qREtmP7+YptxoTRS4Ee+wHjyrEsFKQ0jNLJQ1mTuEJwLUsqbF110Ufb0MJPvhBNOGCpPxtkpjyYEPG+uVBlCglSCtImBUTCgdoluN++991546KlJwrnx+Ql042Gwtzv2pwsPdfqfbQrPuF69eoXuhD7Ok25WtEzSxZCMh2OPPPLI4Ec3iFKz3nJ/k046qV++VWsKMGRmZE5cY5555hnnPDK8BRZYIEzc8Mwzz4Qa4Z133jkeRyboNcDuSRdkwqu1kyAtlphoKWPHvjbYYIPQjd4FKWPp/KXNxC6MtXHHM+T7Wgpb+4thS6R93gUpLZ7kl1R4UlHJGEUEJF3nyNe9ixwT3WXzaMQP4pWKFybPw+ZZM3Eez4ZaSDtuxwhOxCbjdRH/9MpgPCnO3/kUHqmUZhyvO3pkUOlLyxOOFi3Sj/GjjBv18aSzzz57mDywyILUvjA77ymz3n3NbrvbbOfbzO4Z+Ccp6hLTZfSYPz8F6hyrsg6C9DazJz43G44QHfvnt0j5soEvXLj/PWbP5u+zL8ywS7mRShJa3Ms5bJXedjgmPqKMyYy8r7/+evDziUKpFEGo4pi1l/+0qJIvsWD7c845Z+gtR485luykXOHkTvzjZd5KlR0kSCVIm32cmFjCjc7XfgKtNOnEQ9n92YmGaO2kMJE6WmEZ+5N1dEGkFdIL3dn9/KdVkjGdbXEI0vQFyky+3LfP5ksGxH/GuyKO6ZpL12K6GLmjxti7RLofa85DmNbSSZB2vPBVqcy0FuFgW1lBeuKJJ0bRydgZWiTcDiVIO5d9YIO4vAtS7tHzdgp+WUcPHfJeWv59nJcfQwsc48YoYDLhDu8JCqFMokP3XVpIG8HluYUU8cm7n8kIeUdSSeB5Cq3POAqPzLFAgd//U8CnKy6Vyzgqw3w25eDxvx8qpoveQmojzG7rbXbjo2avfWz25TCzYZ+Z3fqQ2T+uN9vkpv8tN5r9u4fZwU0nIE5xVWZ7zAiz9+81O+98s+7nm13YvcRygdkZp5o9+LLZn43flbn2/0Jp63dIaRCgsYIJi2gEYKFbPmUtPu2Cvy+ULfmKwoABA+KwM5/bgzyBllOEJ70scBxPTzzKkQhRyqGEi2OoFl2C/asZ+FHxVaqsGk7opD/Oq1JlHwlSCdImj1K2BiidNAjjo0bTHX3m0/Gmbpy+n/8YmDu6RzAjLe6ss84KDz+Fa45La6b4T80WGce8884bZlRjEHvWUfBmfEpbXFaQci61bj5xE5nZZ599Frr1puGmcUu3s8f4Szv1r+a2BGnnEhzYEi9GZrH2An0qSBmnxUvc7VCCtHPZR6MIUv80A3kpLW5MOsK2TyjCZ0WYqZUudxQyU0eef+edd4aueKwRpBQqGUrBBF606DWCy7MgxY58YjQmlEKQIlJ5nzOEBZcVpG57Tz75ZKxE8BlRV1111dAFkjGkDCfgvU6FQqFbSM1s6K9mP/1q9ofXU480+2GI2fvfm32ULB/+YPbpr9W22rFmI4aaffeN2TeDzb5hnV0Gmw3+xmzo8KoMdG2rIGUSrIsvvji0itIyynwhXlbcbrvtQj6APwuVcAhJeu7xdQjs1ytPmHwLcUmZlVZ8HD3dEKSpK1e24xiGFzBxkdz/E3BeEqRVFpJeM9LRdaN99gUDS2fUo1uUz3BITbZ/BwqTpHXTWxb578bp5pr9T22pd31lqv/UZY+l26zXZKVTc6fn+DeqUr+WtksJ0uw5zCbs1/Z93B+imIHuXmjyfb7OxsH9q7mWIO1cggNboraXlgl3FPZ4GeMkSDuXPZQqCGAHjdBCmv3uNJWT6Vh98lP8so7unnTPZSE/Z0wYhVO67SJ40glKsufm6X/eBakLTBekVIAxdIZPu+FKCVIEZipImeCIvApxQBdgFsKhdYrK76IL0jzZWx7upa2CNHvPCE96seHIH0qNE6f1vUePHiEPpLIW570wOMcrWsg7mOU7dc2V4Rif3pwgpUdgc+en1ynKtse31HuoPX7kKWimjuquWpw/Xi0uUulrNJogfeONN8JDte6664buuIwDdeezmlHb9Ne//nWcSXx83AjH8xJDuGGwjMckXLpLvPDCCx5cXCM4fVyKe9L1iskqWnKE77MBtnQs+1sjSN99991xvnN17bXXhoyMj3unYsCvSeGCWt9aOwnSziVAaPmkwMc4GCp3GEuzww47xG5zTNjFS9pbSOnu5OOd2/OC0DmNZ1/kQY0gSLlP5idg2AetoWnLpn/KwQs8nq/yzWk+R8ZnyVgofPIs0K2Xz5OwIEj5ZFfeXaMJUnjSwuRsWyNIr7jiilBJRh5FpQELLVPM1kvrF2HkNY8hvh2ZZTfv9leP+2uvIKXyim/f8jnA1NEoQu8KvrdNt30c84rQq4K8g7IcraBs8z1uyqQ0otBTD790ok3OxW+22WYLn/bjqxK+kEexr1T3c78f7pEeG53JwQRXqWdYgrTKLa2NJkj9YaILlA8Cdz9fU6vEeJ1SjhcWRsqU/u4YU8LEBnTDzdYw8YBzPJ96oRsX3XBphZxmmmmMT7C05CiQZMeqNndOawQpAtlbQZk5kEyUae0ZVM+9UiBi3AJrKjBwzHya1u43dw+V3CdB2niCoaOZN/bDpFw8O1QSMd6aLnVk5s8//3xoyWdSErov0QWdFyW1wh29rs5vDFvDPhpFkFI4pEDJe5K8lU9n0XLGNhWYFDTdn3jxuSNsn4VCJ/bP7K/+TKT7gmeOfxpJkDJ0h/yFAjrpQn7C/3QMKfmDt5DSMvXpp5+GmXcZ60cehABlQTjQ2kRrFy2u5FV5zFswHQnSyj5AbRWk/ilBGjX4hmgpRyMH3cDJJ6iIpacE+QST/WFf9PLD/vi+PDZL6ymVVgx7yTrCwGGT6YIfQ2X8m7vZ8zrrf+dVqeeX9FELaRVFaaMK0rY+YIhNaqvIcOhKW8qRSdB1AhGJw5iZfc9bOJmRj3AooJSazrtUmB6OTz9f7hj3X2+99UItuv/Prmlh4h6YcAFHDS8TNdBCysIU4swMyTZjG3gB8xBxTj2cBGljiIRKZdgeDi9LXr6sKRy64GScF35+HKLU97mf1sW2GfKhvAvSTz75JOT/PqeA552Mf+a9kM4ZwBh/euWQ39KSSu8bX+i+TkHT//uaCtHmWjP8evVcN4ogZZ4IhtjAmTG6OPIQ3nvMaOwTGOHH+5D5GJixFDHBGHa2DznkkCYLFby0ZtPbI6/ddomnBGlln5C2CtLKXl2hVZqABGkVxWOlu+sSXmcRpJU29LaER+0tL7x6ObojcQ/1cBKkxRYXEo9K37baAPlQ3gVpPfLKvF2zEQQplVnMdkzXRsZ+IkJTe+Q/LvVDYLbW5VWMEh+cBGlrU7J1x0mQto5ToxwlQSpB2ii2qvusAQEJUgmWtDCobdkD2Y4EaQ0y3w5eohEEKflJZ+1hQfJKkHbQyDOnS5BmgDT4XwlSCdIGN2HdfiUJSJBKgEiEygZSGyB/kSCtZC5bnbAaRZCmttWZtkl1CdLK2r4EaWV51js0CdJOJkiZzVZOBMoRYNZfn12O7k9axEA20LltgLyCyYD4BJBcfgkwgROTAOL0zObvmSVdGP/KzM5ylSHAmGL/9F9lQlQo9SQgQdqJBKlP8MAnUJhcR4sYpDbAxErMFsekH0wO8dhjj2kRA9lAJ7cBZqOk58Qss8wSPnWQ5hnazsc7hAl/jjvuuDB7O7O6K+/O37uL2VuZlX+RRRYJswnr2enYs3PTTTcZ38zec88966mhdO0KEpAg7USCtG/fvmHGwbXWWit8jJoPUmsRA7cBZixm1kOm1T/77LO1iIFsQDZg5513nh166KGhhdTzCq3z9d7o0qVLmEme77Aq787nu4v3Kj2QmGVYz0/Hnx8+zUKPPyrL5IpBQIK0EwlSvsk59dRTF8NyFQsREAEREAEREAEREIFOSYBPBKnLbnGSXoK0kwnSKaaYojjWq5iIgAiIgAiIgAiIgAh0OgKa1KhYSS5BKkFaLItWbERABERABERABERABApNQIK0WMkrQSpBWiyLVmxEQAREQAREQAREQAQKTUCCtFjJK0EqQVosi1ZsREAEREAEREAEREAECk1AgrRYyStBKkFaLItWbERABERABERABERABApNQIK0WMkrQSpBWiyLVmxEQAREQAREQAREQAQKTUCCtFjJK0EqQVosi1ZsREAEREAEREAEREAECk2gI4J0l112sZNOOinymX766eN2dmPw4MH21VdfxeXLL7+0r7/+OhzmIip7Tr3+v/vuu8b3iK+44gq76aab7JJLLrGbb7453g7fbv3222/jfza+//5722+//Zr48WfgwIG23nrrjeNfLQ9nOWzYMKvEMnbsWOvWrZv92gA6b7xGuMnsPQIXyG1NrNGjRxvfIdVnX6r1KClcERABERABERABERCBWhBoqyBFSLroOeyww+zcc88Nt7nXXnsF/znnnNNmmWUWm3vuue1f//pX2Pfxxx+HfUsssYQtuOCCYZlvvvmsa9euYX+pMvVxxx0XxFzKAHG3+eab2/Dhw+2dd94JAnCfffaxdNl+++3DKWeccYb17NkzPT1sjxkzxrbYYgv7/fffx9nnHnvvvXeI1wMPPGDc8yeffGJTTz2177aFF17Ybr31VptmmmmiHxvE46CDDmrih7idY445mvhV84+nTVv1TbnjJUirrMQlSKv5OChsERABERABERABERCBvBNoqyAlPn379rVZZ53VzjzzzNCS+Omnn9r4448fovrbb7+F9WWXXWZrrLFG2P7oo49spZVWCtvZnzfffNMmnHBCe+mll+zpp582WlJxCKvevXvHwz/77LPgd/311wc/Wiw55tBDD7U999wzLttss03YT7jsHzJkSAyDjcUXX9zWWWedJn7ZP0cccYTtsMMOhpik1fPUU0+1VVddNR4277zzhu1HH33UXnzxxejPBtdEwLrr37+/Ib5r5bg+rpzAbKu/BKkEaa1sV9cRAREQAREQAREQARHohATaI0gdE0IQ4YkIovfgAgss4LuCn/+hZRMRSFfXySabLOzjHLr8esvqdtttF1oSjzzyyHAaIvWJJ54I259//nk4BwHorkePHjbllFP635Lr3XbbzSaddNK477777mtyX3FHZuOQQw4xhC/dkblHBOn6669vffr0sQsuuCC0hOLH9tVXX505u+nfN954wxZaaKGmnlX8J0FaZQGZ7XLb0f9qIa3i06CgRUAEREAEREAEREAEck+gPYL0oosuiqLymmuuiXFkvCVdchFFb731VvSnhXTppZcO/0t1z0Wk4q699lo74YQTwjaC9NVXXw1jMwmvX79+wd9/EKRTTTWV/y275tzu3buH/Wx/8MEH8Vj+0wU56+h2e8ABB9hVV10VuuzSUjvTTDMFgUzcJ5lkkiBSaSG+8cYbgzAlLBaG9qXuueeea5UITs/pyDb3gGtrS2i549VCWmWBK0HaEXPXuSIgAiIgAiIgAiIgAo1OoK2CdN1117XFFlssdIWllfC8884LCOimutVWWwWx5pMVOZtUkCLmcAggdxNPPHHYPOuss4K44w/ClYmFEFiTTz65HxrXt99+e9hH99nZZ589LIhG7i91CFDCWHPNNUNrbLqPLsJZAcl+xp7ec8899uyzz9raa69tdBfef//946kTTDCBDRgwIP73Da4zcuRI/xvWtKC6SGyyo0p//FrlBGZb/SVIJUirZKoKVgREQAREQAREQAREQATM2ipIU2ZMJsRMtEwkhEh97LHH0t1xmy67yyyzTPiPYEJEsqYFFOeCk9ZRwsPNPPPM4Rhms6XV9R//+Efw9x9EI2G88MIL9uCDD4bl/vvvt2eeecYPiWvGg7pQi57NbNBSy5jXVVZZJUxcRHdjBK07wjrxxBP9b1zjnxWkG2ywQWgdZhKkWjiPZ1uFZ7njJUglSGtht7qGCIiACIiACIiACIhAJyXQVkGKQGQCIsZGMrkRk/rQAooQ+vHHH+3111+31157LSzsQ9AwOZDPqOufhtlyyy3DTLkjRowIM/KCf999942fV6HVFKHpjvDvvvtu/2t02S3V/TcekGycc845tuyyyyY+rd/ceeedmxxM3DbaaKN4z+lOF4Pvv/++PfTQQ2EXfkz0lJ2RNz2vktt+D+UEZlv9JUglSCtpnwpLBERABERABERABERABJoQaKsgpatsly5dwgy6a621lm266aZhllyE0HLLLRcm/2F2XZallloqfK+TCY+23nrrcF3/BArn/vTTT3bHHXfYrrvuGvYxgdBdd90VthlDynnuGMfJNRCwuNZMauTn8gkYPt/SWod4pYX273//e5ioidZf4oyjxRNBTlwRnqmjKy+i2e/z9NNPt4033jgcgnimNbfaToK0ygKyo5MYZc/XGNJqPxIKXwREQAREQAREQAREIM8E2ipIs3EZOnRobB11MZQ9BmF24YUXGl1qXXyusMIK4TBm5n377bfDNjPtpi2L6ay6HPDvf/87XIvtW265JWwzARGz6frCONbs+E661/qnWsKF/vfD/f7www+pV9jG78MPPwzfQUUw00roM+V6HGkJTr9NyonsYyZhHN879WP5TxzT/+GgKvz4NdraElrueLWQVlngSpBW4SlQkCIgAiIgAiIgAiIgAg1DoCOClEmIEEC//PJLiC8z6/Kfb3fS+ukO0UlXX8aK+iy3tIAytpTjv/rqK3vllVfCNkIQh4hkf9bRikq3WcLx2XCZEdcXBC9dhFPHuFImSMo6xr76d1PTfZtttlnokjzDDDMY3zNFKNMdmW633oLL8bSgHn744fHU9dZbL24Tr6yg9k/clIpXPLGDG1wXV05gttVfglSCtIMmqdNFQAREQAREQAREQAREoDyBtgpSWjDpvorwoVWylNt7773Dfo6hBZXvhX7xxRfhPMaV4n/JJZeEcZ2DBg0KY0fp7rrHHnuUCq7mfnPPPXe4Zq9eveK1b7755jgxU/Q0K9vymn4OJz1+ww03DN84Tf0quS1BWmUBme1y29H/aiGtpPkrLBEQAREQAREQAREQgUYj0FZBOnjwYONzKa1xo0aNas1hOqaCBCRIJUgraE4KSgREQAREQAREQAREQASqS6CtgrS6d6PQO0pAglSCtKM2pPNFQAREQAREQAREQAREoGYEJEhrhromF5IglSCtiaHpIiIgAiIgAiIgAiIgAiJQCQISpJWgmJ8wJEglSPNjjboTERABERABERABERABEWiBgARpC4AabLcEqQRpg5msblcEREAEREAEREAERKAzE5AgLVbqS5BKkBbLohUbERABERABERABERCBQhOQIC1W8kqQSpAWy6IVGxEQAREQAREQAREQgUITkCAtVvJKkEqQFsuiFRsREAEREAEREAEREIFCE5AgLVbySpBKkBbLohUbERABERABERABERCBQhOQIC1W8kqQSpAWy6IVGxEQAREQAREQAREQgUITkCAtVvJKkEqQFsuiFRsREAEREAEREAEREIFCE5AgLVbySpBKkBbLohUbERABERABERABERCBQhOQIC1W8kqQSpAWy6IVGxEQAREQAREQAREQgUITkCAtVvJKkEqQFsuiFRsREAEREAEREAEREIFCE5AgLVbySpBKkBbLohUbERABERABERABERCBQhOQIC1W8kqQSpAWy6IVGxEQAREQAREQAREQgUITkCAtVvJKkEqQFsuiFRsREAEREAEREAEREIFCE5AgLVbySpBKkBbLohUbERABERABERABERCBQhOQIC1W8kqQSpAWy6IVGxEQAREQAREQAREQgUITkCAtVvJKkEqQFsuiFRsREAEREAEREAEREIFCE5AgLVbySpBKkBbLohUbERABERABERABERCBQhOQIC1W8kqQSpAWy6IVGxEQAREQAREQAREQgUITkCAtVvJKkEqQFsuiFRsREAEREAEREAEREIFCE5AgLVbySpBKkBbLohUbERABERABERABERCBQhOQIC1W8kqQSpAWy6IVGxEQAREQAREQAREQgUITkCAtVvJKkEqQFsuiFRsREAEREAEREAEREIFCE5AgLVbySpBKkBbLohUbERABERABERABERCBQhOQIC1W8kqQSpAWy6IVGxEQAREQAREQAREQgUITkCAtVvJKkEqQFsuiFRsREAEREAEREAEREIFCE5AgLVbySpBKkBbLohUbERABERABERABERCBQhOQIC1W8kqQSpAWy6IVGxEQAREQAREQAREQgUITkCAtVvJKkEqQFsuiFRsREAEREAEREAEREIFCE5AgLVbySpBKkBbLohUbERABERABERABERCBQhOQIC1W8kqQSpAWy6IVGxEQAREQAREQAREQgUITkCAtVvJKkEqQFsuiFRsREAEREAEREAEREIFCE5AgLVbySpBKkBbLohUbERABERABERABERCBQhOQIC1W8kqQSpAWy6IVGxEQAREQAREQAREQgUITkCAtVvJKkEqQFsuiFRsREAEREAEREAEREIFCE5AgLVbySpBKkBbLohUbERABERABERABERCBQhOQIC1W8kqQSpAWy6IVGxEQAREQAREQAREQgUITkCAtVvJKkHYyQfrXv/61WBas2IiACIiACIiACIiACHQqAkceeaTtsccenSrORY6sBGknE6QkeK9eveyqq67SIgayAdmAbEA2IBuQDcgGZAMNZQO33HKLde3a1ZZddlnr0aNHQ927yt9N9cfVV18d0lCCtJMI0pEjR1r//v2tS5cuttxyy2kRA9mAbEA2IBuQDcgGZAOygYa0AQTp6quv3pD3rnJ4Ux3i2oQW4GHDhlVkGTt2rHXr1s1+bQCdN14j3GT2HoEL5PYkGKJUTgREQAREQAREQAREQAREQATyRKA92qbcORKkVVbiHRGk5RJN/pWpjRFHcZQNyAZkA7IB2YBsQDYgG5AN1NcGJEglSNvVeqsHt74PrviLv2xANiAbkA3IBmQDsgHZQBFsQIJUglSCtEL934uQISgOerHJBmQDsgHZgGxANiAbkA3U0gYkSCVIJUglSGUDsgHZgGxANiAbkA3IBmQDsoG62IAEqQRpXQyvlrUuupZq+WQDsgHZgGxANiAbkA3IBmQD+bQBCVIJUglS1YbJBmQDsgHZgGxANiAbkA3IBmQDdbEBCVIJ0roYnmqo8llDpXRRusgGZAOyAdmAbEA2IBuQDdTSBiRIJUglSFUbJhvItVDmAAAgAElEQVSQDcgGZAOyAdmAbEA2IBuQDdTFBiRIJUjrYni1rHXRtVTLJxuQDcgGZAOyAdmAbEA2IBvIpw1IkEqQSpCqNkw2IBuQDcgGZAOyAdmAbEA2IBuoiw1IkEqQ1sXwVEOVzxoqpYvSRTYgG5ANyAZkA7IB2YBsoJY2IEEqQSpBqtow2YBsQDYgG5ANyAZkA7IB2YBsoC42IEEqQVoXw6tlrYuupVo+2YBsQDYgG5ANyAZkA7IB2UA+bUCCVIJUglS1YbIB2YBsQDYgG5ANyAZkA7IB2UBdbECCVIK0LoanGqp81lApXZQusgHZgGxANiAbkA3IBmQDtbQBCVIJUglS1YbJBmQDsgHZgGxANiAbkA3IBmQDdbEBCVIJ0roYXi1rXXQt1fLJBmQDsgHZgGxANiAbkA3IBvJpAxKkEqQSpKoNkw3IBmQDsgHZgGxANiAbkA3IBupiAxKkEqR1MTzVUOWzhkrponSRDcgGZAOyAdmAbEA2IBuopQ1IkEqQSpCqNkw2IBuQDcgGZAOyAdmAbEA2IBuoiw1IkEqQ1sXwalnromuplk82IBuQDcgGZAOyAdmAbEA2kE8bkCCVIJUgVW2YbEA2IBuQDcgGZAOyAdmAbEA2UBcbkCCVIK2L4amGKp81VEoXpYtsQDYgG5ANyAZkA7IB2UAtbUCCVIJUglS1YbIB2YBsQDYgG5ANyAZkA7IB2UBdbECCVIK0LoZXy1oXXUu1fLIB2YBsQDYgG5ANyAZkA7KBfNqABKkEqQSpasNkA7IB2YBsQDYgG5ANyAZkA7KButiABKkEaV0MTzVU+ayhUrooXWQDsgHZgGxANiAbkA3IBmppAxKkEqQSpKoNkw3IBmQDsgHZgGxANiAbkA3IBupiAxKkNRCkJicCIiACIiACIiACIiACIiACIlCSQLdu3ezXKuuySoQ/XiUCqXUYW2yxhW277ba29dZbaxED2YBsQDYgG5ANyAZkA7IB2YBsQDaQ2ABaCc1Ua53Wnus1pCAdOnSo/fzzz1rEQDYgG5ANyAZkA7IB2YBsQDYgG5ANlLABNFN7BGKtz2lIQVqyTVqeIiACIiACIiACIiACIiACIiACkUCtxWV7ridBGpNLGyIgAiIgAiIgAiIgAiIgAiJQHALtEYi1PkeCtDj2ppiIgAiIgAiIgAiIgAiIgAiIQCRQa3HZnutJkMbk0oYIiIAIiIAIiIAIiIAIiIAIFIdAewRirc+RIC2OvSkmIiACIiACIiACIiACIiACIhAJ1Fpctud6EqQxubQhAiIgAiIgAiIgAiIgAiIgAsUh0B6BWOtzJEiLY2+KiQiIgAiIgAiIgAiIgAiIgAhEArUWl+25ngRpTC5tiIAIiIAIiIAIiIAIiIAIiEBxCLRHINb6HAnS4tibYiICIiACIiACIiACIiACIiACkUCtxWV7ridBGpNLGyIgAiIgAiIgAiIgAiIgAiJQHALtEYi1PkeCtDj2ppiIgAiIgAiIgAiIgAiIgAiIQCRQa3HZnutJkMbk0oYIiIAIiIAIiIAIiIAIiIAIFIdAewRirc+RIC2OvSkmIiACIiACIiACIiACIiACIhAJ1Fpctud6EqQxubQhAiIgAiIgAiIgAiIgAiIgAsUh0B6BWOtzJEiLY2+KiQiIgAiIgAiIgAiIgAiIgAhEArUWl+25ngRpTC5tiIAIiIAIiIAIiIAIiIAIiEBxCLRHINb6HAnS4tibYiICIiACIiACIiACIiACIiACkUCtxWV7ridBGpNLGyIgAiIgAiIgAiIgAiIgAiJQHALtEYi1PkeCtDj2ppiIgAiIgAiIgAiIgAiIgAiIQCRQa3HZnus1pCCdaKKJbLzxxgvLyiuvHIF/+umn0Z/9qfPjWT/77LNx17bbbhvP2XHHHaP/E088Ef2bC+vLL7+M53Tp0iWec+qpp0b/K6+8MvrPNddc0X/kyJHRP3uN6aabLu679dZb4zlHHHFE9F9rrbWi//vvvx/9s2Hx35eXX345nrPZZptF/z333DP6P/zww9F/ggkmiP5seDisf/jhh7hvySWXjPvOPvvs6H/xxRdH/wUWWCD6//bbb9GfsFI3+eSTx3133XVX3HXAAQdE/3/+85/R/6233or+2bDS++U4d5zv+wjX3d133x39uY/U+fGsuX93Cy64YDznoosucm8755xzov/iiy8e/X/88cfoT1ipm3DCCeO+hx56KO7aa6+9ov+mm24a/V955ZXonw0rvd/33nsvnoPd+L7DDz88+mNn7j/ttNNGfzbcn/WIESPiPuzZ92Hn7rB/9+e5cPfVV19Ff/anzo9nzfPnbqeddornbL311u5tffv2jf7NhfXJJ5/Ec1ZdddV4zvHHHx/9b7jhhug/yyyzRP/Ro0dHf67Bf3cc5/fM+e6OPfbY6M/13A0aNCj6N3e/zz33nJ9iW221VTxn5513jv6PPfZY9G8urMGDB8dzlltuuXjOaaedFv2vuOKK6D/33HNHf9LZ45e9Bvbh+2677bZ4Dvbk/uuss070x/7cPxtW6o89u8POfR/27+6BBx6I/jwvqfPjWfOcuVtsscXiOTyX7i644ILov9BCC7m3DR06NPoTVuomm2yyuO+ee+6Ju/bff//o/69//Sv6v/nmm9E/G1Z6v/3794/nbLDBBvGcgw46KPqTH/o5U045ZfRnw/1ZDxs2LO4j3/V95MfuzjrrrOhP/u2OfN2PZ5268ccfP+7jPeFu9913j/68V9y9+OKL0T8bVnqNDz74wE+xNddcM55z5JFHRv8ePXpE/+mnnz76s5GGxXvV3Zxzzhn3XX311e5tp5xySvRfYYUVoj/v8zSsuCNzjSeffDLuotzg51CecEc5w/1Zpy71p9zibqWVVornnHDCCe5t1157bfSfddZZo/+oUaOiP2GOGTMm7ptxxhnjvptuuin6H3PMMdG/a9eu0X/gwIHRv7n7feGFF+I5W265ZTxn1113jf59+vSJ/s2F9c0338Rzll122XjOGWecEf0vv/zy6D/PPPNE/99//z36Z68x9dRTx329evWK5xxyyCHRf911143+b7/9dvTPhsV/X1599dV4zkYbbRT999lnn+h///33R/+JJ544+rPh4bD++eef475FF1007jv//POjf/fu3aP/IossEv1/+eWX6E9YqZt00knjvvvuuy/u2m+//aL/hhtuGP3feOON6J8NK73fAQMGxHPWX3/9eM7BBx8c/e+8887oP9VUU0V/NtKwhg8fHvfNO++8cd8ll1wS/c8888zov/TSS0f/b7/9Nvo3d7+9e/eO5+y2227xnG7dukX/fv36Rf/mwvroo4/iOWussUY85+ijj47+t9xyS/SfYYYZoj/PZBp3nll3c8wxR9x3zTXXuLedfPLJ0X/FFVeM/l988UX0b+5+n3rqqXjO9ttvH85pj0Cs9TkNKUhJCB5ICrepKBo7dqx99tlnwZ+ESx0vGo5nf/rCGjJkiHEsC9vuOMbD4rzUff755zEsrunu+++/N67DfhLSHQ8ffuzjYUqdX4N16ihIelhkvO4oKPn9pnHH6D2s5uKePgw//fRTDCvNHCmI+v1+/fXXfumwTuOe7vjuu+/i/aZijYKRh1Uu7uxPHdf0uP/xxx9xF2nucU8Lm4iEcnHneE/3VExwvodFuO64nt9ve+KeFgTh4GHBJ3V+v83FPRV+pI/fL+nmjvT0sNifujTuaUEFu/GwsCd32Jnfbypk2O/XYJ060tTTKn3JYP8eFs+Fu/QZzcaddPK0Sp/RNO7lnlHuIXXNxZ1j2V/uGU0LSYRZLu4cVy7uhM++9jyjadzT/KnUM+rM0rjD1TmWy5/SZ7Ra+VP6jDZC/tSeZ7Se+VP2GU3TPbWH9BntaP6EXbnNtzV/4rzUNfeMso+lEfKn9BltT/5U7hmtZP5UrTJEGvdq5U+tKUNk30utKT+l+VNzZQjs1vPTcuWnSpYh0rw5jXsl86e0DNFc3NNntK3lp2z+VO492pr8qS1liDzkT5UoQ7S1/JTaaVqGwGbRTOQneV8aUpDONtts6XtN2yIgAiIgAiIgAiIgAiIgAiIgAgkBNFPexSj315CCNOGsTREQAREQAREQAREQAREQAREQgRIEJEir1ERcgrW8REAEREAEREAEREAEREAEREAEEgISpFUSpOnYlYS3NkVABERABERABERABERABERABMzCRJQSpFUSpNnZpWRxIiACIiACIiACIiACIiACIiAC/09AkxpVSYyGga+Zaa7/H7u2REAEREAEREAEREAEREAEREAEJEglSPUUiIAIiIAIiIAIiIAIiIAIiEBdCEiQVlGQ1iVFdVEREAEREAEREAEREAEREAERaCACGkNaJVHaQDagWxUBERABESg4gddee82uuuoq69+/f8FjquiJgAiIgAg0GgEJUgnSRrNZ3a8IiIAIiEAbCey5555Gt6ijjjqqjWfqcBEQAREQARGoLgEJ0ioJ0okmmqi6KafQRUAEREAERKCVBA455JAgSE855ZRWnqHDREAEREAERKD6BNBMEqRVEqTURMuJgAiIgAiIQB4ISJDmIRV0DyIgAiIgAlkCmtSoSmIUlS9BmjU3/RcBERABEagXgWOOOSa8l84555x63YKuKwIiIAIiIALjEJAgraIg7dmz5zjA5SECIiACIiAC1Sbw3HPP2R577GEHHXRQWI488khbeumlgyBdccUVjf++b/fddzcmPJITAREQAREQgXoQQDOpy26VRGk9ElTXFAEREAEREIGzzz47iE9qnVuzXH311YImAiIgAiIgAnUjIEEqQVo349OFRUAEREAEKk+AFlJm1T344IPDwsy6aQsp/30fLalqIa18GihEERABERCB1hOQIK2SID3wwANbnwo6UgREQAREQASqSEBjSKsIV0GLgAiIgAi0mwCaSYK0SoJUkxq12y51ogiIgAiIQIUJaJbdCgNVcCIgAiIgAhUhoEmNqiRGUfkSpBWxUQUiAiIgAiJQAQISpBWAqCBEQAREQAQqTkCCtIqCtGvXrhVPMAUoAiIgAiIgAu0hwJhSXvqMH5UTAREQAREQgbwQQDOpy26VRGleEln3IQIiIAIiIAKvv/66MZvugAEDBEMEREAEREAEckVAglSCNFcGqZsRAREQAREQAREQAREQARHoPAQkSKskSN99993OY0WKqQiIgAiIgAiIgAiIgAiIgAi0kQCaSYK0SoJUkxq10Rp1uAiIgAiIgAiIgAiIgAiIQKcioEmNqiRGUfkSpJ3qWVJkRUAEREAEREAEREAEREAE2khAglSCtI0mo8NFQAREQAREQAREQAREQAREoDIEJEirKEgrk0QKRQREQAREQAREQAREQAREQASKS0BjSKskSotrMoqZCIiACIiACIiACIiACIiACFSGgASpBGllLEmhiIAIiIAIiIAIiIAIiIAIiEAbCUiQVkmQ0h/6uuuus6eeeiomyU8//WQXXXRR+Dg5HyhP3VVXXRX82T9kyJC464knnrDLL7/cLrvsMnvllVei/2effWaXXHKJXXnllXbrrbdGfzYuvfTSENaFF15oY8aMifvuvfdeu+KKK8J577//fvR/++23wznse/DBB6P/iBEjjDC4V66fuptuusm454svvti++uqruKtfv37hWO75mWeeif7ff/99OJZzrrnmmujPBnHgGsR96NChcV+fPn1C3IkPH3V39/HHH8e49+rVy73DmvvxsMaOHRv33XXXXeE6MPvwww+j/3//+98Y94cffjj6Dx8+PMaduKTuhhtuiHH/5ptv4q7nn38+xv25556L/t9++22M+/XXXx/92YC53++wYcPivkceeSTsI+5vvfVW9P/oo49i3O+8887oz4bbFgxSd/vtt8e4Dxo0KO564403Ytx79+4d/ckUPCzSJnXXXnttjPt3330Xdz377LPRTl944YXo//XXX8e433jjjdGfDbgSd2zsjz/+iPseeuihGPcBAwZE/w8++CDG/Z577on+2LjbKembuttuuy3G/dNPP427Xn311ZhWjz/+ePT/+eefY9yx1dRht/jB5scff4y7eMb9GX3ppZei/xdffBHjfsstt0R/NniePO6jRo2K++6///4Y9/TTUWxjC9gLx7jjXI87+1PXo0ePmFbci7uXX345xr1U/kQcubfUuR9xh5E72HncYeouzZ969uzp3mFNGnnc0/yJNMXe2J/mT9iAxz3Nn7AZj3tz+RM26C7Nn7BZd2n+hI2nLs2feDbcpfkTz5K7NH/i2Utdmj+l/mn+xDPujmff406e4I78yZ9RbCJ15DGkF9ci73FHngQnljR/Ig/jWM4hb0tdmj9xTXdp/kQe6i7Nn4hT6vx+m8ufYOfO8yfsC9buWps/kabu0vwJG3CX5k+801KXPqNp/oQNwoV0SfMnbBbbxV5amz/xbLjN88y4S/MnygDumsufeKZIQzhT1nCX5k88++7S/Im8InXEzZ/RSuVP2WeUPNHtNM2fyEM5lnRP8yfyXOLGOdkyBH7cL/vL5U+vvfZajCLvAk8r3hGpa03+xLvIXZo/8e5yl+ZPxCV1vAs97mn+xLvT457mT7xr/Rltbf7EO93tNM2fKAN43FubP1HWcDttTf5EWcaf97bkT/4uoSzlrrn8iePdTtP8ibKcxz3Nnyj7edzT/Imyot9vNn+ijOlxT/MnyqQ8J9xDmj9RhvWwOC91XobgGmn+RFnZ457mT5StPd2by58oq7tL8yfK9u48f4ILWsBdWn4iPqlDW3jc0/wJLeJ2muZPaBePO/adOtLJn9Fs/oRW0hjSKolRXpjrrbeeLbHEEnb88cfHNBk4cKDNP//8tuyyy9ryyy8f/dno0qVL8Gd/avTHHnusLb744rbooosGg/WTKFAsuOCCtvTSS9uGG27o3mG9yCKL2HLLLWfzzDNPk4L+zjvvbEsttZQtvPDCTQySTAm/JZdc0vbaa68Y1i+//GLzzjtvCIt7SN26665ryyyzjC2wwAKWvuS6d+9uiy22WLjnk08+OZ7y3nvvxbivtNJK0Z8NeHC/8803n3355Zdx3+GHHx4YEp/0BfTkk0/GuG+++ebxeDZg4mGNHj067tt2221D3BdaaCFLhScvRcInrfbff/94/A8//BDjDpfUrbHGGjHub775Ztx19tlnh7gT/zPPPDP69+/fP3Ainquttlr0Z4P08/tNC48HHnhgjHsq5B599FEjDqTjVlttFcMiU8F2CIs0ScX4FltsEa7Dean4IhPwuB966KExLF6QpAVhkcapW2WVVaKdvvPOO3HXaaedFuN+3nnnRX8KAdwP4ay99trRnw2Ycw1sLK2E2XfffYMtYpOpmHnggQdi3HfYYYcY1siRI4OtExbnpG6TTTYJcccu0goSMmWeKe7hqKOOiqdQUCHubpNxh5mtuOKKMe5pgeTEE0+Mz2j6MuPFwnWJ+wYbbJAGFVh53H/77be4b/fdd49xT1+YbPszuttuu8XjefHznBMW8UndP//5zxj3tJKAFzLH8kyfcMIJ8RQKGp4/rbDCCtGfDc+fYPPJJ5/EfUcffXSMOy9Ud3379o3P6EYbbeTeYU08uF/uO32R7rjjjjF/uu++++I5FBg97vvss0/0x2bK5U/rrLNOfEZToXz++efH/OnUU0+NYSH4Pe4rr7xy9GfDbYG4p5Vvhx12WHxG00IiL2ieNZ7tNH/imeRZgCVhpWJ8m222iflTKjwphPgzesABB8T7ojDjcScvSF3Xrl1j3NPC2H/+85/4jLLtDtHrz+jqq6/u3mFN2G6naQGKe+HZ4d5uvvnmeA737vkTcXJHXIkzcc/mTzCCFeelhRuYetxh7Y40ICzui7RJHWmHH2mZVuiQ1tg7eTM24A7b8LhjM6njeI97mj/tvffe8RlNxQw2i53CDFt2h437M8r+1PFsEHfyCZ4ZdzxL/owec8wx7h2ePeJOHGGZOp5Zj3sqGnjGiQvh8ey7I0/gulyfvCJ1HOvPaFpRSt7D+5B4lMufyMPckbe5ncI+deSJ5I3cQ1oIJw/1uJO3uiPP9WeUvDh1bguwSSseyduxU8JLxQHvAo8774jUYYewJc14t7jjnUPasp93kTveUZ4/8e5yl+ZP3EPqeBcSd2wvFcq8O+HEwjvVHe9ajzvv4NQRDvEn7qm45Z3uzyjveneUAYgD6U7ZwJ3nT4TFtdL8ibKGx50yiDvKJv6MUmZxR1nGn1GukzrKQNgpcads5I4yk8edspQ7ylj+jFL2Sh22yP1iY5TZ3FGW87inlcGU/Yg7caFM6I6yot8vdpE6z5/wp+zpjjKpx52yqjvKsB4W8UwdZV9/RikTu6Os7PkTZWh3lK097pS5U5fmT5TV3VGG92c0rXBAhHr+hBZwR8WJ50/EJ3VoC8+f0krMNH9Co7hDu7idZvMnNI/HHS3kDo1EWqGZ0E55X8bL+w2Wuj+HrbUIiIAIiIAIiIAIiIAIiIAIiEBpAqW0VN78JEhLp518RUAEREAEREAEREAEREAERKChCeRNfJa6HwnShjYx3bwIiIAIiIAIiIAIiIAIiIAIlCZQSgDmzU+CtHTayVcEREAEREAEREAEREAEREAEGppA3sRnqfuRIG1oE9PNi4AIiIAIiIAIiIAIiIAIiEBpAqUEYN78JEhLp518RUAEREAEREAEREAEREAERKChCeRNfJa6HwnShjYx3bwIiIAIiIAIiIAIiIAIiIAIlCZQSgDmzU+CtHTayVcEREAEREAEREAEREAEREAEGppA3sRnqfuRIG1oE9PNi4AIiIAIiIAIiIAIiIAIiEBpAqUEYN78JEhLp518RUAEREAEREAEREAEREAERKChCeRNfJa6HwnShjYx3bwIiIAIiIAIiIAIiIAIiIAIlCZQSgDmzU+CtHTayVcEREAEREAEREAEREAEREAEGppA3sRnqfuRIG1oE9PNi4AIiIAIiIAIiIAIiIAIiEBpAqUEYN78JEhLp518RUAEREAEREAEREAEREAERKChCeRNfJa6HwnShjYx3bwIiIAIiIAIiIAIiIAIiIAIlCZQSgDmzU+CtHTayVcEREAEREAEREAEREAEREAEGppA3sRnqfuRIG1oE9PNi4AIiIAIiIAIiIAIiIAIiEBpAqUEYN78JEhLp518RUAEREAEREAEREAEREAERKChCeRNfJa6HwnShjYx3bwIiIAIiIAIiIAIiIAIiIAIlCZQSgDmza8hBWnPnj3t2muvtWuuuUaLGMgGZAOyAdmAbEA2IBuQDcgGZAOygcQG0EpopryJz1L305CCdLzxxrOVV17ZunTpokUMZAOyAdmAbEA2IBuQDcgGZAOyAdlAYgNoJTRTKQGYN7+GFaSlG6XlKwIiIAIiIAIiIAIiIAIiIAIiIEH6669VU+TAlRMBERABERABERABERABERABEShNQIJUgrS0ZchXBERABERABERABERABERABKpMQIJUgrTKJqbgRUAEREAEREAEREAEREAERKA0AQlSCdLSliFfERABERABERABERABERABEagyAQlSCdIqm5iCFwEREAEREAEREAEREAEREIHSBCRIJUhLW4Z8RUAEREAEREAEREAEREAERKDKBCRIJUirbGIKXgREQAREQAREQAREQAREQARKE5AglSAtbRnyFQEREAEREAEREAEREAEREIEqE5AglSCtsokpeBEQAREQAREQAREQAREQAREoTUCCVIK0tGXIVwREQAREQAREQAREQAREQASqTECCVIK0yiam4EVABERABERABERABERABESgNAEJUgnS0pYhXxEQAREQAREQAREQAREQARGoMgEJUgnSKpuYghcBERABERABERABERABERCB0gQkSCVIS1uGfEVABERABERABERABERABESgygQkSCVIq2xiCl4EREAEREAEREAEREAEREAEShOQIJUgLW0Z8i0MgY8++sj22msvLWIgG5ANtNsGbrrppsLkiYqICIiACIhAvghIkEqQ5ssidTcVJ/DQQw8ZD/rhhx9u++yzjxYxkA3IBlptAwcddJAttdRSttpqq1U8b1KAIiACIiACIgABCVIJUj0JBSfw8MMP29xzz13wWCp6IiAC1SJw7bXXSpBWC67CFQEREAERkCD9VYJUj0HBCSBIZ5999oLHUtETARGoFoGLL75YgrRacBWuCIiACIiABKkEqZ6CohOQIC16Cit+IlBdAhKk1eWr0EVABESgsxNQl121kHb2Z6Dw8ZcgrV8SP/jgg3byySd36AbOOussu+yyyzoURnMn33fffXbRRRc1d0in3TdmzBibb775jHUpd+6559oPP/xQaleh/CRIC5WciowIiIAI5I6ABKkEae6MUjdUWQISpJXl2ZbQyGB33XVXGzRokL311ltxefvtt+3DDz9sMajPPvssdGN5//33Wzy2vQdsttlmNvXUU7fq9Kuuusq6d+9u559/fquXU0891X777bdWhd/agxCBr7/+etnD33zzTXv33XfbvLzzzjv2wQcfxHDHjh0b+LMu5WaccUabfvrpS+0q6Yewffrpp0vuy7OnBGmeU0f3JgIiIAKNT0CCtBMI0t9//90o2H7++edhYfvnn38O1nv88cfbf//73zZZ8sCBA0MhraWTstfk+G+++Sbeh98P6y+//HKc4L777jvjkyXNLYMHDx7nPDx++umnJv6LL754EAOpZ7lz02PKbd9yyy127733ltudK38J0paTw4VHS2JhlVVWCZ/NyIY47bTT2jnnnNPEe4EFFgjPyVRTTRXWZLYsf/3rX8P6L3/5S5PjS/3xc8qts9fMhoEY5p6bc9tvv739/e9/b+6QuM/vY7LJJrPJJ5/cJp544pLLJJNMEkQu+zmn1PMdA23jxi+//BLC7Nu3b9kz/T7bu04DJozmHPvbUmGwxhpr2J5nVrIAACAASURBVEwzzdRckLnbJ0GauyTRDYmACIhAoQjwLq3mMMpKhT1epQKqZTgtFWRqZUk333xzKMBxP75svfXW4fLzzDOPPfDAA01uhWPSVoImO//3Z6GFFrL11luv1K7g5wV8vx5rBOaEE04Y7yHdx3bWzTrrrLbccsvZP/7xD1t33XWbLFy7a9euNv7442dPs2eeeSZcA9HojgL0K6+84n9tttlmG+fc7P2k/2nlQYAee+yxIYzdd9/djj766BhenjckSFtOHVquSO/evXs3ezA2udFGG41zDOeOGDEi+u+0005BqEWPZIOWO45vqYWUljdmR/70009DpREVRyxUpBx66KEhDFpem3MIw5bi1K1bN1t00UWbCybu474vvPDC+L+5DVopq+G4h0MOOaRdQe+22242xRRTtOlcrueOtOP8OeaYIyx0551rrrlswQUXjH5UOLTUIkyY5513ngeb+7UEae6TSDcoAiIgAg1NgPdiLTVae68lQdoBM7vhhhtshx12iCHcfffdRiEUR0H0kUceifswCBdd7sm3KxdeeGFDhLIstthiNuecc4aWHrbdn2PSwmpakPNtX3vYvi7lT9jrrLOObbHFFka3wnTZfPPNbcMNN7QZZpjBg2iy/vHHH0OBnbjj6JI4YMCAsM21tttuuybH+5/bb789CF/+jxw5MoTh+2iN2mqrrcLf/fbbz0488UTfleu1BGnlkgfxsemmmzYJ0CtA3PPggw8OdvPss8/aiy++aLTksTz//PNhjf3ttddeoTsp/pyf7aVARRGip5Sj6y9htCRGObfUc5UNk+driSWWyHqX/E94p59+etjHdpaFn3TGGWeEa9O7oZLuxhtvbFWcyl1z2223LVtRkJ5D5RPxyy79+vUzvst5zDHH2JFHHhkW36aC6qijjrL999+/SeVEGq5v33XXXR2Kh4dTq7UEaa1I6zoiIAIi0DkJ8L5tr0is5XkSpB2wT0QZAowJVvbdd1+78847mwjSxx57LISOMRx33HHjXIlWgD333DO0EPbq1ctYCINClf8n7JVWWsl23HHHeD7h4a6++urYbXCCCSYIApgCOGPAKFxTaPdj48lmRqH8qaeeso8//ji0JtGi5AuF8f79+4/T2vHGG2/Ya6+9Fgr7L7/8chChX3/9dRDPtJjS8kt8v/jiC6MF56WXXgoPgF+XOLnoxC+9L1o06N6IkyB1Yu1fU+j/97//HSod+M5h1rkt3nTTTcG2qFShy3cpx7jG1VdfPVReZMcWYmuXXHJJOO2kk04Kn69ANAwfPrxJUAgLupmnjt4FdLF0u6YbblaEcV+0mOPWWmutcUQMNtTS4oJwyJAhQTBxPJUu9Azg+ixrrrlmqJRh33TTTRfuA/+11147cEzvm+3bbrvNZpllluDNuqV7aG6/h80xp512Wvj7/fffhzCpkEodzx3HVWMipokmmsgOOOCA9HJt2kaQ0tW4JTd69GijazBDG4gLax/m0NK5rd1PuNdcc01rD6/rcRKkdcWvi4uACIhA4QnwTqylsGzvtSRIO2CK3kJKyygF67SFlFZIBByGcOmll5a8CoIUodaSQ6R5wZ1jCRM3//zzG610OArSdLOl6y5j6Fi8G284IPlh3CetoDvvvHMIl7B9oUsk3Y7/9re/JWeYMZaP6xIuBU9amfjPQmsqBXNaS/36+FOAvv7662399dcPLUV0laTVCLHEfrYRqVdccYUEaRPa7f9DF0dnS/qyzXjD1OG39NJLh31MorPCCiuEbSopUsdxLFSa0L2b7cMPPzwewgyy+GEP2DKixM9Ju9ni99BDD8XzsD/8qIT417/+FbZnnnnmWJnjB3IMLWe4XXbZJYxfxi/rqMSh63jW0aJKPHGIHmwcgU0YiF2EKQv3gR/d1TkGP+yyS5cuwT8bLmLWRT3d5X2sNuM5ffnjjz+MeM4777yhR4D7p+tUpHN9F6R+PfzoGowbOnRouBfGrlbaIda5FmPY2+uomPM8YpFFFik7e24aPtdM3a233lqSNy2m2WPT87Lb2OqSSy6Z9c7lfwnSXCaLbkoEREAECkOA92d7RWItz5Mg7YDJuSClRYoCM4LUx5BSKOO/O28JSCcFohBPa0tLbu+99w4FZT/OC2e+xj/d9uOy/kz4gXhAyHJ/dAUutbAPYTPllFOWDXfllVcO480odNOC+89//rNkgfbRRx81Pq9BKxvjVi+44AJj3Cj3S2GMrsh02d14443DbauFNE29tm3TSglXBEbq8KMSwB3/EQ+pw27xd0eBPv2PP11j8XvvvffCYbRC8R+Rlzr8mNTLHf/79OkT/tLyz/904ivGIOO3zTbb+CmGoMMv60r53XHHHSUFKV1AXZB6OAhJbDvrCJdeAKlDoJe6Hn6t6dbLs1bq/PQavs1xWUHKPgQpYyvZT4ttNRzd6Vt7n+WuT2XENNNMY/SuICyWliaGSq/JWGNaT/H79ttvm1wGW2xL3L2ipEkgOf0jQZrThNFtiYAIiEBBCPBeraWwbO+1JEg7YHAuSPneIK1RCFAElc8CihGUWvySHNezZ0//W3aNIKXl0h1h4lgjEnC0TNJ1lnFzjz/+eOg+y6RKfizH+CcWOId9viAWWPw/a8JJz2H7k08+sQ022CCEiQjA0dWPMaS0gHn3RbptMgNx6pi0xkUJ/ul90fWXsak4JlXx1qf0/Dxu520MKa2EtDhmHd/rTHmzfc899zQ5jM994O+ijG26i2cd16AVEeeCNHsMNuFdbdlHWJ72yy+/fKgQyZ6DQKZl0h2fQaHCJnWlJvQi7OYWJuhKHeO4ee6yjjBeffXVJt48R/injtbQrF+637e9RZNjsy3Pfky65rhSgpRj2McybNiw9JSKbZ9yyimtilNzF8yOIaWCjnum50apLrnYGfvpGs16yy23DMGzTdqnDj/y2tY6JpvinEZwEqSNkEq6RxEQARFoXAK8D9srEmt5ngRpB2zMBSmtPnvssUeTLru0BiLU+C4iXfxKuRVXXDEUnDCWlhYmQHLnha20BYfWCbo9sm/SSSe12WefPXSl9WP9XNb4HXjggWFGUSYLoQWC8WpMHoIgLNVFjnNYENyp+89//mMISne0ztHdkWNpGcUxWQv/3THGMP2PPy2tq622WvBvjUj3sOq5zpsghSniIuuoLGCfd6NlG2GVdfgzuQ3dStnGjlj8EyTe4kerOg7hwHFZR9dtZl11xzEuSAkjFZ5+DGNE01l26UZ85pln+u64JixmxyUuLtAo1HvXVvzcH+G8zDLLxHPZYMIs7oGxr9guC9uEi4g+99xzg5+Pa87GD3GPnbbkjjjiiPAdTe6NbrstOa6TFaQ+QzHjYL2LdWtaZlu6VnY/E0GRzh1xWUFKWHyyhXixeFqSZ7ofazi98MILsYsv3fvpcuuObs0cR+tpa12aL7b2nHodJ0FaL/K6rgiIgAh0DgK8Q2spLNt7LQnSDtgj4yMZf8YYSCZuoesbM9bimGXXPwuBMZRyjKlk4qGWHMLusMMOi4el4fm2r5mBNP0+Il2EvbDuAdCauskmm4TJW2iZoAsjEx2xzcQyrD08P6dUKwf7ssf58awpUONoMcs6JtuBnzsmuWGSnWwrle/P4zqPghTBlHW04JNOXqhnu5wgpTLAWwERa7S6k06+0MWclkNcOUHK5znKCVK6n/ozkt4nlTapIOUes103EaGl7I3nrtQY0lJddr01kJY7vmPqCxU4qR+imonCstdj7HRrWus477rrrgtRZJtJxppzHJMKUsam4pd+V5NeBq0Jq7nrlNpHjwTC7YgrJUg9PCoXqOjA0RPCZwgudU2vHPBzqSAo9Qkq319qzTCBUmGXOrbefhKk9U4BXV8EREAEik2A92F7RWItz5Mg7YAdMgkHE6fQpZbJiejiSFc1XPrZFwSfd3FNL4eRtKfFIy1ssY2AYLKhr776KgSPH61EiAi2s5++wI/v+Xm32hNOOCF8coGTfYZUjkkd/9u6MF4UhzClQIq4YUHUID4Jj+7BPXr0CF1IGYuLMPWWvPT6edzOmyBFRNHSmHXZFm/nnh6HHeLv9sh2qZZqZlD27tXtEaSMJU5Flt8DE2O5UH3nnXfCvfg+X/s9UpFDjwAWthGj3O+MM84Y/ZmUC7+0coZw6LLrLbwebrk1rf1M+sSssO4IsyW37LLLNrl/eh20dB77XZC6oGJitKzzbvHPPfdcdle7/3urZbsDMAsTWmUnz2opvFJMGJ+c+sOA/LUtDpGXhtGWc2t9rARprYnreiIgAiLQuQjwPqylsGzvtSRIK2CXFBLp8uYtUASZClLvupa9VHsLTZzHdxYRuR4Ga7pa4nzsG992LOU4li7FjOdjciLun8I82/gxSZGHW+p896NlxWfbdb9Sa1qBOY5uuSx0QaSg6ffh/qxpBUonfioVXl788iZIfQZZb4GCk08U42P08IN79juzsKdSwx1dXbM2QBd0/Fw4tUeQ0j2TMJ5++mm/VJwsySc1OvTQQ0uOhUUgcy73wRhnFmZypvcArf6pP5+oofsndp46BCm9AdriGOfIs+HfKW3uXMQT98jnj1LH/ZVqxfVjOAdxQuUQ28xAXc5R8cAxlXLcK+GlE021NezmWkjLhVUuDvh7JRrbPq65XDhZfyZY0yy7WSr6LwIiIAIi0BkJ8B5tr0is5XkSpB20TsaIktguAj04CvgUvnG0RDIuKi0I0xLImM/2OK7H2E+6PyIKcPh5t1q+KUnhHnGXOiau4VuDTDrEGDkWPknD5y6Y/IVt/BA2HMeSjg9Nw6Jlk2vispPmpMc1t+3nN3dMnvflTZDCysfhMj6ZdIUxFQ6pw2/OOecM+2iV5D9LVpC4PxNZ+XhnhJm7crOZcp7PNu0TEaUTJPEZGY6h4sM/OUOFhY8dpKtsOkO1Xw+hwZJ1dI0t1S2c8c5ZYcI4aWaZboujCzLjoPlUjPeAKHW+f8LGx8tmj3GetABnHfvgieP7wi0578nQ0nGt3c/1vaKhteekx1VSkHq4PvGR/2/tmrhU41utrb1+W45TC2lbaOlYERABERCBthLgnVhLYdnea0mQtjVlM8eT0Hy2AkdLDf9xfDplzTXXDP+9ME6hmcI2jtYSH1cVPNrw49dIT6EFxlvIvHWFMXkcS9did3SXZZKb+++/PyyPPfZYmISI75Iiqt2fY5isKevoNumtZ2krEJOWcC1aeFJH+GeffXa4N+6PhYK3T3TEWFL39zVh0dqVd5dHQQozZlFmki1mZi4ljkgnWq0Zb9ytW7cwiU851tgL35hERHJ86vhuJTPtZh3fBaXl0h0VHVmxyzPDpENMroXjnr0bKqLTxx97GKy577Rl1fddeeWVoYXU//sawZsKaPypcCEc7p1Zo7Hncgtd4X38Lb0c6J5PBVTWuXAiXK+Eyh7j/+muzHF0JfZWQPbhRyUB6YGYR9yWW3iuGQNOyy33VwnnY2vbG1ZHBCldo1ddddUYXz5RxFh2KlLI12ACCyossOvmHM8kLBvFSZA2SkrpPkVABESgMQnwTmyvSKzleRKkHbAvEjlbE8/YSBz7fExcegnGSdL6095Ck8+8mYbps9ZSoM22aDI+k2v5Zz3Yzi5MekSX46y//+cTFoyD9f/pBEvpfdBCS0Gb4yhI8o1RJnxCGDC2MV3WWWedwCf18226DSOI8+7yKkhb4kb6VErItHStSu3v0qVLsKtS4TFWmTjhvCu42ypju7POu5n7MS2t/TM32XD4j+Dl/Nlmm81GjhxZ6pBx/C6//PJwDpP1jBo1Kuyn8gDRRTfj1i60hmc/3zPOxdrgQTyoPGiPoxKM81tyPkaUY8kjcIxJJo/IxhvhjTB1f/KMXXfdtdlLEG6pmaabPamOOyVI6whflxYBERCBTkCA92IthWV7ryVBWidj9PGe7bk8M/pm3bvvvpv1quh/WnNpSWqtY3xrR+LY2uvU87hGFqSlusTWk2VL1/7www+btCimxzMjrbfIMv64X79+YaHlrdqO+0JgFsH5GOG050Nr48WMzAjq1jjGv7/00kutObRNx9CS2tw43TYFVqODJUhrBFqXEQEREIFOSkCC9Ndfq6bIgSsnAvUm0KiClAmNmBBITgSyBJgMiu7TjeioNGPMciM5CdJGSi3dqwiIgAg0HgEJUgnSxrNa3XGbCCBIy81k3KaAdLAIiECnJMAEVnS9lhMBERABERCBahCQIJUgrYZdKcwcEUCQMg6QSXyYnEmLGMgGZAOttQHG9zNGlhnO5URABERABESgGgQkSCVIq2FXCjNHBN58801bdtllw7cu+d6lFjGQDcgG2moDp556ao5yNd2KCIiACIhAkQhIkEqQFsmeFRcREAEREAEREAEREAEREIEGIiBBKkHaQOaqWxUBERABERABERABERABESgSAQlSCdIi2bPiIgIiIAIiIAIiIAIiIAIi0EAEJEglSBvIXHWrIiACIiACIiACIiACIiACRSIgQSpBWiR7VlxEQAREQAREQAREQAREQAQaiIAEqQRpA5mrblUEREAEREAEREAEREAERKBIBCRIJUiLZM+KiwiIgAiIgAiIgAiIgAiIQAMRkCCVIG0gc9WtioAIiIAIiIAIiIAIiIAIFImABKkEaZHsWXERAREQAREQAREQAREQARFoIAISpBKkDWSuulUREAEREAEREAEREAEREIEiEZAglSAtkj0rLiIgAiIgAiIgAiIgAiIgAg1EQIJUgrSBzFW3KgIiIAIiIAL/x957fzdxbm3//9H3h3d9n7Xec85zShrddEwvIXQSWgIJkEICJKEGkkBCaIEACTWNBAIk9N472AYMtrpcZUu22vWu65ZHMRxDbNmWNdKltcaSR1PuuWZrz3xm73vfUkAKSAEpIAWySQEBqYA0m+xZxyIFpIAUkAJSQApIASkgBaSAjRQQkApIbWSuamprFIi43Ch7/2OUL1yadVPlvA/xYP8RXC1y4cqth5qkgWygDW3A4S5vjetp1brxWAyVn61B+fzFWee3Kj5YBNe6Lbh2z4Urt+W35LtlA21pAwX3XYjHW+V+tHIaFRCQCkjTaG7aVUcqEC68B8dzPeDo3BeOLtk1uf/dFRc+3YhrxV64fZVweio0SQPZQCttgL+la7cf4WZhaYe5rng0CvewsXC82Cvr/JbrhZ64O3EmTt18JL/VSluVz9c1z7IBl7cS9x95cepSIeIi0g7z3S3dsYBUQNpSm9HyNlUgfO8BnF36wdlrMFy9h2TV5OncGxdXb8bD8lqbnh01WwpkpgKPnP4OBVLEYvCMngxnj/ys8ln0we7uA1AwZQ4uFbky8+SrVVLApgrUButw5kqRgNRG509AKiC1kbmqqa1RIBeAtNhf0xqJtK4UkAJPKFBc6hOQttMDvCSQFjqfUF3/SgEp0BoFAjUhnBaQtkbCtK8rIBWQpt3otMOOUUBA2jG6a69SwM4KCEjbL5tEQGrnX4banskKCEgz+ew03TYBqYC0acvQ3KxTQECadadUByQF2l0BAamAtN2NTDuQAm2sgIC0jQVNw+YEpALSNJiZdpEJCghIM+EsqA1SwF4KCEgFpPayWLVWCgACUvtZgYBUQGo/q1WLU1JAQJqSbFpJCuS0AgJSAWlO/wB08LZUQEBqv9MmIBWQ2s9q1eKUFBCQpiSbVpICOa2AgFRAmtM/AB28LRUQkNrvtAlIBaT2s1q1OCUFBKQpyaaVpEBOKyAgFZDm9A9AB29LBQSk9jttAlIBqf2sVi1OSYHWAqmz5yAzFiDHA+RnVzPGM+WYp868gYn1ug+A81lTC7b75Diq1jikGvYlJdPQSlLgqQpkA5AaP0T/0gIfk/R3z/JZj32Xn/B1zfCLlv9Sld2nmp2+kAKtUkBA2ir5OmRlAamAtEMMTztNvwKtAVJCpSt/JDxjX4Pn5Ulw9hmagEvrJq+pdwJsz0FwDx0L77ip8E6aAe/k1/97mvS6+c4zdgrcQ15pNuxaN3V8F5Cm3560x9xQwO5Aah6e0UeMec1Mrn7D/3yw1pTfMvMGwtV/BDyjJ8M7cQa89FFN+a7G8yZMh2fkBLjoG5sJpQLS3PgN6SjTr4CANP2at3aPAlIBaUo2FA6HUV1dDb43fsXjcVRVVaG+vr7xbPM5FouhtrYWkUjksf9DoVBy2Wg0ikAggLq6uuQ8ruNyuZqcnE4nPB4PGm+Dn30+H6zvuD3O43Kcx21Z72wr22y9uH9r3Sf3+bR1rHUz/T1VIHXmJSKjlSu/QKyyCuH7xSj/aLkBU+smr/G7lzd+r7wK98CXTcQgsHUHYoEaxOrqEC2vQLSsPPFufa6oRLy+3syrXrcZjm4DmhV9bWsgpT3z3Hu9XtTU1DxmF5l+btU+KdBeCtgZSK0op2/KLETdXkR9ZahYsdo8IKOPauy3+Nn4rjGvwTVgJPxvz0f9jduIR6OIVlYl/BZ9l78MUZ8fUX+DH2vwZ/FIFMFjp+AePs74vcb+6Wmf2wpIeY20fFdlZaV8V3v9GLRd2yggILXNqUo2VEAqIE0aQ0s+3Lt3D1999RWOHj362GqEto8//hhXr179r4sib/R37tyJhw8fmnUIg9u3b8e+ffuS27h16xY+/fRTnDlzxswLBoPYunUrnn/+ebz00kvo1KnTYxPndenSBT/99FMSgrm9IUOG4J///Ce6deuGJUuWmO979OiRXJfrde7cGfPmzQMv4NaroKAAQ4cOxXPPPZdctvE+uQ6Pj2232ysVIDU3dD0HoWzeR4mbs3AY0apqRCueAEvCpTVVVCLqdKPy86/AaERg2w5zI1i96btEBKHvMBN9YATC1XeYAdvArp8Q8fhQvZ5A2j/tQErbXLRoEcaMGYPhw4fjs88+Q2lpqd1OsdorBdpcAbsCqfFdeQNNhDN05jxifOgVCDzbd1VWGl9VtWErKpasRN2VawidOAPvxOmJzI2+w+AePNr4Mfegl000lLDJzI5wwT2Ejp1MO5CWlZVh48aNGD16tPFd7733HgoLC9vcDrRBKWAnBQSkdjpbibYKSAWkLbZaK4r5888/Y+LEiTh8+LCJlPIJ7XfffYcVK1aAF8nG0VN+fvDgATZt2oQbN26YfRIEt23bhl9++cX8X1JSgi+//BJr165NrstI1Z49e/Dtt9+aqKb1FJgAwc9ut9vAw6FDh5JR1b179xqILSoqMiC6bt06nDx5Et988w38fr9Zj9HPEydOYNmyZY8B6e3bt02b+M5j4H6sqby83AA4j5HfNecVD4cRj8Was2i7L9NSILX6XVUs/QyRklJEnS5Url6XuCEbNdHclHn4/vKkPyf+P3ws3INGG9hkn63Atp2IeP2oWrcFrkEvw9mdfa0GJabuA+AZOgaB7/Yg4vKiev2mtAMpz+uCBQuwZcuWpG188MEHxl4aP6xo9xOkHUiBDFTAjkBq9V33TX0T4cJ7JroZ+G43jL8aOSHhu0b+t+9yDx8P9+BEtwFGSOuuXkfoyAkTUWUqLqOq3E74USmq1n4Nd/4o89DNNXAU6u8UInT0RFqBlFkdq1evxsqVK80DNF4TeZ2j/+K1Ti8pkKsKCEjtd+YFpALSFlktU18JZIw8Mor4t7/9Df/5z39MBPPFF1/Ev/71LxOZZCTx/fffNxdFphPxAsl5XP7vf/+7iVoS+nbs2IH9+/eDMLpmzRps2LDhsfRbrrt582azj8aRysafGe384YcfkhBLIN29ezeuX79uYPb48eM4cOAAunbtatpgrcv2vPPOO48BKZ8sM7rKiCyXZ/S18cR1PvroI5Ou/CzhmAYcC4VQtXEjQmfOIFZTAzRKDX7Wuu31XYuAlMWIug9A2bsLUX/zDuquXEfw6ElEPd5k2m2MkdLKKkR8ZY3ScMsR+OEXuPqNSPbTsoC0en0DkLKPVkP/UsJpRwIpzxMfqCxcuBD3799PSs+HJJ988gnu3LmTnKcPUiAXFbAlkPYYCO+EqSa6GXG4ENjzEyIuT8J3+ctgfFdVVSL9tiHlNlZdjdrfj8I7YRocL/WCf+4HCb934jSqv9mOiNNt/F28LtEdhf6dWSHh+w/A7gzhovsGXtOZsssHrXyoeurUqaRpXrp0yWTxnDt3LjlPH6RArikgILXfGReQCkhbZLUExB9//NFEMhll5BNZpucuXrwYR44cMRFLpu3yQslUWX7PdQhxTM9l9JNpu0yxvXbtGr7//nt88cUXZj7Bs3FfUDaM63IZRkiZQsmIaOPJ4XDg888/xx9//JFM2SVMcPldu3aZiGxFRQVOnz5tnhwz2sm+pFyPoPpkhJQpw4zaEma5Hx6LNXFdwguB/FlPn9nnKHTqFDxjxqBi2TJUrFwJ7+uvo/7mzRZp3dYLtwhIew9JpKgNGAn3sHHwTn4DNT/vA7dR8clqlL3/MSKlTtRdvJKMOvimz0G4pBTBg4fhGjDqv4CUaXDuIWMS2+2dGEqBYOoZPg6B7d+bG8Z0R0jZr5mRUdoQI6XWq7i4GB9++CEOHjxozdK7FMhJBWwJpCwqxPTaYYmCalUbvkHE4UbVVxuNLyM8cvLPfAeeEeNR9t6HqL9TgNDpc/C9+safQHo18SDO99pM4+d8M2ajdu9+03808O0ueMdOMdkh7hHjExHSI+mNkPJB7KpVqx5L0eV1ef369eba17g+Qk4arw46ZxUQkNrv1AtIBaQtsloCI2/gGTXs2bMnevXqhe7du5vIKCOK/J/zOW/27NnJCCnh9PfffzeQyH6nTLEl9PGCyjTeu3fvmkIyTTWGBY6YJvy0F9vUOD34119/NVBJKGXfGkItnxYzctr4xWgo04sJrATRYcOGmcgoo6Psb9q7d29zPI3fedyMAnMeQbqp4k3cRzwUQt3Vq3CPHInyRYtQf+cOmL7bka8WA2nDkC2Ol3rDO322gc/6azfge3WmgdTafQcRflCMwJbtcHYbYIqAREpdqN1/ZLUwGwAAIABJREFUKBEhbRgSIVnUKBg0/bNMQRAWBbEmfxniDQWPEkWN0teHlHbF/qJ8yMDiV9aLDywYNWV/ZN3UWaroPRcVsCuQ8mGXo0tf078z+McxhItL4H97AXzT3jIRz/DDEtT8tA9uFjB6fS7Cd4sQPHXOVPx2vNAT/jnvI3TxCiLFD1F//RYibg8iHi9itUFjBrFAABGXGxGH06T2Rh6VInT4eNpSdumX2B2FtRz4sNR68YHr119/bb6T77JU0XuuKSAgtd8ZF5AKSFtktYQ7RjfZb4V9QlmgiLDHCCijSZzHgkeMJDaOkPIz02aZosu+m7NmzUrCH1N+8/Ly0LdvXwOCBENeZFnMiGBIyOV3fOdyT07W/P79+5voLdN1GYW9efOmia7+9ttvBoC5HpclTPIzofntt9826bcESxY04oWc67KfK6GEKcRMJb548aKJ0DK9mCB69uxZE2l92gU/4vXCP3s2Ajt3onrTJgS2b0e0g/v0tAhIG1J2eQMXOn3epKbFIxGwkqSpMun2JNKQCd/RqLkxYwVexAnjdYi63YmbvcGvGGDlOrz588/5AL5ps+GbMScxTXsLZW8vQO2Bw4miRqbKbnqBlA8lGE1vDKSMxhNIeb6fdo5b9MPRwlLApgrYEkhZzGj8VNQeOmIefLGKN3/HjQuv8X/27496fabLQTwaMw8No2UVqNl3CFXrNiN04RLqzpxH2dvzE8O+cPiXidPhHT8tMRyMGfblDfimz0Y9ixqlMULK7A5em5h11DhjR0Bq0x+amt2mCghI21TOtGxMQCogbZGhMRpJUCTQDR482FSkHTBgANh/tE+fPqb/JecTDufOnZtM2W0MpEztZfSSUanly5eblCMWM2Kf0wsXLphUXvYpZeoRQZCRVQIsU4X5P/vIPDlx/uXLl83+CMwEX6ZgEoyZjsl98p2FmNiflRDNVGO+c541zAxh+eWXXwaPiWDMvrKM/Obn55tj5XEtXbrURF2fJRxvgOrv3kWsthbRsjJEXC4ztMmz1mnv71oEpA0puyblbfIbCOz+EbxRC7KP1atvoGr9N4hVB0wfLd9rs0x/K/azYh/T4B9HUfbOQnPDxuIirLJrihqt3WyGU3B26WciqoyqmgjGoJdRvW1XhxQ14hBEBFI+hGgKSBUhbW+r1PYzXQFbAmnPwcbXcPxQFmXjA7H6azcNWFZt3IpoRRXqLl1B2TsL4Ht9LqrWbjKFioInz6D840/AMZG5XrigCMEjJ0xKLx+osUBS+N5903WBKb/1N2+bIkcco7n+dkFaixoJSDP9l6P2daQCAtKOVD+1fQtIBaQtshxGSHnzTqhjH0wWUyAAMj2XoMp5TMklcHIZPq1lpVwLSLnusWPHTJ9PRiHZP5T9PwmTjDxaQ8I0bhQjrqyCyu0058U+pKzMyzReRjLZT5Rt4nxCKp8os38o28btss3W2KhsC9N8GVW11mX/WK7LoWiYrswoauP+hs1pUyYs01Ig5XAGJu3tue6oXLXWjD9asfRTlPz//zY3e9U7fjD9sCpXfgmm9XKYBBb+qN78LZxd+sLRqY8pjPRnUSP2IX3FjNFnqmA2pAR7ho1N9CF1s8pueod9Ycou+1vRDhvbF6PjrFxJW9VLCuSyAnYEUuO7WMm712CUvb8ITM+t/uZblD7fw/g0PlDjeMrVm7+Ds1t/lM37GOHiR+bBG8cgLf1XV5TPX4z6wvsI7PzBQGv97buov3oDvjfehn/Wu6hY9AkixSUInbsI19AxaQdS2iSvs7wmNa76zvRdXotZs0EvKZCrCghI7XfmBaQC0hZbLaGUk/ViuisLEvEmvvHL6tfCqKqV/kjYe/PNN81FlCmyjGQylZfjerKYEGGv8YvAwCgmI7IjRoww40RyrEhrGjt2rPnMSBb3wxfhcdy4cSaiOWnSJNM2wiUjrHyqzP6rr776qom6EkQaR8ZYjOnKlSvJJhBkmYpspW0+evTI9CtsDC/JhTP8Q0pAmjcI7qFjUfPrQcRjcZOay6EQWHmX44byZaLB7GPlcIJpb4xGBE+dNem5zt5DEhFSjw9VX2w0N4iO5/PgeLFXYnq+hyk+YqpYujxpH/aF9kC7YPTcslceE4tgscpuY1vI8NOr5kmBdlHAtkDak75rDKq37DAVzumX6q7fMpHSSGnDtSoaM8WMIiUOxMMRxCoqUX/1uulnyuJt9Gkc3sU7YTrqb91FrKLKAGjdhcuJcZnrw6i7dNXsJ90RUp5sPjhlUSNWrLdevK5yLG8+XNVLCuSqAgJS+515AamAtNlWy2qzjC5OnjwZ06ZNw2uvvYYpU6Zg/PjxBhiZ6sp51nwuw0G6GQnlxMJFHCONfTwZCWW/F0ZMWWyIF1FC7aJFi8w8q1EEQT79JUQy6sl1G0/s+0e45LsFyQRSAjCLJfGizH6tTPFlf0CCL4vYsG0c8qVxMSSmBo8cOdKk53J81enTp5vPTN+dMGGCWWf48OGm7ymjpqwgbKdXSkDKm7qBLyciAp+sQuXnX5mxSBkxrVixGuUfLUf5giXmc+jCZVPwI3j0BCpWfGEqUDLCaooaVVUnin9cugouxxs6TqHzl1B3+bopGBItK0e6ixrx/DECP2fOHJMObp1P3uTx4YjdzrHVfr1LgbZSwLZAykq7/YbDN2UWKpZ/jsrP1phMD/quyk+/RPnHy1G+cCnKP1wK+qxYoAah85dR+cV6+N54xxRnI6jSx5nxTO8VI/KwBBUrv0xs57M1KP9wGViBl+MtE1hDx0+BY5k68waCUdq/mtzdB6BgyhxcKnSmdLpYDZwPznhttF58OMvMH2YB6SUFclUBAan9zryAVEDabKtlNVoCHgv9EPY4ETB5805gI6QRKjlZ3xM42ReUL0ag2G+U/UP5CgaDJk2XUU6uQyhlhJJ9T9mntLKy0iz3V3+Yctk47ZaAS0C1KuDynRds9m1l6jAv2Ow/ypRMphtb0U9e3PkdK/8ycsq+pezX+u6775rj5HxG0/gd22ml+f5V+zLl+1SA1Erb5Zik7O/p6NwwvdQL7kEvo2rNRtQePIzgkeNmGBimwXknzoCjaz9wjFFnXj5qdv5gCh3VXbkBpu9WbdgC9uMy04YtCHy726S7xWpqEdi0DY5u6StqxHPD88hIw8cff2z6B/OhCG28qKgoaRuZcg7VDimQbgXsCqTGd5nibPmP+y52JejaD5WfrgErhdf+9jsij0rAKrllHywymRvl8xeZFN7aQ4fNUFXsS0949c9+P5HZ8VJvA7vVG7cieOgI2Pc0FqhFzfc/wz2Y3RIG/SWMsn2tBVJeu6yuJXwIy+4pvHaypoJeUiCXFRCQ2u/sC0gFpK22WoIqq+5yGJVnvRhhJcBayxEACbGMohIQ+bL6fT6ZSsvvmF7JsUtZCIkXX1b2nTdvnnln9NV6ERy5H7aLL74TeBnJJWRaoMr+r9wWgZYpmjwGPm0mqDLliaDNlF+ux30xssrvOLEQTlNttNqQie+pAmlTT/kZ+XQPH2eiBTW7fzT9rKq37jAFQUz/0J6J/ltczv/WPFR+sQHeqW8ZSGV/U/YvNdNLvc3Nm2/mO6hcvR7+N+YmoguMbjQjwmAt4+ncGxdXb0axv3n9jJ88P0z3Zmo2+17xoQmj6npJASkA2BlILf/Q+J3+ydVnqClaFNi+B4FdP4LvFcs+M90TCKuMqlZ+9pWpBG6KsOUNNBDL/qaWf3MPHm2yRQK7fkBg5/eo/norfNPfMl0QzD6a4b9aC6S0T17P2K2F1zj2G2U2kF5SINcVEJDazwIEpALSVlttdXW1Abq/ShHicuyTZxVgYJ9TgiBBtTkvAinBlVVumZJEKJ0/f76poMtoq/VifxouZ/UpZSrvnTt3TMTLWsZ659AwhBBGPAmZ1na5bU6MlhGaCaTWPL7zf6YON+5/am0zU9/bEkh5g0fY5M2aAUwDmb0TN22NYNLcvLGabue+psBRUzdqZjuNlnE1Wr/xjeSzPrcWSDP1nKldUqCjFcg2IDW+i5HTrv3g6NT7T//VpW8y1ZYpuMwIYWbI0/wO/ZbJGqHva3jIxuWb8nFP20ZbAGlH24f2LwUyUQEBaSaelWe3SUAqIH22hejbrFGgrYH0aTdZHTFfQJo1ZqoDyTAFshFIO8JHNbVPAWmGGbuakzUKCEjtdyoFpAJS+1mtWpySAgLSlGTTSlIgpxUQkP51caKmYLM58wSkOf3T0sG3owIC0nYUt502LSAVkLaTaWmzmaaAgDTTzojaIwUyXwEBqYA0861ULZQCjysgIH1cDzv8JyAVkNrBTtXGNlBAQNoGImoTUiDHFBCQCkhzzOR1uFmggIDUfidRQCogtZ/VqsUpKSAgTUk2rSQFcloBAamANKd/ADp4WyogILXfaROQCkjtZ7VqcUoKCEhTkk0rSYGcVkBAKiDN6R+ADt6WCghI7XfaBKQCUvtZrVqckgIC0pRk00pSIKcVEJAKSHP6B6CDt6UCAlL7nTYBqYDUflarFqekQE4AaVlNStpoJSkgBZpW4KHDh5uFpU1/mY65sRg8oyeDY4M2p3KtnZZJVtktcqVDSe1DCuSMAjW1IZy+UoR4PJ4zx2z3AxWQCkjtbsNqfzMVCBfdNwO488bOmTcwqybPiz1xcdUm3PNWIRaLIRyOaJIGsoFW2gB/S/ceejoUSOPRGNyjJsLZtX9W+Sz6YHeXvih47S1cKHAgKr+l32srf6+67iWu+5FoFBVVNTh9uVBA2sz7w0xYTEAqIM0EO1Qb0qAAI6QmejBgJNz5o7Jq8vYciGvrvsPxa8U4dalQkzSQDbSRDRw7dwcFDzoughePROGdOB2uvsOyymfRB3v6DsW9mfNw7OoD2Wsb2av8v65/tIETFwpw/tp9AWka7i3bahcCUgFpW9mStpPhCsRjMUSrqhELBLJvqqpGpK4O4UhUT9n1lF020MY2EI3GOtS7xQI1iFVnod+qDiBaW4twVFkdiu4pq6etbSASiXao39LOW6aAgFRA2jKL0dJSQApIASkgBaSAFJACUkAKSIE2UkBAKiBtI1PSZqSAFJACUkAKSAEpIAWkgBSQAi1TQEAqIG2ZxWhpKSAFpIAUkAJSQApIASkgBaRAGykgIBWQtpEpaTNSQApIASkgBaSAFJACUkAKSIGWKSAgFZC2zGK0tBSQAlJACkgBKSAFpIAUkAJSoI0UEJAKSNvIlLQZKSAFpIAUkAJSQApIASkgBaRAyxQQkApIW2YxWloKSAEpIAWkgBSQAlJACkgBKdBGCghIBaRtZErajBSQAlJACkgBKSAFpIAUkAJSoGUKCEgFpC2zGC0tBaSAFJACUkAKSAEpIAWkgBRoIwUEpALSNjIlbUYKSAEpIAWkgBSQAlJACkgBKdAyBQSkAtKWWYyWlgJSQApIASkgBaSAFJACUkAKtJECAlIBaRuZkjYjBaSAFJACUkAKSAEpIAWkgBRomQICUgFpyyxGS0sBKSAFpIAUkAJSQApIASkgBdpIAQGpgLSNTEmbkQJSQApIASkgBaSAFJACUkAKtEwBAamAtGUWo6Vtq0Csrg71dwoQLihCuOBedk13ClDr9aOqpg6V1bWapIFsoA1tIFRX36F+L3y/GPV3s9Bv3S1E3cMSVNXKb8lv67rV1jYQqAkB8Q51Xdp5CxQQkApIW2AuWtTOChBCHc/lwdG5L5xdsmty/6cbLn32NY5dK8a5q/dw9oomaSAbaK0N8Ld07Nxt3C5ydJjri0eicA8fB8eLvbLOb7le6ImCSbNw+PI9+S35bF232soGrt7DqUuFOH2pEPG4iLTDnHcLdywgFZC20GS0uF0VCBc9SMBoz0Fw9hqcVZOnU29cXLUZxWU1dj09arcUyEgFHjp8uFlY2nFti8bgGT0Jzu4Dsspn0Qe7u/VHwZTZuFTk6jh9tWcpkIUK1NSGcOZKkYDURudWQCogtZG5qqmtUSB87wGcXfqZmzpX7yHIpsnTuTcurt6MYr+AtDU2onWlwJMKFHc0kMYIpJPh7JGfVT6L/tfdfQAKpszBpULnk7LrfykgBVqhQKA2hNMC0lYomP5VBaQC0vRbnfbYIQoISDtEdu1UCthageLSDo6QCkhtbT9qvBToCAXYf1RA2hHKp75PAamANHXr0Zq2UkBAaqvTpcZKgYxQQEDaftkkipBmhImrEVmogIDUfidVQCogtZ/VqsUpKSAgTUk2rSQFcloBAamANKd/ADp4WyogILXfaROQCkjtZ7VqcUoKCEhTkk0rSYGcVkBAKiDN6R+ADt6WCghI7XfaBKQCUvtZrVqckgIC0pRk00pSIKcVEJAKSHP6B6CDt6UCAlL7nTYBqYDUflarFqekgIA0Jdm0khTIaQUEpALSnP4B6OBtqYCA1H6nTUAqILWf1arFKSnQWiB9cuzSZg0bk8J4p65eLb8B1LAvKZmEVpICf6lAVgDpE37I1WtwYgiZp81vPCzWU5Zp7A+T22u8XjM+q6jRX5qfFpACKSkgIE1Jtg5dSUAqIO1QA9TO06dAa4DU3Hz1yIejc184uvSFM29g8wepzxsIR5d+cHTqDcdLz5g69zVjDXJfLYVSAWn67Eh7yi0FbA+kBMqeg+Ds1h+Ozn3g7Dbgcd9l5veFs3ti/mNwmVx3QMLvNSxj/CG3SV/YtR+cPemzGiC3GSBqPcwTkObWb0lHmz4FBKTp07qt9iQgFZC2lS1pOxmuQKpAypsvQqhvxhzU/vY7Aju+h+flSSh9vgccL/aE48Ve/z291NvcADrzBsEzbioCO39A6Pwl1F27gfrrtx6b6q7dRN3lq6jZdxBlc96HMy+/xTd3AtIMNz41z7YK2B1ICaOuQaNR+eUGBI+dQvniFQkgNQ/K+qJy1ToEj55E+ccr4B74soFXCxi5rnvwaFQs+xy1+w6hbMGSxEOzvIFwjxiPml9+Q/U338HVb/hj61nr/9W7gNS2Pws1PMMVEJBm+AlqonkCUgFpE2ahWdmoQKpAShj1jJpoYNTSJVx0D6FzF1F34XKTU+jEGZQvXGpu1HzT5yBcWITwg4eo/nYXKj//CpWr1yWmVWtRtXEr6q5cR8TlRuWKL+DoPiDtQBqPx/H9999j0aJFWLBgAQ4ePIja2lrrcPUuBXJWAdsDKTM7uvaDb/pshE6dQ/3N2/C/+S6cnfqg7INFCBc/QvD4aXhfnZmIdvbIT6Tz9h5iMkE8w8chsGcvouWVxlc5GGHtng/PuCmIuL0IXboK14ARHQak9F3Hjx/Hxx9/jPnz5+Pbb79FIBDIWXvVgUsBKiAgtZ8dCEgFpPazWrU4JQVaDKQNkVHvpNdR+/tRRBxO1O4/hIrFK1H52RpUrlr739Pqdaj6aiOq1m4yEVVXn6HwTp2N+pu3EDx4GK7Bo1Hyf19A6f92NlPJ314yqXLVG7cgXPQAlctXpR1I6+vrsWfPHixfvhzbt2/Hli1bMG/ePBw+fBj8Ti8pkMsK2BlI2bXAM2I8Atv3oPbgYePDeC4jD0sQOnEaUZ/fnNpIqQPBI8dRteEbeMa8lkjf7doPjufz4Oo7DNVbdiLicBt/V/rvbij9T3e4h45JwOzJs4l04BfyTJcGE5FtZtpuayOk0WgUBw4cML6Lfmvbtm1YvHgxtm7dilAolMtmq2PPcQUEpPYzAAGpgNR+VqsWp6RAi4CUfad65MM7aYZJZ4s6Xai7cQvB34+gettOBHbsQfXWHYnPu35EgNPOH0z6Wtm7CxP9tLr1h7PHQPimEUjvmJvB4JETqNm7H7W/HjBTzd7fzI1ifeF9hEtKUbH887QCKaMLN2/exDvvvINTp04ldf3qq6/w+eefo7S0NDlPH6RALipgayDtng/fxBmIllUg/KAYge92o3rLdvNOfxX4dpf5v/qb7SZDI1x4H/433oYrf5RJ0635aR9qDx4B58eCIePHan7eZ3xY8I+jiNXUIurxonbfQdTu/Q1V67+Be/ArzY6WthZI7969iyVLlmDXrl1J0zx06BDeffddFBYWJufpgxTINQUEpPY74wJSAan9rFYtTkmBlIB0yixUb9yKqjVfm/5SUX+5Sa8NnTmPeCyGaFk5an7Ya+Ay+PtRxEMhEDpd7IvFwkd5A+Gd+pZJk4s4XKYPl4HR/YdMtNXcyP1+FGxbRwBpLBYz0dFly5bB6/Umdb18+bJJ3z19+nRynj5IgVxUwP5AOt1ERAmjJf/qhtJ/dEpmaJhMDf7/P88ZH1Z/9Sb8M+bANXAUKpavAh+YBf84ZrI3DJDevouaXxIP0xhRNUDq9aH2wO8GSukr0wmk+/btw8qVK81DNcs279+/bx6m/fzzz9YsvUuBnFNAQGq/Uy4gFZDaz2rV4pQUaBGQMuWMUdKu/c3Nm3v4eNQeOgIWIPJOegPuIa8gdPo8QhcuwzthGkr+/hLcIyeg/n4xan89CGfPIclqvP5Z7yFcUITgH8fNMkx3SxZCer5HIiXum+8Qvlec9pRdprwxGrpx40ZUVVUldXU6nVi4cCF+/fVXMIqqlxTIVQXsDqT0TxGnC/U3bqNqwxYTxWRqbnJa/w0q12w0D8VM/9LX3070JX1ayi6htqmU3efTn7LL1Nwvv/wSJSUlSfPkg7VNmzYZvybflZRFH3JMAQGp/U64gFRAaj+rVYtTUqClQGr6X73yKsrnL0bg+72ION0m7ZaRhqp1m1F38QpiNTUIP3hkChSxAm8sUIP6W3dQtWYD/HPnw9VvGMre+xDhRyUIHjsJz+jJCRjtkhg+hkPBuPNHmfTf8P30A2kkEsGKFStMylvjQiBM1SWQ7t+/X0CakrVppWxRwO5A6ps4HdHyCjPVXbxqqn0zw4NT3cXLqLt0xcxjtDNceA/+me8kHqZ17W+GqnLnj0T1tl3G/1V+sQGlLyQqi7PKbvhhCYKnzplMEEenPsmiSGboqmb0I21Nyi6zOwija9euRVlZWdLcPB4Pvv76a6xfv16+K6mKPuSaAgJS+51xAamA1H5WqxanpECLgJTR0e758M9616SisQJuPBoz/aUIopFHiSfyUa8PoTMXTPSBN2fx+npEvX7U3bxt+pe6B41G+YIlYNGQ+rtFqFq3CeUff4KKJZ+aqXzRClN1l9Uvww8fpb0PKSOkBNKdO3c+VpnSAlKmxCnKkJK5aaUsUcDWQNojH6ySW/P9XlOMrfS5HqaCLv2ab8bcxNjIz/VA6b+6mkJtgW074Rk7xVQVL/9gESqWrETl52sROncJsZqgKXxU/tFy48NYvC1WVW0KG1V8sspsv2LRJ6bfPQshNQdKWwuka9asMUDq9yeKM9HkLCBdt26dfFeW/AZ1GC1XQEDacs06eg0BqYC0o21Q+0+TAi0CUg55YAobDQSrSnIcvsijUlSt2YhH/+ef8I6favqSBg+fgHvIGDMeKSOpBNXqzd+aAeMdDWORch32PY36yxJ9RYvuI2xNhfcQvv8Q0YpKhEudHQKkq1atwu7dux8DUofDYapVcvgXvaRALitgVyA11W77DYN38hvwTX3TQGbZW/NQsfQz8xCN/oifWQmcAMnlWFGc65W9s8AMEcOhqhg1ZVG2uivXUH/jlvnfzLt918yru34zMe/eA5MdUvnJqv8az/Rp45G2Bkj5oGzDhg1mehJIN2/ebKKkuWy3OvbcVkBAar/zLyAVkNrPatXilBRoKZDyJsqC0uqtOxF1exHYvttUzWUlXVagjNWFDZiWvT0fNT/uRbSqGrV/HIP/rfcMqLr6D0fND78i4i9D5covzfaYpuvo3DcxvdQL7gEjTaVLti/dw74w7e27774zwyU07kNaUFBgCoOcO3cuJa21khTIFgXsCKTGb+UNMiBaf+uueejFoV/on/hOAGVfd9MH/rVZKF+wFPUFReaBGrM32H+eKbh8qOZgVLXXYHgnv26ip868QWaYF88rr8L32iwz/IujIY3X2aWvqU5uoqO9BifHM20PIKV9/fjjj6a/KB+gWS9mdzBld+/evdYsvUuBnFNAQGq/Uy4gFZDaz2rV4pQUSAlIOY7fqEmo/na3SU1j6i4Hg4+4PYiUOs08DizPMUrZB4uvWHU1eBNY9t5HKHt/kelnRZj1zZhjBqg3N4s9B5kbN0eXfqYqJW8SuZ3K5avTPuzLyZMnzYDy9+7dS+rKiOmnn36KxvOSX+qDFMghBWwJpPRbwxPjj0Z8ZQZCq9Z+jYi/3Az1YoDzxV6mP3v5wqWm6BG7IrCve6SkFEzLdXbrbyKd3onTTSEkRlRrfz8G7/jpcA8fZ6qEcziZ0Mmz8L0+B56RExKVxXsOMgD7NAhtPL81EVKaIB+YcfzkY8eOJS3yzJkz+Oijj3D16tXkPH2QArmmgIDUfmdcQCogtZ/VqsUpKZASkDJtlxOHcOmR/+fUPd/cdPEmzDt2CnzTZ4PDvkRcHpR/vBzOXkPg6jfcDBXDQkcce5Rga7bDyEHfYfCMnAjP+GlgtDV06izCJQ5ULFoBR48Bzb6hs27uPJ174+LqzSj217RYm+rqaixdutQM//LgwQPcunULHAaG4/nV19e3eHtaQQpkkwK2BNIe+fC9OtMUXmMfd44tWrHyCzNMVe3+QyZyyuq7nDj0VNTjQ+Wna0zf0ND5S2YYF/+b76F607bEGKbFD1H11dfgAzSm9DJK6uozDGXzPjZ946OBAOrOXYRvyiw4GzJLLN/0rPfWAmkwGMSWLVtMRV2OO8rMDv7P/qPhcDibzFDHIgVapICAtEVyZcTCAlIBaUYYohrR/gqkAqS8mTJASijljZg1dR9g0tc45ij7f3I80qjPb8bsY5qus8dA+F5/u6Gf6TF4xryWTGUz1XtHv4rAnr2IeH2J9f1lZlgY78QZBloZwXjWjdyT37UGSKk8h3lZsGABxowZgwkTJuD3338XjLa/SWoPNlDAlkDa8CCN/UMNIPbIN1HN+us3kxV3TeXdsnIRMJjuAAAgAElEQVTEKqsQPH4K3nHT4Ow+wERGyz9chvCdAoTvFCaipZxv+cCGbSfBtP8I08eeGR6s3GtFSp/0UU3931ogpfmwwi6HrhoxYgQmTZpkgFQwaoMflprYrgoISNtV3nbZuIBUQNouhqWNZp4CqQJpUzdSvDkz8/sNh2vASLj6jwBB1FSXJLTypo3DHjTMI2Ba61jvXNY1gOs1TPzfWo4R1mYMm2At01og5dniEDCMiPJmTpV1M89+1aKOUcCOQEq/YHyQ9QCNfoWptPRXlr+h77H8T0NV3CRkGt+V8EtmO8wQoc+z/B6/b/BVZrvJ5Yeb7JCkj/sLH9YWQEqrYLVwy3fxs15SINcVEJDazwIEpAJS+1mtWpySAm0JpI/d8LHIB2/Y+N4Ao41v1pLzGt2cJW8Wm1y3ZTDKtrQFkKYkqlaSAlmugF2B1HpYZb3/t8+hz3rCbzX4qOSylj9r5Lus7SXfG4FpU74uuVwT22grIM1yE9ThSYEWKyAgbbFkHb6CgFRA2uFGqAakR4G2BtJn3Wil+zsBaXpsSHvJPQWyBUjT7ZOasz8Bae79nnTE6VFAQJoendtyLwJSAWlb2pO2lcEKCEgz+OSoaVIgQxUQkLY8Y6M5MMplBKQZavRqlu0VEJDa7xQKSAWk9rNatTglBQSkKcmmlaRATisgIBWQ5vQPQAdvSwUEpPY7bQJSAan9rFYtTkkBAWlKsmklKZDTCghIBaQ5/QPQwdtSAQGp/U6bgFRAaj+rVYtTUkBAmpJsWkkK5LQCAlIBaU7/AHTwtlRAQGq/0yYgFZDaz2rV4pQUEJCmJJtWkgI5rYCAVECa0z8AHbwtFRCQ2u+0CUgFpPazWrU4JQUEpCnJppWkQE4rICAVkOb0D0AHb0sFBKT2O20CUgGp/axWLU5JgVwA0kfltSlpo5WkgBRoWoFHTj9uFpY2/WU65sZi8IyeDGePfDS3eq1dlrOq7F4ucqVDSe1DCuSMAsFQPc5cKUI8Hs+ZY7b7gQpIBaR2t2G1v5kKhAuKUPrPrnC80BOOF3tl1eT+RydcWLkBZ++U4s49J24XOTRJA9lAK22Av6Wzl4s6FEjjkShcg0ej9D/ds8pn0Qc7/90Nd8fNwNGrD+S3Wmmr8vm65lk2QL919fZDnLxYICBt5v1hJiwmIBWQZoIdqg1pUCBaXoHqb3cjsPN7BHb+kFVTzbc74bl0HQ9c5bj/yKtJGsgG2tAGyioCafBQT9lFPI6avfsR2L4nq3wWfXDN9t2oOHgExfRbJfJb8t2ygba0AYe7HAqQPsWvZuBsAamANAPNUk2SAlJACkgBKSAFpIAUkAJSIBcUEJAKSHPBznWMUkAKSAEpIAWkgBSQAlJACmSgAgJSAWkGmqWaJAWkgBSQAlJACkgBKSAFpEAuKCAgFZDmgp3rGKWAFJACUkAKSAEpIAWkgBTIQAUEpALSDDRLNUkKSAEpIAWkgBSQAlJACkiBXFBAQCogzQU71zFKASkgBaSAFJACUkAKSAEpkIEKCEgFpBlolmqSFJACUkAKSAEpIAWkgBSQArmggIBUQJoLdq5jlAJSQApIASkgBaSAFJACUiADFRCQCkgz0CzVJCkgBaSAFJACUkAKSAEpIAVyQQEBqYA0F+xcxygFpIAUkAJSQApIASkgBaRABiogIBWQZqBZqklSQApIASkgBaSAFJACUkAK5IICAlIBaS7YuY5RCkgBKSAFpIAUkAJSQApIgQxUQEAqIM1As1STpIAUkAJSQApIASkgBaSAFMgFBQSkAtJcsHMdoxSQAlJACkgBKSAFpIAUkAIZqICAVECagWapJkkBKSAFpIAUkAJSQApIASmQCwoISAWkuWDnOkYA4RIHfNNmwz/zHfhnZddUPvVNFH6/HxfulOLC9fu4cE2TNJANtNoGrt/H+Wv38NDh7zAfGo9GUb5wKXyvz806v1U2Yw5KV3yJC3fptx7Ib8lvywbawgaM37qPmwWliMc7zHVpxy1UQEAqIG2hyWhxuyoQLrwPx/N5cHbtB2e3/lk1uZ/rjouffY2bJX5UVNXAXxHQJA1kA620Af6WeFN3s7C0w9wegdQ9YhwcnXpnlc+iD3a91At3J83CmVslKJff0u+1lb9XXfcS1/2yyhqUuMpw+lIh4iLSDvPdLd2xgFRA2lKb0fI2VSB87wGcXfrB2WswXL2HZNXk6dwbF1dvxsOyGpueHTVbCmSmAg+d/g4FUsRi8IyeDGeP/KzyWfTB7u4DUDBlDi4VuTLz5KtVUsCmCtQG63D6SpGA1EbnT0AqILWRuaqprVEgF4C02C8gbY2NaF0p8KQCxaU+AWk7PcBLAmmh80nZ9b8UkAKtUCBQExKQtkK/jlhVQCog7Qi70z47QAEBaQeIrl1KAZsrICBtv2wSAanNfxxqfsYqICDN2FPz1IYJSAWkTzUOfZFdCghIs+t86mikQDoUEJAKSNNhZ9qHFGhLBQSkbalmerYlIBWQpsfStJcOV0BA2uGnQA2QArZTQEAqILWd0arBOa+AgNR+JiAgFZDaz2rV4pQUEJCmJJtWkgI5rYCAVECa0z8AHbwtFRCQ2u+0CUgFpPazWrU4JQUEpCnJppWkQE4rICAVkOb0D0AHb0sFBKT2O20CUgGp/axWLU5JAQFpSrJpJSmQ0woISAWkOf0D0MHbUgEBqf1Om4BUQGo/q1WLU1KgtUDq7DkIzu4D4OyeD352NWM8U4556swbCGe3AX89qD23nTewWdt9chxVaxxSDfuSkmloJSnwVAWyAUiNHzK+a4DxXc0Ziznh7/L/2m916//nMj3yWzTOs6rsPtXs9IUUaJUCAtJWydchKwtIBaQdYnjaafoVaA2QclB69+DR8E19E95JM+DqNzxxE2bd5DX1ThDtOQielyfBN302/LPehf/N9+B/64mJ82a9C9+0t+AeOb7ZsNsYSgWk6bcn7TE3FLA7kJqHZ72HwPvaLHinzIJrwMjEgzU+JGvKb5l5+XAPfBneya/DP/Odpv1WYz9GH/bG2/COnwZXn6HNhlIBaW78hnSU6VdAQJp+zVu7RwGpgLS1NtTs9evq6uD1ehEKhR5bp6qqChUVFY/Na/xPPB5HdXU1/H4/+PmvXoFAAA8ePMDt27dRVFQEn89n1ufnO3fuJKe7d+/C7XYjFoslN1lfX59ct/Gy1meu4/F4HlsnuXKGf0gVSE2Es+cgVH6xHvG6ekRcblR+tga+KbPgmzbbwCaB87Fp6ltwDx9n4DLw3W6zXqyuDlGvDxGP98/J7UXU50c8HEYsUIPqjVvh6DagxVHStgBS2ibt5t69eygrK7PlOc5wE1TzbKiAnYHURDnzBhpYjFVWIVZTi6q1m+B7fa55APaYz7J8GB+MDR2Lsvc+RP3dQnPNifrLEXF7En7L5UbE6ULE1fC/x2v8Gq9MoVNn4R4+PpHp0fuvU33bCkh5/bR815PXNBuanJosBVqtgIC01RKmfQMCUgFp2oyOF8wPP/wQp0+fTu6TMPjDDz9g06ZNiEajyfmNP9TU1GDLli3YuHEjIpFI46+a/Lx3714MHjwYzz33HLp3746PPvoIP/74I3r06IG8vDwz8TO/e/vttx+DYYLn0KFD0alTp+Sy1jp879atmzmGysrKJvedyTNTAVKTQttnKMoXrUD9nULEqqsRcfBmzJ24QeNN2mNT4uYs8qgUlZ9+aSKpga07EPX6UbV+i4k6mKhEj4Fwcuo2AO4hYxD4bg8ibi+q12+Go1v/tAPpo0ePzHmdMGECXn75ZSxbtszc4GXy+VTbpEA6FLArkBoY7TkYvhlzUHf5mnngZfzWU32XJ/HAzOlB1brNKF+8wqwXPHoCntGT4Hipt4mouvJHmawPV/8RcHTpB2fnvnD1HWb8Y+joicSDOHY9SBOQOp1OfPXVVxg7dqzxXe+88w5u3LiRDtPQPqRAxiogIM3YU/PUhglIBaRPNY72+IJQuXPnTlhAZwHp5s2bnwqkhERCwi+//AJefBmh5FPgxhMjqFakk0C6fft2lJSUYN++fQZkT506Be6D67hcLpSWluLo0aMGPKy28HgZVd26dSuuX79u9sNlrYkRtD/++APfffediaA1R59YTY2J/jVn2fZepqVAam7oeg1G5edrEWVEoNRpoqSe4ePgeeVVeEZPNpN3zGuwJs5zDx2TTFtjqm9g205EvH5Ur98C1+DR4LzEzeIg89kzdGwjIN2UdiBlBH3evHnGZmhHtIeFCxcauykvL2/v06LtS4GMVsCOQGr6jPYabLoCRB6WGNBkpoZnzGvwvJLwW/RVlt/yjnnVzHcPG5fojtC1P/xzP0Dd1esIHj0J3+Q3DGiyy0LNj78i4vWheut24//cI8abiCqjqekGUvqnTz/9FJ9//rm5JvHh7bfffov33nvPXL8y2rDUOCnQjgoISNtR3HbatIBUQNpOpvX4Zmtra8FU2osXL+Kzzz7D+fPnzQJMwWX08mlAyvW+/vprE+188cUXTeTypZdeAqcXXnjBTH//+9+xaNGi5AWYQLpr1y5cuXLFvDMie+DAAXTp0sWsx3WtbTFC2hhICwsLMWTIEDz//PNm+c6dO8OauD4/M+LKY3nWKx6JIFpRgcqvvkLw+HFEy8oQf0oE+FnbacvvWgSkLEbUfQDK3v0Q9ddvInT2IoKHjyFaVo5YdQDRyirE6+sRC4YQ9ZchWl6BaGUlYrW1qPn1AFz9RybAsxGQVq37Bq5BLyf6bbF/KafuDRHSb3cj4mKENL1ASvs7ePCgOaeMklqv3377DcuXL8fNmzetWXqXAjmpgC2BtMdAeCdMQ+j4aYQfPERgxx7TNYAZHvRV7HpguhDQbxnfVYVYXT2Cx0/BN2mGiYYaIL1yHcETp1H9zXZEnO6E36urM3YQCwYRLasA/Wrlii8QLrqP0JH0RkiPHTtm/NS5c+eStsnr3uLFix/LREp+qQ9SIEcUEJDa70QLSAWk7W61hLcFCxYYwGMa7d/+9jeTDktIZFTzp59+ahJImcLLyObkyZNx4cIF0xeU0SxGKtnHj9tlf1QCxbZt2+BwOMyxMJLK/3fs2GFgllGvM2fOmMgs+4hyHa576dIlczG3gJTzL1++bNZlpJT74P6siU+jeQPAbTPC+rT0YYJn8MQJuEeNQvmSJahYvhzeadNQ38FpVC0C0t5DEoU5+gw1EQPP2Cmo+Xkf6guKUL5wmYk8hB88QujcRbgHjTbLeCdMR7j4EYIH/vgvIGXKbvVmRhQmwZ0/0qTusmgIC4wwShHY/VNDym56gZT2x4chq1evRuNoqJXCSzBtTr/ldv8RaQdSoIMUsCWQWhXA+w2HZ/h4VG3cgkiJE5UrvzDptvW37pr+ob4pb8LVb5gpXFR/8zaCp87BN/l1OF7slYiQXrmOECF1yqxEhHTKLNT+vA/sU1q9bYfZlmfEeHhGTUyk7KYZSPfs2WN8F+sjWC9mAW3YsMFkeMh3WaroPdcUEJDa74wLSAWk7W61vCgSAHnDzwJGhw4dwtKlS3H16lWz76dFSAkFb7zxBv7nf/7nvyKW7C9jXYQJrYTPJ4GUabuMrhJIz549i++//z55rIRJpuUyCsaCEIyEDRo0CP/7v/+Lf//73yYSyv6i7EvKidFR/s+o7D/+8Q/TH5WRXgJuUy8W6am/dQvukSNRvngxwvfvI96oeFJT67T3vFSA1KS+9ciHf/b7qLt6A/XXb8E3Y65J2a3dfwjhR6Wo+X6vAdKyhUsQcXoQPHg4kbZLqGWEdOsO038rxohqRSWinCqrElPDZ+oVLa9E9br09iGlHTDljbZCG7VetCWm7TLlWzd1lip6z0UF7AqkxnexyvfoyQgyUvqoFGUfLDK+zEQ8SxwIHjoCz4gJKJv7QSLCefaCKXbk7NoP/rfnI3TxMiIPHyF8u8BkhxBErW4Y0eoAIr4ykw5MmI08ciB0+Fja+pDSL61du9b0H+VDU+vFLi287q1bt06+yxJF7zmngIDUfqdcQCogTavVsg/oqlWrTP9N60a/KSBlqi4hktErpsiyXyejknz6yz6l7PPHKCZfu3fvNlFWq1IvU3YJqKyIy4JJ/J9R1K5duxrQJGBaabjvvvuuAVJGY7lt9m9le5i6y6q+33zzjXnazCIRvOizDymfPt+6dcvA9dPEi3g88M+ciZq9e1G9bRsC27Yh2uim4Wnrtef8FgFpMmV3IUIXLiMWCBigjkeiCaAsL0e8rs7c8MTrwyZtl1Vy+bL+r/31ANyDX0Fgy3aTLhfY8YMZNob9uLxjp5jJM+ZVU523Zu9vHVLUiOd9xYoVJrW7MZDS1gik+/fv101dexqltp3xCtgSSE3K7lQEj5wAq+vSbyEeNw/B2OUgVhtM+C52rSivQKyqqsG/RUDQrD14BFXrvzFAysq5HNLFM/pVk81h+s+zH+qYV+Edyz6pr5rhXurvFqU1ZZfZHWvWrDFQymuV9RKQWkroPZcVEJDa7+wLSAWkabNaRp3Gjx+PqVOnPpZm1BSQElY5TAwBlumUTO+1XpzPPjIEU74In4RORl/5soCUgHrkyBETAWMBIz4x5vuSJUsMrBYXF5u0XUZOraFojh8/bvqQMhrap08fExFlf1JW5O3Vq5eJjLK/KotHPOvFPqQRhyPRzzIQQJQA14wKwc/aZmu/axGQMrrZc5Dp88l0tOotOxD1lYGQyRQ1VtDljVzwMCtQvgrfazNR9dUmU323dt9BMxwM1+M2Att2mKJGVWu/AStUOjmQPAsbcera34xvWt1BfUgZISWQ8kFEU0CqCGlrrU7r210BWwIpU3aZrjtqkomKRj0+1F28Yh6ImSJt3jLUnbsI3xtz4Rk3xfgz093g8HGUvT3fZHhULF6JcOE94+PK3l+E4O9HE9XFWeCtYQo/LDFFjlwDR6H+dkFaixoJSO3+y1L721MBAWl7qts+2xaQCkjbx7Ke2Cr7dRLkpk+fbm7+mVLEyoCMPPKm/2lFjQgJjJCyEBGHXenZs6eBw4EDByYLzhAmuH0LKPiZUdNgMGgKOzAtlyDK+UwbZprTw4cPwZRgFjVi/1JryBlGQAm4LLrE8ShZTp8RXaYFM0WY/V0ZrW3c3/CJQ83Yf1sKpBy2gEDpeD7PVNcN3y9GxdLPUPK3F00/0OptuxB+WIrq9d8YsKz4ZJUZAqZ6y3YDm44ufU3RosZVdt2ssstiRozAcsobCM+wxlV205uyy/POys98KGHZD08gI6RMyeYDCr2kQC4rYEcgtXyXi0NWfbgM4UclqN78LRydehufVrVmAzg0Vc3un+DqNQTlC5aC1XgD3/8M1+BXUPrvbihfsAT1hfdRvX2PecBWf+sO6s5fMtFQ78QZKHtngSloFDp7Aa6hY9IOpLRJdjXgkGhPRkhZ54DXRb2kQK4qICC135kXkApI29VqGekkyPHCSfjkxZNpkIRBpsMSHFmmnvP5xJcvjlfKiymhjwWHGMEivDKFl8WNWKnX6j/K5bnur7/+avrNEDxZ6IHDxBBgR48ebYoQsQohI7F8HT582Mx/7bXXTCovwdV6EUC4fetFQGV7rb6i9+/fN2DLfql2e6UEpHkDzUDvtfsOIR6Lmz6g4QfF5maO/UD5MtHg4kemjxXPN1Pi2N+UFXqdvYeaPqQRjw9Va7424/U5XuoFR+c+ienFXnAPGGkisBxoPt1VdmlzjKivXLnSpGxb55R2wAcZ165ds2bpXQrkpAJ2BlIOQVW9dYdJ12W3A0ZBObHquXnF44iUOEyXgng0ZqqEs1qub+Y7qPj0S0RcLlSt2QgCaP3tu4gHg6awGyOnBFj6vroLl01ENd0RUrafXVH44KzxuKPsysJrJq+FekmBXFVAQGq/My8gFZC2u9US3qyiCxyO5eeffzbRKFaxZUouoZRwagEpq98yrZYRKwIpi84QChu/eCGeNGmSKUT05ptvGnD44osvDJgSPD/55BMDjqyay1RhQiahlU+SCRpz5swxlX8bV8rl9/n5+SYCy6FfRo0aZVJ0ma47ePBg8z/TeJnCa8dx3lICUqa+DRgJ36szUfbehyifv9hEDhg9KJv3EfxvzTMVKlksJHjyrIHRml8OgClunpETTATUFDXiUDH+MpMCx75WrNZrpruFppiIKXZUXpH2oka0KUbL586dax548H9GTWlzfNBhx0h449+JPkuB1ipgWyCl7+o7DN7xUxO+64NFf/qu9z82xY38s941FcNrf/vd9C8NHjuF8o+Wm8Jtwd+PGOgsX7jEpPqGC+8jfKfQ+D3j/1gg6a15ZmxTZnrU3ypA6Ngp8wCP/zNK+1eTu/sAFEyZg0uFzpROE69tfJjGrB7rxevrhx9++FjU1PpO71IgVxQQkNrvTAtIBaRptVpeOHnBtIZa4c4JkIySWi+mx86fP9/0ISWUMkWWlXkbvwi4TLXlMCzsC8r/CRGMfhIsCb7sa8oX37lfRkzff/998+SY/U8JrUxtstJ1OZwMI6knT57EiRMnzPYJr+yvym1yvvUdq/JaRZkatyuTP6cCpCb1jam1pr9nP7D6JCdHpz5wM9X2212mbxYHkE8A531wiJhkP9G8fNTs/AHxUAih0+dRuWqtSfutWP45zLT0M1R+sQF1l66aSryBTdvg6DYALmvYhmbc1LGNns69cXH1ZhT7n923t6nzw/NPO/rggw9MCjfTuJlCzii+XlIg1xWwK5A+7rv6/+m7GroSVG3citDZ8widv4So32/gk1kdHPKl/MOlJs23dt8BuDhM1eDR8M9531Tgpe/jxP7wTPmtu3QFrLIbD9YhsOsHs6zpf98M39VaIKVtctxRVq2fNWuWeVDKB7NWwb9ct10df+4qICC137kXkApI02q1hEum1DaOPLHwEAsdcbxRRj35zhRfvsLhsClMNG7cOEyZMsUsx2Vff/11MDL61ltvYebMmWadL7/80kRDCbiMuFpVd/nOaBeXI2haUVEOO8N0p2XLlpnUJ0Y9uQy3yYlRVEZG2V912rRpmD17tplv7Zd9D61CSmkVMcWdpQqkTT3l5w2Xe8grKJu/GFVfbjB9TFnoqGzufDh7Djb9tKxhF3xT30T5R5/AM2F6om9p575g/1Izde4DZ94geF+baSIT3lffMFHVdAIp5WRKNlPCOe4oo++M3OslBaQAYGcgbdJ3NTzsKnvvI1SuXovKL9ebB2XMAOGYynyY5h0/zfQr9U56PfFwrecgOLsNMH3i6ZsMcOaPMj6r6ov1xv/xAZt34nSw3yp9X1P7fnJeWwApr2d8QMqHpvRdrC6vlxTIdQUEpPazAAGpgDStVsvhVNhH1IpecudMo2UV3fXr15shVQiUjFZaL0Y/CbEEwKYmDsNC0LX6lTJiWlBQkOz3yQq6nMdCNU++2CeU6cCEU0ZprQHFrf0wUka4ZREmax7f+T/7lzbuf/rktjPt/7YEUt5Y8aaMN28OAqbpE9o3cfPW6GbMQGl3VtPtl4iyNvrOujlLLDMguUxLYZTbaU2ENNPOk9ojBTJJgWwDUuO7CJWP+a4+pjCbFdl09hiY+L9H/lPB0vi/ro38HyOvzCRpwsdZvu7J97YA0kyyFbVFCmSKAgLSTDkTzW+HgFRA2nxr0ZK2VqCtgfTJm6uO/F9AamvTVOMzWIFsBNKO9FWN9y0gzWDDV9NsrYCA1H6nT0AqILWf1arFKSkgIE1JNq0kBXJaAQHpXxcnagyZLfksIM3pn5YOvh0VEJC2o7jttGkBqYC0nUxLm800BQSkmXZG1B4pkPkKCEgFpJlvpWqhFHhcAQHp43rY4T8BqYDUDnaqNraBAgLSNhBRm5ACOaaAgFRAmmMmr8PNAgUEpPY7iQJSAan9rFYtTkkBAWlKsmklKZDTCghIBaQ5/QPQwdtSAQGp/U6bgFRAaj+rVYtTUkBAmpJsWkkK5LQCAlIBaU7/AHTwtlRAQGq/0yYgFZDaz2rV4pQUEJCmJJtWkgI5rYCAVECa0z8AHbwtFRCQ2u+0CUgFpPazWrU4JQVyAUgfltWkpI1WkgJSoGkFHjp8uFn432M4N710O8yNxeAZPdmM8dmSCrZ2WDZZZbfI1Q7CaZNSIHcVqKmtw+krRYjH47krgs2OXEAqILWZyaq5qSoQLroPx4u94Ow+IDGAOwdxz5LJ80IeLn6+CYWuCtTVhxEM1WuSBrKBVtoAf0uFD1wdCqTxaBTukRPg6NI3a/yV5Xddnfug4NU3ce6uQ36rlbYqn69rnmUDobp6+MqrcfpyoYA01RvGDlhPQCog7QCz0y47QoHwg4dwDxkDz8gJ8IyamFWTb9DLuLl5N07eeIjTl4vMhYgXI03SQDbQGhsowskLd1H00NMRLsvsk0DqmzEb7uHjsspn0Qd7h43Fg3c/lt+Sr9a1qo1t4NSlQly6USwg7TDP3fIdC0gFpC23Gq1hSwWYuRKvDyMeiWTfFA4jFoshFo8n3vlZkzSQDbSJDXR02ls8HIGZss138bgiEfkt/U7b5Heqa96T132l69rpZlVAKiC1k72qrVJACkgBKSAFpIAUkAJSQApkkQICUgFpFpmzDkUKSAEpIAWkgBSQAlJACkgBOykgIBWQ2sle1VYpIAWkgBSQAlJACkgBKSAFskgBAamANIvMWYciBaSAFJACUkAKSAEpIAWkgJ0UEJAKSO1kr2qrFJACUkAKSAEpIAWkgBSQAlmkgIBUQJpF5qxDkQJSQApIASkgBaSAFJACUsBOCghIBaR2sle1VQpIASkgBaSAFJACUkAKSIEsUkBAKiDNInPWoUgBKSAFpIAUkAJSQApIASlgJwUEpAJSO9mr2ioFpIAUkAJSQApIASkgBaRAFikgIBWQZpE561CkgBSQAlJACkgBKSAFpIAUsJMCAlIBqZ3sVW2VAlJACkgBKSAFpIAUkAJSIIsUEJAKSLPInHUoUkAKSAEpIAWkgJO8mk4AABU0SURBVBSQAlJACthJAQGpgNRO9qq2SgEpIAWkgBSQAlJACkgBKZBFCghIBaRZZM46FCkgBaSAFJACUkAKSAEpIAXspICAVEBqJ3tVW1uhQKy2FqEz5xE6dxGh85eyaqo7cx5VxaXwVdbAW1alSRrIBtrQBgK1oVZ4nlauGo+j7so1hM5eyCqfRR9cd/YCam/ega+yFt6yatlsG9qsrgO5fh2sRkVlDRBvpf/R6mlTQEAqIE2bsWlHHatAfUERSv/dDY6XesHRqXdWTe5/dsbFTzfixI2HuHSzGBdvPNAkDWQDrbQB/paOn7+LW0WODnNe8UgU7qFj4Hg+L6t8Fn2w67nuuDvhDRy+fF9+q5W2Kp+va55lA5duPMC5K0U4dbEQ8biItMOcdwt3LCAVkLbQZLS4XRUIFz2Ao3NfOHsOgrPX4KyaPJ164+KqzXhYVmPX06N2S4GMVOCR04+bhaUd17ZoDJ7Rk+HsPiCrfBZ9sLtbfxRMmY1LRa6O01d7lgJZqEBtsA5nrhQJSG10bgWkAlIbmaua2hoFwvcewNmln7mpc/UegmyaPJ174+LqzSj2C0hbYyNaVwo8qUBxqa9jgTTWAKQ98rPKZ9H/ursPQMGUObhU6HxSdv0vBaRAKxRgN4PTAtJWKJj+VQWkAtL0W5322CEKCEg7RHbtVArYWgEBafs9vBOQ2vqnocZnsAKBGgFpBp+eJpsmIBWQNmkYmpl9CghIs++c6oikQHsrICAVkLa3jWn7UqCtFRCQtrWi7b89AamAtP2tTHvICAUEpBlxGtQIKWArBQSkAlJbGawaKwUACEjtZwYCUgGp/axWLU5JAQFpSrJpJSmQ0woISAWkOf0D0MHbUgEBqf1Om4BUQGo/q1WLU1JAQJqSbFpJCuS0AgJSAWlO/wB08LZUQEBqv9MmIBWQ2s9q1eKUFBCQpiSbVpICOa2AgFRAmtM/AB28LRUQkNrvtAlIBaT2s1q1OCUFWgukT45d2qxhY1IY79TVq+U3gBr2JSWT0EpS4C8VyAogfcIPuXoNTgwh87T5jYfFesoyjf1hcnuN12vGZ1XZ/Uvz0wJSICUFBKQpydahKwlIBaQdaoDaefoUaA2QmpuvHgPh7Nofzm794cwb2PxB6nsOTKzDMVCfNXHbDdttKZQKSNNnR9pTbilgeyA1QDkIzh75Cf/F916DEv6r5yA4uw9I+CczfzAeg0uu23MwnN3zH1vG+EOuS1/I9Xs+sV4zYFTjkObW70hHm14FBKTp1bst9iYgFZC2hR1pGzZQIFUg5c2Xo0tf+GfPQ+j0edTuOwjv+GlwvNgLjs59mpycXfombuLyBsI7cQZq9h1EfUERwsUPEX74COGHJQ3TI4SLH4FtC544g7L3PjI3jo/dFDbj5k5AagMDVBNtqYDdgdTZcxDcg0ejauNW1F2+jsrP1sDVZ0gDoPZDNedfuory5avgHjgaXN7K/jDrDnkFlavXIXjyLMqXfJr0a55RExE8dhI1e36Gq//wx9az1v+rd0VIbfmTUKNtoICA1AYn6YkmCkgFpE+YhP7NVgVSAVILRr3jpiB4+HhSmojDifo7hai/W/T4ROgsKEL91RuoWLISrv4j4Js2G+G7hai/U4DKL9ej/INFKF+4NDHNX4yKT1YjdOocuM3KFV/A0X3A41GKNABpNBrF1q1bMXfuXMyaNQs//vgjqqurk8erD1IgVxWwM5CaSGbeQDi69oN30gwEj5wwD8bK3l0IZ9d+qFjyKSKlTgR/PwrvhOlwMEuDmSBWmm7eQHiGj0Ng98+I+stRtWELHA1RUc/YKYi4PAhdvALXgBFw5jVEXa104Gb4rbYAUvquAwcOYM6cOZg5cybWrVuHysrKXDVXHbcUMAoISO1nCAJSAan9rFYtTkmBlgKpgdHOfeCb9hZCp88h6nQjsOtHEykte/9jlH+w+L+n+YtR/tFyVCxeCe+k102kwTd1Nupv3kLw4BG4hryCkr+9iNJ/dklMf+8EV498VG/cYqKklctXpR1I6+rq8M033+DTTz/Fb7/9hr179+K9997D/v37EQqFUtJaK0mBbFHA1kBKoBw1EbX7DqHuwmVEy8rNaYn6/Ki/cQuxQCDxf1k56q5cQ2Dn9/BOmAZntwEGWB3P58HVdxiqt+xAxOFC5aq1KP1XV5T+pxvcQ8eY7A5GTtmVgcsyY4RRVfrOv4qO8vvWAmkkEsFPP/2EZcuW4eeff8a+ffvwySefGCitra3NFhPUcUiBFisgIG2xZB2+goBUQNrhRqgGpEeBFgEpIwQ98uGbPhuh85cQKXWg7vI1hM5eQO3vR020tPa331F78DCCx04hePyUSV9jOi8joybKwL5VeQNNhLT+5h1E/WWou3bDbCN07iLMdPaCSZeLON0IlzpQsfzztAJpPB7HlStXDIBeuHAheSK+/vprfPbZZ3j06FFynj5IgVxUwNZA2j0fvokzEPWVof7mbQOUFSu/MO+VX6xH5edfgf8zSyN8v9hkd/hffxvuwa+gas3XCJ46h7pL1wyMxuvDiDwsQejMeePDCLDxujrEKitRd/4S6s5eRGD3T3APHdvs9N3WAumNGzewZMkSA6OWbR45cgTz5s3DnTt3rFl6lwI5p4CA1H6nXEAqILWf1arFKSnQYiBl/88J0wwkViz7HDV79yPi8SJ45Dhqfj1gbsaY7lb55QZUbdyCwPY9iFVXG1h15b+cKFDEbUx9y9wM8oav5oe9qP56K6o3f5uYNm0z69Vdu4nwo5K0A2ksFsOuXbtMVMHn8yV1vX79OhYtWoQTJ04k5+mDFMhFBewPpNMNSAa+242Sf3VD6d87ofR/O/85/aMTSv7nP6j99QDqr96Ef8Zc09Wg7P1FDX7te9A/xQI15iEafR19WGD3j4hWViNSUorqLdtRvWkbKkw/1JfTBqS//vqryey4detW0jSLi4vxxRdfYM+ePcl5+iAFck0BAan9zriAVEBqP6tVi1NSoEVAyv5PjJJ27W9u3DyjJhkQrbt6A94JM+AeNNpERuuuXId/1jso/UcneMa8hvCDh+bGjv2pTPpaj3z435qHcOE9BA+fgOflSYnUtk694eD0Yk+4+48wN3The8VId8ou+199+eWX2LRp02N9Rp1OJxYuXAje8DGKqpcUyFUF7A6kfKgWcblNBJQP1Wp+3mcerpnP/H/vfgR+2GuioMzkYISU/UtZQZeF29z9h6N6604wi4PFjUr/08P4MPfwsQgXlyB46qyptMtlzXqNiiL9VdpuayOk7GqwZs0aOByOpHl6vV7jz9auXSvflVRFH3JNAQGp/c64gFRAaj+rVYtTUqBFQGpSdhMVclmVsvaPo4h6/Waq3X8INbt/Am/eYqGQKezB6Gjo5FnEgkFz48e+WOUff2KKfbCACKvqBo82AOkLeXB06pOYzA1fxwLpihUrTJQ00NCfjOKWlpYaIGU/UgFpSuamlbJEAbsDqUnZLa9AxOlC7YE/TJVwA6U/7wN9GeexCjj7l4YL78M/8104OveFo0u/BiAdgeqtuxqAdD1Kn7OAdFzCr506Z7o3OF5i1fGG6uJp6EPK7A4+TCN4lpWVJa3N4/GAXQ7Wr18v35VURR9yTQEBqf3OuIBUQGo/q1WLU1Kg5UCaD9+MOQjs+B7h+w8QD0cQeVSC2kNHUH/7rmkD09VYMISFPTgvHgyaFDZGDarWbYZr4CiUf7gMEafTFAAJ7PwBVV99bb7j91VrN5noKPunElrT3YeUEVIC6c6dO9EUkLJIiIA0JXPTSlmigK2BtEc+3ENeMem0ZfM+MsWIWPm7bMFS8H9mcZT+p7spVMQHaFVrNsLz8kR4x081Fb+r1m82BY3qrt9CvK4edecvonLNRuPDTBeF2qABVQ4dY/zZmo3GZ5phYJoBpa2JkBJIGR0lkPr9/qS1WUDKarvyXUlZ9CHHFBCQ2u+EC0gFpPazWrU4JQVaBKS9hySGPuiRb1J2K5Z+ZsYPrfx8LR79f38zlStZ3CN4/DSYzsubuvL3FyH8qNT0r2IqruOFPJPyW7X2a1PQiP1NmeLLMf8IoGbi52s3EXF7O6SoEYF09erVpr9VYyBlChyLhRw6dCglrbWSFMgWBewKpGY80f4jTMTTP+cDM3YyH45VrPgSwT+OI1pejqqvNpr+omZ4qpnvwP/G23D2HgL/m+8hePAw2EWh7tIVhE6dRfDwMYROnEHdxSvGhxn/d/iYKehm5jUUfatYtAKu/FHN6kfaGiClfTESyqlxhJQpu0zl3bx5c7aYoI5DCrRYAQFpiyXr8BUEpALSDjdCNSA9CrQUSNn/ydzU9RpiCg9xHL7avftRzrFDl69C7cEjiEdjpjIlgbX24B+m8Efw9Dkz9AuHW3APehm1vxxAxF+OiqWfJ/pavdDTpMKxz1VyWIXN33XIsC+MMuzYscPcwDUeu+/27dumyu758+fTc3K0FymQoQrYEUjNOKI9B8P/+lzTf52+L7BjD2I1NSbjg98z84PjkvqmvpWoslv0wPQ15dAurr5D4aCfej7PPJCjLySk+qa+mRhvlOOavvoG/HPmm4hq6b+7mYdyTNs1Q8YwOtrOEVKaC4d62bhx42PVwFkZnOm67P+ulxTIVQUEpPY78wJSAan9rFYtTkmBlICU4/iNnIiqjdvAtDUWJ+J2wkX3UX+nwAzjwqFc6u8WIlpRiXgsDo7xx8Hiy+bOR/nCZQiXOk3BEN/0t0zENHGzOCjR76pzXzPEAvuchh8+QuXy1Wkf9uXs2bN4//33UVBQkNT1u+++w6pVq/DgwYPkPH2QArmogC2BtGH80ZoffkHEV2a6BTBTI+IvQ2DbTrh6DUr0BX2uu+nrzgwNRjzri+4ZX8Wq4s7uA+AeNg7+t94DK/RGvD7U/HIA3nFT4R42FjU//oqI24O6C1fAcZm9E6bDxTFIWdSoGTDaFuOQXrp0CcuXL8cff/yRNM2TJ0/iww8/xM2bN5Pz9EEK5JoCAlL7nXEBqYDUflarFqekQEpAyuJGvMnqPgCOLn0TxT5Y8KNTHzOsi+eVV+GbMstU0mXRIhYO4c0Zl2caXO2Bw2YoGI7P5xkxITEUDG/W+o0wKXS+N95GxaJPELpwGeESB8o/+sSAanNv6Kwqlp7OvXFx9WYU+2tarE1NTY0ZOoEQyuFezp07Z4aBOXr0KMLhcIu3pxWkQDYpYEsg7ZEP7+TXTaG12j+OwzftLRAyo2UVJvWWD8v8TNGd+bb5P+r2omLZKnCol+DRk6bYET+zn6gZw/T2XVR+ugaOl3onh7OiX/TPfh91V24gWlWF+qs3TBTV1Weo6e5g+aZnvbc2Zbeurg7bt283w7wQTi9fvmwq7DJll90R9JICuaqAgNR+Z15AKiC1n9WqxSkpkAqQ8mbKRDQJpo2nHvnwjJ2C4O9HTUQ06vGaYkZMzzU3ZHkD4ZsxF6EzF1D7y2/wjJxgQNNsg9GL0ZMR2PmjiUZEvT5EShxmbFPv2Klw9hzY7AiDdbPXGiClmCwKsnjxYkycOBGvvfaaGX9UN3QpmZlWyjIFbAmkjR6kmRTabgNMcaPQ2QumCBHHU454fGZcZcJo7YHf4X3lVTNsC9NuWfCo/vpN1F+7AVYJN0O69MhPPJx7wg9yiKvyBUtMxkjoxOnkgzfLNz3rvbVASlOrqqoyEPrKK69g6tSppguCihll2Y9Qh9NiBQSkLZasw1cQkApIO9wI1YD0KJAqkDZ1Q5WEU0ZP8wY2mhIpa+b7ng3R1YY0Ns7jtp6+7sDkDZ+r1xCzbFP7bmpea4E0PWdAe5EC9lPAjkD6mJ+xANL4qif9VSPfxe8tkLV8Vh6X/9OnPeZ7ntyutU7D/MeW5bjOTUxtAaT2syi1WAq0vwIC0vbXuK33ICAVkLa1TWl7GapAWwLpYzd81o2YdUNH8LRu1hq9N74hewxKrfWtG7kWwii3KyDNUKNTs2yvgF2BtLG/SfqrJx+SPel7GqDxMTD9q/6glo9r7P+agM8n28P/BaS2/3noADJUAQFphp6YZzRLQCogfYZ56KtsUqCtgbSpG6yOmicgzSZL1bFkkgLZAqQd5ZuetV8BaSZZutqSTQoISO13NgWkAlL7Wa1anJICAtKUZNNKUiCnFRCQNp1u+yzQbO53AtKc/mnp4NtRAQFpO4rbTpsWkApI28m0tNlMU0BAmmlnRO2RApmvgIBUQJr5VqoWSoHHFRCQPq6HHf4TkApI7WCnamMbKCAgbQMRtQkpkGMKCEgFpDlm8jrcLFBAQGq/kyggFZDaz2rV4pQUEJCmJJtWkgI5rYCAVECa0z8AHbwtFRCQ2u+0CUgFpPazWrU4JQUEpCnJppWkQE4rICAVkOb0D0AHb0sFBKT2O20CUgGp/axWLU5JAQFpSrJpJSmQ0woISAWkOf0D0MHbUgEBqf1Om4BUQGo/q1WLU1IgXPQAji794Gw0Xl5yPFBrLD2bvns69cbFVZvxqLw2JW20khSQAk0r8Mjpx83C0qa/TMfcaAye0ZPh7J6PbPFX1nG4u/dHwZQ5uFTkSoeS2ocUyBkFakP1OHOlCPF4PGeO2e4HKiAVkNrdhtX+ZipQf7cIpf/sAscLeXC82DOrJtc/XsKFlRtw6uYjXLvzCFdvP9QkDWQDrbQB/pZOXijoUCCNR6JwDR6N0v90zyqfRR/s/HdX3B03A0eu3JffaqWtyufrmmfZAP3Wxev3cfJigYC0mfeHmbCYgFRAmgl2qDakQYFYdQC1Bw8j+PtRBP/Irin0/9qzYx2CwTAMo+7/kkQwGMRgNxg1EVrRRkefuIBupR//GSwG2pPHLy/zZTSHY1TXNk7nxoOBBkZs4N71XzihBt7i+Yx+s43HYv1351a/WEW720dVv8+tm2ZHbNb3gO/BS91G+IN04GDN97RBapDmq9IVESBAgAABAgQIECBQhIBBapAWEbqbJECAAAECBAgQIEAgn4BBapDmq9IVESBAgAABAgQIECBQhIBBapAWEbqbJECAAAECBAgQIEAgn4BBapDmq9IVESBAgAABAgQIECBQhIBBapAWEbqbJECAAAECBAgQIEAgn4BBapDmq9IVESBAgAABAgQIECBQhIBBapAWEbqbJECAAAECBAgQIEAgn4BB+sFB2nntYNAx8DnQgAY0oAENaEADGtDAjzcwM2wMGw1oQAMa0IAGNKABDWhAAxqYogGD9Md/UZgiGu/psNKABjSgAQ1oQAMa0IAGxmjgBf2pjgfX07Z3AAAAAElFTkSuQmCC;" vertex="1" parent="1">
          <mxGeometry x="140" y="210" width="932" height="969" as="geometry" />
        </mxCell>
        <mxCell id="73lBX8eidflfjzxf0X3--5" value="标识" style="rounded=0;whiteSpace=wrap;html=1;fillColor=#CCCCCC;" vertex="1" parent="1">
          <mxGeometry x="81" y="312" width="120" height="30" as="geometry" />
        </mxCell>
        <mxCell id="73lBX8eidflfjzxf0X3--6" value="ams那边的道具名（置灰）" style="rounded=0;whiteSpace=wrap;html=1;fillColor=#f5f5f5;strokeColor=#666666;fontColor=#333333;" vertex="1" parent="1">
          <mxGeometry x="81" y="342" width="120" height="35" as="geometry" />
        </mxCell>
        <mxCell id="73lBX8eidflfjzxf0X3--7" value="&lt;span&gt;ams那边的道具名&lt;/span&gt;" style="rounded=0;whiteSpace=wrap;html=1;fillColor=#f5f5f5;strokeColor=#666666;fontColor=#333333;" vertex="1" parent="1">
          <mxGeometry x="81" y="376" width="120" height="30" as="geometry" />
        </mxCell>
        <mxCell id="73lBX8eidflfjzxf0X3--12" value="标识" style="rounded=0;whiteSpace=wrap;html=1;fillColor=#CCCCCC;" vertex="1" parent="1">
          <mxGeometry x="81" y="448" width="120" height="30" as="geometry" />
        </mxCell>
        <mxCell id="73lBX8eidflfjzxf0X3--13" value="ams那边的道具名（置灰）" style="rounded=0;whiteSpace=wrap;html=1;fillColor=#f5f5f5;strokeColor=#666666;fontColor=#333333;" vertex="1" parent="1">
          <mxGeometry x="81" y="478" width="120" height="35" as="geometry" />
        </mxCell>
        <mxCell id="73lBX8eidflfjzxf0X3--15" value="标识" style="rounded=0;whiteSpace=wrap;html=1;fillColor=#CCCCCC;" vertex="1" parent="1">
          <mxGeometry x="81" y="690" width="120" height="30" as="geometry" />
        </mxCell>
        <mxCell id="73lBX8eidflfjzxf0X3--16" value="空" style="rounded=0;whiteSpace=wrap;html=1;fillColor=#f5f5f5;strokeColor=#666666;fontColor=#333333;" vertex="1" parent="1">
          <mxGeometry x="81" y="720" width="120" height="35" as="geometry" />
        </mxCell>
      </root>
    </mxGraphModel>
  </diagram>
</mxfile>
